<svg id="shape" xmlns="http://www.w3.org/2000/svg" width="276.844" height="59.594" viewBox="0 0 276.844 59.594">
  <defs>
    <style>
      .cls-1 {
        fill: #9d9c9c;
      }

      .cls-1, .cls-2, .cls-3 {
        fill-rule: evenodd;
      }

      .cls-2 {
        fill: #76b82b;
      }

      .cls-3 {
        fill: #f27028;
      }
    </style>
  </defs>
  <path id="adelante_con_tu_efectivo" data-name="adelante con tu efectivo" class="cls-1" d="M356.364,512.641h2.212l0.714-2.142h3.29l0.714,2.142h2.31l-3.416-9.338H359.85Zm3.416-3.78,1.162-3.528,1.134,3.528h-2.3Zm8.61,3.78H371.9a6.666,6.666,0,0,0,2-.287,4.364,4.364,0,0,0,1.582-.868,4.051,4.051,0,0,0,1.043-1.442,5,5,0,0,0,.378-2.023,5.509,5.509,0,0,0-.371-2.114,3.849,3.849,0,0,0-1.036-1.47,4.309,4.309,0,0,0-1.582-.854,6.8,6.8,0,0,0-2-.28H368.39v9.338Zm2.114-1.876v-5.6h1.288a3.725,3.725,0,0,1,1.3.2,2.37,2.37,0,0,1,.9.574,2.339,2.339,0,0,1,.532.9,3.7,3.7,0,0,1,.175,1.169,2.692,2.692,0,0,1-.756,2.023,2.967,2.967,0,0,1-2.156.735H370.5Zm9.631,1.876h6.692v-1.862h-4.578v-2.016h3.318v-1.792h-3.318v-1.82h4.27V503.3h-6.384v9.338Zm9.9,0h6.58v-1.876h-4.466V503.3h-2.114v9.338Zm9,0h2.212l0.714-2.142h3.29l0.714,2.142h2.31l-3.416-9.338h-2.338Zm3.416-3.78,1.162-3.528,1.134,3.528h-2.3Zm8.61,3.78h2.086v-6.174l4.144,6.174h1.918V503.3h-2.086v6.062l-4.046-6.062h-2.016v9.338Zm14.154,0h2.128v-7.476h3.01V503.3h-8.162v1.862h3.024v7.476Zm8.12,0h6.692v-1.862h-4.578v-2.016h3.318v-1.792h-3.318v-1.82h4.27V503.3h-6.384v9.338Zm21.2-3.038c-0.14.158-.285,0.315-0.434,0.469a2.616,2.616,0,0,1-.511.406,2.678,2.678,0,0,1-.658.28,3.237,3.237,0,0,1-.875.105,2.633,2.633,0,0,1-1.106-.224,2.52,2.52,0,0,1-.84-0.616,2.757,2.757,0,0,1-.539-0.924,3.56,3.56,0,0,1,0-2.289,2.876,2.876,0,0,1,.539-0.945,2.464,2.464,0,0,1,.854-0.637A2.691,2.691,0,0,1,452.1,505a2.547,2.547,0,0,1,1.372.357,3.48,3.48,0,0,1,.994.945l1.442-1.386a4.285,4.285,0,0,0-1.617-1.372,5.112,5.112,0,0,0-2.275-.476,4.889,4.889,0,0,0-1.967.385,4.609,4.609,0,0,0-1.526,1.05,4.675,4.675,0,0,0-.987,1.568,5.585,5.585,0,0,0,0,3.892,4.563,4.563,0,0,0,.987,1.54,4.5,4.5,0,0,0,1.519,1.015,5.064,5.064,0,0,0,1.946.364,4.96,4.96,0,0,0,1.239-.154,5.275,5.275,0,0,0,1.106-.42,5.041,5.041,0,0,0,.931-0.623,4.388,4.388,0,0,0,.714-0.763Zm10.493,2.9a4.7,4.7,0,0,0,2.562-2.6,5.271,5.271,0,0,0,0-3.885,4.712,4.712,0,0,0-2.562-2.59,5.091,5.091,0,0,0-3.85,0,4.712,4.712,0,0,0-2.562,2.59,5.271,5.271,0,0,0,0,3.885,4.7,4.7,0,0,0,2.562,2.6A5.091,5.091,0,0,0,465.024,512.5Zm-3.038-1.848a2.5,2.5,0,0,1-.84-0.644,2.882,2.882,0,0,1-.525-0.938,3.624,3.624,0,0,1,0-2.268,2.789,2.789,0,0,1,.525-0.931,2.446,2.446,0,0,1,.84-0.63,2.607,2.607,0,0,1,1.113-.231,2.566,2.566,0,0,1,1.106.231,2.487,2.487,0,0,1,.833.63,2.824,2.824,0,0,1,.525.931,3.624,3.624,0,0,1,0,2.268,2.92,2.92,0,0,1-.525.938,2.539,2.539,0,0,1-.833.644,2.511,2.511,0,0,1-1.106.238A2.552,2.552,0,0,1,461.986,510.653Zm9.2,1.988h2.086v-6.174l4.144,6.174h1.918V503.3h-2.086v6.062l-4.046-6.062h-2.016v9.338Zm18.466,0h2.128v-7.476h3.01V503.3h-8.162v1.862h3.024v7.476Zm8.05-3.542a4.205,4.205,0,0,0,.273,1.54,3.408,3.408,0,0,0,.784,1.2,3.465,3.465,0,0,0,1.239.777,4.592,4.592,0,0,0,1.624.273,4.51,4.51,0,0,0,1.624-.28,3.627,3.627,0,0,0,1.239-.777,3.358,3.358,0,0,0,.784-1.2,4.205,4.205,0,0,0,.273-1.54v-5.8h-2.142v5.53a3.542,3.542,0,0,1-.091.833,1.657,1.657,0,0,1-.3.637,1.39,1.39,0,0,1-.553.413,2.115,2.115,0,0,1-.833.147,2.15,2.15,0,0,1-.847-0.147,1.383,1.383,0,0,1-.553-0.413,1.643,1.643,0,0,1-.3-0.637,3.49,3.49,0,0,1-.091-0.833V503.3h-2.128v5.8Zm15.679,3.542h6.692v-1.862H515.5v-2.016h3.318v-1.792H515.5v-1.82h4.27V503.3h-6.384v9.338Zm9.9,0H525.4v-3.556h3.164v-1.806H525.4v-2.114h4.158V503.3h-6.272v9.338Zm9.324,0H539.3v-1.862h-4.578v-2.016h3.318v-1.792h-3.318v-1.82h4.27V503.3h-6.384v9.338ZM549.03,509.6c-0.14.158-.285,0.315-0.434,0.469a2.587,2.587,0,0,1-.511.406,2.662,2.662,0,0,1-.658.28,3.232,3.232,0,0,1-.875.105,2.636,2.636,0,0,1-1.106-.224,2.52,2.52,0,0,1-.84-0.616,2.774,2.774,0,0,1-.539-0.924,3.56,3.56,0,0,1,0-2.289,2.893,2.893,0,0,1,.539-0.945,2.464,2.464,0,0,1,.854-0.637,2.691,2.691,0,0,1,1.134-.231,2.547,2.547,0,0,1,1.372.357,3.467,3.467,0,0,1,.994.945l1.442-1.386a4.27,4.27,0,0,0-1.617-1.372,5.112,5.112,0,0,0-2.275-.476,4.893,4.893,0,0,0-1.967.385,4.619,4.619,0,0,0-1.526,1.05,4.675,4.675,0,0,0-.987,1.568,5.585,5.585,0,0,0,0,3.892,4.563,4.563,0,0,0,.987,1.54,4.507,4.507,0,0,0,1.519,1.015,5.067,5.067,0,0,0,1.946.364,4.96,4.96,0,0,0,1.239-.154,5.254,5.254,0,0,0,1.106-.42,5.007,5.007,0,0,0,.931-0.623,4.388,4.388,0,0,0,.714-0.763Zm6.874,3.038h2.128v-7.476h3.01V503.3H552.88v1.862H555.9v7.476Zm8.12,0h2.114V503.3h-2.114v9.338Zm8.33,0h2.226l3.43-9.338h-2.24l-2.226,6.818-2.282-6.818h-2.338Zm14.441-.14a4.7,4.7,0,0,0,2.562-2.6,5.271,5.271,0,0,0,0-3.885,4.712,4.712,0,0,0-2.562-2.59,5.091,5.091,0,0,0-3.85,0,4.712,4.712,0,0,0-2.562,2.59,5.271,5.271,0,0,0,0,3.885,4.7,4.7,0,0,0,2.562,2.6A5.091,5.091,0,0,0,586.795,512.5Zm-3.038-1.848a2.5,2.5,0,0,1-.84-0.644,2.882,2.882,0,0,1-.525-0.938,3.624,3.624,0,0,1,0-2.268,2.789,2.789,0,0,1,.525-0.931,2.446,2.446,0,0,1,.84-0.63,2.607,2.607,0,0,1,1.113-.231,2.566,2.566,0,0,1,1.106.231,2.487,2.487,0,0,1,.833.63,2.824,2.824,0,0,1,.525.931,3.624,3.624,0,0,1,0,2.268,2.92,2.92,0,0,1-.525.938,2.539,2.539,0,0,1-.833.644,2.511,2.511,0,0,1-1.106.238A2.552,2.552,0,0,1,583.757,510.653Z" transform="translate(-313 -453.312)"/>
  <path id="dineria" class="cls-2" d="M355.418,475.256c0,7.68,4.416,12.961,11.137,12.961a8.255,8.255,0,0,0,7.152-3.6h0.1a2.706,2.706,0,0,0-.048.336v0.288c0,1.585.912,2.4,2.641,2.4h2.5a2.36,2.36,0,0,0,2.64-2.641V455.958a2.36,2.36,0,0,0-2.64-2.64h-3.025a2.36,2.36,0,0,0-2.64,2.64v7.729c0,0.624.048,1.1,0.048,1.1h-0.1s-1.488-2.449-6.48-2.449C360.122,462.342,355.418,467.431,355.418,475.256Zm8.352,0c0-3.793,2.257-5.9,4.849-5.9,3.264,0,4.848,2.928,4.848,5.9,0,4.272-2.352,6.1-4.848,6.1C365.739,481.352,363.77,478.952,363.77,475.256ZM389.21,459.8h2.832a2.36,2.36,0,0,0,2.64-2.64v-1.2a2.36,2.36,0,0,0-2.64-2.64H389.21a2.36,2.36,0,0,0-2.64,2.64v1.2A2.36,2.36,0,0,0,389.21,459.8ZM386.474,485a2.36,2.36,0,0,0,2.64,2.641h3.024a2.36,2.36,0,0,0,2.64-2.641V465.559a2.36,2.36,0,0,0-2.64-2.641h-3.024a2.36,2.36,0,0,0-2.64,2.641V485Zm13.2,0a2.36,2.36,0,0,0,2.641,2.641h3.024a2.36,2.36,0,0,0,2.64-2.641v-8.544c0-3.5,1.68-6.577,5.377-6.577,1.824,0,2.736.96,2.736,3.264V485a2.36,2.36,0,0,0,2.64,2.641h3.024A2.36,2.36,0,0,0,424.4,485V471.607c0-6.96-3.888-9.265-8.88-9.265a8.722,8.722,0,0,0-7.873,4.273h-0.1s0.048-.384.048-0.624v-0.432A2.326,2.326,0,0,0,405,462.918h-2.688a2.361,2.361,0,0,0-2.641,2.641V485Zm27.887-9.744c0,6.576,4.753,12.961,13.586,12.961a17.237,17.237,0,0,0,8.5-2.209c1.441-.816,1.681-2.112.912-3.6l-0.672-1.248c-0.816-1.536-1.968-1.728-3.552-1.008a10.275,10.275,0,0,1-4.512,1.152,5.52,5.52,0,0,1-5.761-4.416h13.009a2.839,2.839,0,0,0,2.785-2.737c0-6.624-4.081-11.809-11.425-11.809C432.457,462.342,427.56,468.007,427.56,475.256Zm8.689-3.121c0.432-1.968,1.584-3.7,3.985-3.7a3.433,3.433,0,0,1,3.408,3.7h-7.393ZM455.256,485a2.36,2.36,0,0,0,2.64,2.641h3.025a2.36,2.36,0,0,0,2.64-2.641v-6.96c0-4.033,1.92-7.393,5.856-7.393a2.36,2.36,0,0,0,2.641-2.64v-2.688c0-1.728-.577-2.641-2.257-2.641-3.12,0-5.76,3.409-6.576,5.953h-0.1a13.081,13.081,0,0,0,.1-1.536v-1.536a2.36,2.36,0,0,0-2.64-2.641H457.9a2.36,2.36,0,0,0-2.64,2.641V485Zm22.176-25.2h2.833a2.36,2.36,0,0,0,2.64-2.64v-1.2a2.36,2.36,0,0,0-2.64-2.64h-2.833a2.36,2.36,0,0,0-2.64,2.64v1.2A2.36,2.36,0,0,0,477.432,459.8ZM474.7,485a2.36,2.36,0,0,0,2.64,2.641h3.025A2.36,2.36,0,0,0,483,485V465.559a2.36,2.36,0,0,0-2.64-2.641h-3.025a2.36,2.36,0,0,0-2.64,2.641V485Zm11.52-4.32c0,4.272,3.312,7.537,8.064,7.537a8.839,8.839,0,0,0,7.3-3.937h0.1a2.177,2.177,0,0,0-.048.48v0.192a2.355,2.355,0,0,0,2.64,2.689h2.3A2.361,2.361,0,0,0,509.21,485V472.423c0-6.288-4.225-10.081-11.041-10.081a19.76,19.76,0,0,0-8.305,1.921,2.407,2.407,0,0,0-1.056,3.552l0.576,1.2c0.768,1.536,1.968,1.824,3.552,1.152a11.127,11.127,0,0,1,4.465-1.1c1.824,0,3.5.672,3.5,2.736v0.432h-0.72C494.088,472.231,486.216,474.055,486.216,480.68Zm8.208-.768c0-2.256,3.265-2.928,5.809-2.928H501v0.672a4.52,4.52,0,0,1-4.225,4.368A2.112,2.112,0,0,1,494.424,479.912Z" transform="translate(-313 -453.312)"/>
  <path id="_.mx" data-name=".mx" class="cls-3" d="M513.378,485a2.36,2.36,0,0,0,2.64,2.641h2.592A2.36,2.36,0,0,0,521.25,485v-2.592a2.36,2.36,0,0,0-2.64-2.64h-2.592a2.36,2.36,0,0,0-2.64,2.64V485Zm12.432,0a2.36,2.36,0,0,0,2.64,2.641h3.024a2.36,2.36,0,0,0,2.64-2.641v-7.824c0-3.409.961-7.3,4.753-7.3,1.584,0,1.92,1.3,1.92,3.12v12a2.36,2.36,0,0,0,2.64,2.641h3.025a2.36,2.36,0,0,0,2.64-2.641v-7.824c0-3.7,1.152-7.3,4.752-7.3,1.584,0,1.92,1.3,1.92,3.12v12a2.36,2.36,0,0,0,2.641,2.641h3.024a2.36,2.36,0,0,0,2.64-2.641V471.607c0-6.816-3.5-9.265-8.017-9.265a9.55,9.55,0,0,0-7.92,4.177h-0.1a7.161,7.161,0,0,0-6.913-4.177,8.8,8.8,0,0,0-7.345,4.273h-0.1s0.048-.384.048-0.624v-0.432a2.326,2.326,0,0,0-2.592-2.641H528.45a2.36,2.36,0,0,0-2.64,2.641V485Zm42-.528c-1.152,1.777-.384,3.169,1.776,3.169H572.8a3.255,3.255,0,0,0,3.12-1.873l1.92-3.7c0.24-.432.576-1.248,0.576-1.248h0.1s0.336,0.816.576,1.248l1.968,3.7a3.256,3.256,0,0,0,3.121,1.873H587.4c2.16,0,2.928-1.392,1.776-3.169l-5.76-9.072,5.9-9.313c1.152-1.776.384-3.169-1.776-3.169h-3.408a3.21,3.21,0,0,0-3.121,1.921l-1.728,3.6c-0.288.624-.768,1.632-0.768,1.632h-0.1s-0.432-1.008-.768-1.632l-1.728-3.6a3.209,3.209,0,0,0-3.12-1.921h-3.409c-2.16,0-2.928,1.393-1.776,3.169l5.953,9.313Z" transform="translate(-313 -453.312)"/>
  <path id="Shape_6_copy" data-name="Shape 6 copy" class="cls-3" d="M320.556,454A7.556,7.556,0,1,1,313,461.556,7.555,7.555,0,0,1,320.556,454Zm18.888,18.889a7.556,7.556,0,1,1-7.555,7.555A7.556,7.556,0,0,1,339.444,472.889Zm-18.888,0A7.556,7.556,0,1,1,313,480.444,7.555,7.555,0,0,1,320.556,472.889Zm18.888-19a7.556,7.556,0,1,1-7.555,7.555A7.556,7.556,0,0,1,339.444,453.889Z" transform="translate(-313 -453.312)"/>
</svg>
