<?xml version="1.0" encoding="utf-8"?>
<!-- Generator: Adobe Illustrator 21.1.0, SVG Export Plug-In . SVG Version: 6.00 Build 0)  -->
<svg version="1.1" id="Layer_1" xmlns="http://www.w3.org/2000/svg" xmlns:xlink="http://www.w3.org/1999/xlink" x="0px" y="0px"
	 viewBox="0 0 24 24" style="enable-background:new 0 0 24 24;" xml:space="preserve">
<style type="text/css">
	.st0{fill:#ffffff;}
</style>
<g>
	<g>
		<linearGradient id="SVGID_1_" gradientUnits="userSpaceOnUse" x1="5.5819" y1="20.1474" x2="18.4166" y2="4.8516">
			<stop  offset="0" style="stop-color:#FA9D3E"/>
			<stop  offset="0.34" style="stop-color:#F05E47"/>
			<stop  offset="0.73" style="stop-color:#DD2D73"/>
			<stop  offset="0.8004" style="stop-color:#CD2F84"/>
			<stop  offset="0.9249" style="stop-color:#B6319E"/>
			<stop  offset="1" style="stop-color:#AE32A7"/>
		</linearGradient>
		<path class="st0" d="M20.4,9c0-0.9-0.2-1.5-0.4-2.1c-0.2-0.6-0.5-1-1-1.5c-0.5-0.5-0.9-0.8-1.5-1c-0.5-0.2-1.2-0.4-2.1-0.4
			C14.6,4,14.3,4,12,4C9.7,4,9.4,4,8.5,4.1C7.6,4.1,7,4.2,6.4,4.4c-0.6,0.2-1,0.5-1.5,1c-0.5,0.5-0.8,0.9-1,1.5
			C3.7,7.5,3.6,8.1,3.6,9c0,0.9-0.1,1.2-0.1,3.5c0,2.3,0,2.6,0.1,3.5c0,0.9,0.2,1.5,0.4,2.1c0.2,0.6,0.5,1,1,1.5
			c0.5,0.5,0.9,0.8,1.5,1c0.5,0.2,1.2,0.4,2.1,0.4C9.4,21,9.7,21,12,21c2.3,0,2.6,0,3.5-0.1c0.9,0,1.5-0.2,2.1-0.4
			c0.6-0.2,1-0.5,1.5-1c0.5-0.5,0.8-0.9,1-1.5c0.2-0.5,0.4-1.2,0.4-2.1c0-0.9,0.1-1.2,0.1-3.5C20.5,10.2,20.5,9.9,20.4,9z
			 M18.9,15.9c0,0.8-0.2,1.3-0.3,1.6c-0.2,0.4-0.3,0.7-0.6,1c-0.3,0.3-0.6,0.5-1,0.6c-0.3,0.1-0.8,0.3-1.6,0.3c-0.9,0-1.2,0-3.4,0
			s-2.5,0-3.4,0c-0.8,0-1.3-0.2-1.6-0.3c-0.4-0.2-0.7-0.3-1-0.6c-0.3-0.3-0.5-0.6-0.6-1c-0.1-0.3-0.3-0.8-0.3-1.6c0-0.9,0-1.2,0-3.4
			c0-2.3,0-2.5,0-3.4c0-0.8,0.2-1.3,0.3-1.6c0.2-0.4,0.3-0.7,0.6-1C6.3,6.2,6.6,6,7,5.9c0.3-0.1,0.8-0.3,1.6-0.3c0.9,0,1.2,0,3.4,0
			s2.5,0,3.4,0c0.8,0,1.3,0.2,1.6,0.3c0.4,0.2,0.7,0.3,1,0.6c0.3,0.3,0.5,0.6,0.6,1c0.1,0.3,0.3,0.7,0.3,1.6c0,0.9,0,1.2,0,3.4
			C19,14.8,19,15,18.9,15.9z M12,8.1c-2.4,0-4.4,2-4.4,4.4c0,2.4,2,4.4,4.4,4.4c2.4,0,4.4-2,4.4-4.4C16.4,10.1,14.4,8.1,12,8.1z
			 M12,15.3c-1.6,0-2.8-1.3-2.8-2.8c0-1.6,1.3-2.8,2.8-2.8c1.6,0,2.8,1.3,2.8,2.8C14.8,14.1,13.6,15.3,12,15.3z M16.5,6.9
			c-0.6,0-1,0.5-1,1c0,0.6,0.5,1,1,1c0.6,0,1-0.5,1-1C17.6,7.4,17.1,6.9,16.5,6.9z"/>
	</g>
</g>
</svg>
