<svg id="Layer_1" xmlns="http://www.w3.org/2000/svg" viewBox="0 0 140 140"><style>.st0{fill:#ffd274}.st1{fill:#777}</style><path id="XMLID_850_" class="st0" d="M50.7 96.1l-9.9-9.7 2.1-4.9C47.1 86 52 89.4 56.5 91l-5.8 5.1z"/><path id="XMLID_849_" class="st0" d="M81.2 81.5l2.1 4.9-9.9 9.7-5.9-5.1c4.5-1.6 9.4-5 13.7-9.5z"/><path id="XMLID_846_" class="st0" d="M35.6 30c1.3-3.4 3.3-6.3 5.9-8.8 2.4-2.2 5.3-4.1 8.7-5.5 7.2-3.1 15-3.7 20.3-3.7 1.7 0 3.3.1 4.7.2-1.5 2.8-1.8 5.6-1.6 7.3l.4 4.6 4.6-.2c.2 0 2.3 0 4.7.9 2.8 1.1 4.7 2.8 5.8 5.3.8 1.9 1.3 4.2 1.5 7l-1.8-2.8-1.8-2.9-3.4.8c-.1 0-10.7 2.4-21.6 2.4-10.9 0-21.1-2.3-21.2-2.4l-3.7-.9-1.8 3.3L34 37c.3-2.7.9-5.1 1.6-7z"/><path class="st1" d="M62 87.6c-2.2 0-5-1-7.9-2.7-3.3-1.9-6.5-4.7-9.4-8-6.6-7.5-10.4-16.6-10.4-25 0-2.5.2-5 .7-7.3 0-.1 0-.1.1-.1l4.2-7.6c.1-.2.3-.3.5-.2.1 0 10.8 2.5 22.2 2.5s22.5-2.5 22.6-2.5c.2-.1.4 0 .5.2l3.2 5s0 .1.1.1c.9 3.1 1.3 6.4 1.3 9.9 0 8.4-3.8 17.5-10.4 25-2.9 3.3-6.2 6.1-9.4 8-2.9 1.8-5.7 2.7-7.9 2.7zM35.9 44.8c-.4 2.2-.7 4.6-.7 7 0 8.1 3.7 17 10.2 24.3 2.8 3.2 6 5.9 9.2 7.8 2.8 1.7 5.4 2.6 7.4 2.6s4.6-.9 7.4-2.6c3.2-1.9 6.4-4.6 9.2-7.8C85 68.9 88.7 60 88.7 51.9c0-3.4-.4-6.6-1.3-9.6l-3-4.7c-2 .4-12.1 2.4-22.5 2.4-10.3 0-20.1-2-22.1-2.4l-3.9 7.2zM54.5 123H9.7c-.6 0-1-.4-1-1v-11.4c0-4.1 2.7-7.8 6.6-9.2l.3-.1c.4-.1.8-.2 1.1-.3l4.9-1.7c1.2-.5 2.2-1 3.1-1.4l.3-.1c.7-.3 1.3-.6 2-.9.7-.3 1.4-.5 2.1-.8l5-2.2c1.8-.9 3.3-1.8 4.5-2.7.4-.3.9-.2 1.3.1l9.6 9.4c.5.5 1.5.6 2 .1l2.3-2c.3-.3.7-.3 1.1-.2.4.2.6.5.6.9V122c0 .6-.4 1-1 1zM39.2 91.9c-1.3.9-2.9 1.9-4.7 2.8l-5 2.3c-.7.3-1.4.5-2.1.8-.6.2-1.2.5-1.9.8l-.3.1c-.9.5-2 .9-3.2 1.5l-5 1.7c-.4.1-.7.2-1.1.3l-.3.1c-3.5 1.2-5.9 4.5-5.9 8.2V122h44.8V99.4l-2.3 2c-1 .8-2.5.8-3.4-.1l-9.6-9.4z"/><circle class="st0" cx="62" cy="104.5" r="3"/><circle class="st0" cx="62" cy="116.5" r="3"/><path class="st1" d="M5.2 126.5v-15.9c0-5.7 3.7-10.7 9.1-12.5l.4-.1c4.3-1.2 6.7-2.3 8.6-3.2.9-.4 1.7-.8 2.5-1.1 4.4-1.7 7.8-3.3 10.1-4.9.2-.1.3-.4.1-.7-.3-.5-.4-1.2-.1-1.8l3.3-7.7v-1.8c0-.1 0-.2-.1-.3-3.6-4.8-8-12.5-8.8-21.8v-.1c-.2-1.1-2.9-16 1.1-26.2C38.9 9.5 61.3 7.5 70.6 7.5c7 0 12.1 1 13.5 1.7-6.5 4.1-5.9 9.6-5.9 9.8 0 .3.3.4.6.4 1.1 0 10.9.3 14.6 9 4 9.2.5 23.3.4 23.4v.1c0 8.1-3.2 16.8-8.9 24.5-.1.1-.1.2-.1.3v1.8l3.3 7.7c.2.6.2 1.3-.1 1.8-.1.2-.1.5.1.7 2.3 1.6 5.7 3.2 10.1 4.9.8.3 1.6.7 2.5 1.1.9.5 2 1 3.3 1.5.4-.2.7-.5 1.1-.7-1.7-.6-2.9-1.2-4-1.7-.9-.4-1.7-.8-2.6-1.1-4.1-1.6-7.3-3.1-9.5-4.5.3-.7.3-1.5 0-2.3l-3.2-7.6V77c5.8-7.8 9-16.6 9-24.9.3-1.2 3.6-14.7-.5-24-3.7-8.6-12.9-9.5-15.1-9.5 0-1.3.5-5.5 5.8-8.7.4-.2.4-.5.3-.8-.4-1.4-8.1-2.5-14.7-2.5-9.5 0-32.3 2.1-40 21.5-4.3 10.7-1.3 26.1-1.1 26.8.8 9.5 5.2 17.2 8.9 22.1v1.3L35 85.8c-.3.7-.3 1.5 0 2.3-2.2 1.5-5.4 3-9.5 4.5-.9.3-1.7.7-2.6 1.2-1.9.9-4.2 2-8.4 3.2l-.5.1c-5.9 1.9-9.8 7.4-9.8 13.5V127c0 .3.2.5.5.5h95.4c-.3-.3-.6-.7-.9-1h-94z"/><path class="st1" d="M69.7 122V99.4l2.3 2c1 .8 2.5.8 3.4-.1l9.6-9.4c1.3.9 2.9 1.9 4.7 2.8l5 2.3c.7.3 1.4.5 2.1.8.6.2 1.2.5 1.9.8l.3.1 1.2.6c.2-.3.5-.5.8-.8-.6-.3-1.1-.5-1.6-.7l-.3-.1c-.7-.3-1.3-.6-2-.9-.7-.3-1.4-.5-2-.8l-5-2.2c-1.8-.9-3.3-1.8-4.6-2.7-.4-.3-.9-.2-1.3.1l-9.6 9.4c-.5.5-1.5.6-2 .1l-2.3-2c-.3-.3-.7-.3-1.1-.2-.4.2-.6.5-.6.9V122c0 .6.4 1 1 1h27.2c-.2-.3-.3-.7-.5-1H69.7zM115 93c-3.6 0-6.9.9-9.9 2.5.4.2.8.3 1.3.5 2.6-1.3 5.5-2 8.6-2 10.8 0 19.5 8.7 19.5 19.5S125.8 133 115 133c-5.3 0-10-2.1-13.5-5.5h-1.4c3.7 4 9 6.5 14.9 6.5 11.3 0 20.5-9.2 20.5-20.5S126.3 93 115 93z"/><path class="st1" d="M96.4 122h1.1c-1.3-2.6-2-5.5-2-8.5 0-5.3 2.2-10.2 5.7-13.7-.3-.1-.7-.3-1-.4-3.5 3.7-5.7 8.7-5.7 14.1 0 3 .7 5.9 1.9 8.5zm.5 1c.7 1.2 1.4 2.4 2.3 3.5h1.3c-1-1.1-1.8-2.2-2.5-3.5h-1.1zm5.1-24c1-.9 2.1-1.7 3.3-2.4-.4-.2-.8-.3-1.2-.4-1.1.7-2.1 1.5-3.1 2.4.3.1.6.3 1 .4zm-1.5 27.5h-1.3c.3.3.6.7.9 1h1.4c-.4-.3-.7-.6-1-1z"/><path class="st1" d="M105.2 96.7l1.2-.6c-.5-.2-.9-.3-1.3-.5-.4.2-.7.4-1.1.7.4 0 .8.2 1.2.4zm-5 2.7c.3.1.6.3 1 .4.3-.3.5-.5.8-.7-.3-.1-.7-.3-1-.4-.3.1-.6.4-.8.7zM96.4 122c.2.3.3.7.5 1H98c-.2-.3-.3-.7-.5-1h-1.1z"/><circle class="st0" cx="114.8" cy="113.5" r="21"/><path class="st1" d="M123.1 103.1c-.1-.1-.2-.1-.4-.1s-4.5.6-4.4 10.6c0 .3.2.5.5.5.2 0 1.2.2 1.2 1.6 0 1.1-.8 1.4-2.2 1.7h-.1c-.2-.3-.3-.7-.5-1-.8-1.8-1.7-3.6-1.7-5l-.1-10.9c0-.3-.2-.5-.5-.5s-.5.2-.5.5l-.1 10.9c-.1 1.6-1 3.3-1.8 5-.2.3-.3.7-.5 1h-.1c-1.5-.4-2.2-.6-2.2-1.7 0-1.5 1-1.6 1.2-1.6.3 0 .5-.2.5-.5.1-9.9-4.2-10.5-4.4-10.6-.1 0-.3 0-.4.1-.1.1-.2.2-.2.4v17.8c0 .3.2.5.5.5h4.2c.4 2.9 2.7 5.2 3.8 5.2 1.2 0 3.4-2.6 3.8-5.2h4.2c.3 0 .5-.2.5-.5v-17.8c-.1-.2-.2-.3-.3-.4zm-3.8 10c0-6.4 2-8.3 3-8.9v11h-1.4c-.1-1.3-.9-1.9-1.6-2.1zm-1.6 7.7h-2.4c0-.5.2-1.4.8-1.8.3-.2.6-.3.9-.4.4.8.7 1.6.7 2.2zm-4.4-4c.5-1 1.1-2.2 1.5-3.3.4 1.1.9 2.2 1.4 3.3.1.3.3.6.4.8-.4.1-.7.3-1 .5-.4.2-.6.5-.8.9-.2-.3-.4-.6-.8-.9-.3-.2-.7-.3-1-.5.1-.2.2-.5.3-.8zm-.8 1.8c.3.1.7.2.9.4.6.4.8 1.2.8 1.8h-2.4c.1-.7.4-1.4.7-2.2zm-2.3-5.5c-.7.2-1.4.8-1.6 2h-1.4v-11c1.1.7 3 2.6 3 9zm-2.9 3h1.4c.3 1.5 1.7 1.9 2.9 2.2-.4.9-.6 1.7-.6 2.4h-3.6v-4.6zm4.7 5.7h2.3v4c-.8-.7-2-2.2-2.3-4zm3.3 3.9v-4h2.3c-.4 1.9-1.6 3.4-2.3 4zm3.4-4.9c0-.7-.3-1.5-.7-2.4 1.2-.3 2.6-.7 2.9-2.2h1.4v4.6h-3.6z"/></svg>