<svg id="Layer_1" xmlns="http://www.w3.org/2000/svg" viewBox="0 0 100 20"><style>.st0{fill-rule:evenodd;clip-rule:evenodd;fill:#fff}</style><path class="st0" d="M57.2 6.4c-.6.1-1.1.4-1.6.7.2-1.4.7-1.9 2.1-2 .7-.1 1.5-.1 2.2-.4.8-.2 1.2-1.3 1-2.1-.2-.9-.8-.5-1.4-.5h-.4c.2 1.1-.4 1.2-1.2 1.2-2.9.2-4.2 1.5-4.3 4.5-.1.9-.1 1.9 0 2.8.2 2.9 1.7 4.3 4.5 4.2 2.4-.1 4.1-2.2 3.9-4.8-.4-2.6-2.3-4.1-4.8-3.6zm2.1 5.4c-.3.9-.9 1.2-1.8 1.2-1.2 0-1.9-1-1.9-2.5 0-1.6.8-2.6 2-2.6s2 1 2 2.9c-.1.1-.1.6-.3 1zM72.6 7c0-.3-.1-.5-.1-.8h-2v11.6h2.2v-3.9c1.8 1.8 4.9 1.1 5.5-1.6.2-1.3.2-2.2.1-3.3-.2-2.8-3.5-4.2-5.7-2zm3.3 5c-.3.5-1 .9-1.5.9s-1.3-.5-1.5-1c-.3-.8-.3-1.7-.2-2.5.2-.9.8-1.4 1.7-1.4 1 0 1.4.5 1.7 1.3.1.4.2.9.2 1.2 0 .5-.2 1.1-.4 1.5zm8-4.5c-.3 1.6-.8 3.1-1.3 4.8-.1-.4-.2-.7-.3-.9-.4-1.5-.9-3-1.3-4.5-.1-.2-.3-.6-.5-.6h-2.1s.1.5.2.6c.9 2.6 1.8 5.2 2.6 7.7.3.9-.1 1.5-.9 1.6h-.6v1.7c2.3.3 2.9-.1 3.7-2.2.8-2.4 1.6-4.7 2.4-7.1.3-.8.5-1.5.8-2.4h-1c-1 0-1.4.2-1.7 1.3zM11.2 3.3H3.5v2h3.3v9.3h2.4V5.2h3.3c0-.3-.5-1.9-1.3-1.9zm36.4 7.9h2.6c1.8 0 1.4.3 2-1.5 0-.2.1-.3.1-.6h-3c-1.4.1-1.7.4-1.7 2.1zm46.5-4.9c-.5 0-.7.2-.9.7-.4 1.2-.8 2.4-1.2 3.8-.5-1.4-.8-2.6-1.3-3.8-.1-.2-.3-.7-.5-.7h-2.8v8.4h2V9.1c.5 1.1 1 2.1 1.3 3.2.2.6.5.8 1.1.8.6-.1 1.3.2 1.5-.8.3-1.1.7-2.2 1.1-3.2h.2v5.5h2V6.3h-2.5zM67.3 7.5c-.3 1.6-.8 3.1-1.3 4.8-.1-.4-.2-.7-.3-.9-.4-1.5-.9-3-1.3-4.5-.1-.2-.3-.6-.5-.6h-2.1s.1.5.2.6c.9 2.6 1.8 5.2 2.6 7.7.3.9-.1 1.5-.9 1.6h-.6v1.7c2.3.3 2.9-.1 3.7-2.2.8-2.4 1.6-4.7 2.4-7.1.3-.8.5-1.5.8-2.4h-1c-1 0-1.5.2-1.7 1.3zm-45-.5c0-.3-.1-.5-.1-.8h-2v11.6h2.2v-3.9c1.8 1.8 4.9 1.1 5.5-1.6.2-1.3.2-2.2.1-3.3-.2-2.8-3.6-4.2-5.7-2zm3.3 5c-.3.5-1 .9-1.5.9s-1.3-.5-1.5-1c-.3-.8-.3-1.7-.2-2.5.1-.9.7-1.4 1.7-1.4s1.4.5 1.7 1.3c.1.4.2.9.2 1.2-.1.5-.2 1.1-.4 1.5zm8-4.6c-.3 1.6-.8 3.1-1.3 4.8-.1-.4-.2-.7-.3-.9-.4-1.5-.9-3-1.3-4.5-.1-.2-.3-.6-.5-.6h-2.1s.1.5.2.6c.9 2.6 1.8 5.2 2.6 7.7.3.9-.1 1.5-.9 1.6h-.6v1.7c2.3.3 2.9-.1 3.7-2.2.8-2.4 1.6-4.7 2.4-7.1.3-.8.5-1.5.8-2.4h-1c-1 0-1.5.3-1.7 1.3zm9.4-.5c-.4 1.2-.8 2.4-1.2 3.8-.5-1.4-.8-2.6-1.3-3.8-.1-.2-.3-.7-.5-.7h-2.8v8.4h2V9.1c.5 1.1 1 2.1 1.3 3.2.2.6.5.8 1.1.8.6-.1 1.3.2 1.5-.8.3-1.1.7-2.2 1.1-3.2h.2v5.5h2V6.2H44c-.7 0-.9.2-1 .7zm-26.1.5c-.3 1.6-.8 3.1-1.3 4.8-.1-.4-.2-.7-.3-.9-.4-1.5-.9-3-1.3-4.5-.1-.2-.3-.6-.5-.6h-2.1s.1.5.2.6c.9 2.6 1.8 5.2 2.6 7.7.3.9-.1 1.5-.9 1.6h-.6v1.7c2.3.3 2.9-.1 3.7-2.2.8-2.4 1.6-4.7 2.4-7.1.3-.8.5-1.5.8-2.4h-1c-1 0-1.5.3-1.7 1.3z"/></svg>