<svg id="Layer_1" xmlns="http://www.w3.org/2000/svg" viewBox="0 0 140 140"><style>.st0{fill:#ffd274}.st1{fill:none}.st2{fill:#777}.st3{fill:#fff}.st4{fill:none;stroke:#777;stroke-linecap:round;stroke-linejoin:round}</style><path class="st0" d="M69.4 131.5l-1.2.7c-1 .5-2.2.2-2.7-.7l-3.7-6.3c-.5-1-.2-2.2.7-2.7l1.2-.7c1-.5 2.2-.2 2.7.7l3.7 6.3c.6 1 .2 2.2-.7 2.7z"/><path class="st1" d="M93.5 94.5C91.6 94.5 90 96 90 98v14c0 .2.1.4.3.5h.2L108 94.8c-.1-.2-.3-.3-.5-.3h-14zm-41.2 24.8c-5.2 0-10.2-2.4-13.4-6.9H32v6.5c0 1.4 1.1 2.5 2.5 2.5h28l-2.4-4.1c-2.5 1.4-5.1 2-7.8 2z"/><path class="st1" d="M108 94.8c.1.2 0 .4-.1.5l-.4.4L91.2 112l-.4.4c-.1.1-.2.1-.4.1H65.7c-1.2 1.7-2.8 3.2-4.7 4.4l2.5 4.3c.6-.3 1.2-.4 1.9-.2.4.1.8.3 1.1.6h44.1c1.4 0 2.5-1.1 2.5-2.5V21c0-1.4-1.1-2.5-2.5-2.5H108v76.3z"/><path class="st2" d="M62.6 121.6l-.1-.1h-28c-1.4 0-2.5-1.1-2.5-2.5v-6.5h-1v6.5c0 1.9 1.6 3.5 3.5 3.5h27.2c.2-.4.5-.7.9-.9zm47.9-104.1H108v1h2.5c1.4 0 2.5 1.1 2.5 2.5v98c0 1.4-1.1 2.5-2.5 2.5H66.4c.2.2.3.3.4.6l.3.4h43.4c1.9 0 3.5-1.6 3.5-3.5V21c0-2-1.6-3.5-3.5-3.5zM38.6 112H32v.5h6.9c-.1-.2-.2-.4-.3-.5z"/><path class="st2" d="M90 112H66c-.1.2-.2.3-.3.5h24.8-.2c-.2-.1-.3-.3-.3-.5zm-61.5 0c-1.7 0-3-1.3-3-3V11c0-1.7 1.3-3 3-3h76c1.7 0 3 1.3 3 3v6.5h.5V11c0-1.9-1.6-3.5-3.5-3.5h-76C26.6 7.5 25 9 25 11v98c0 1.9 1.6 3.5 3.5 3.5H31v-.5h-2.5zm79-17.5c.2 0 .4.1.5.3V18.5h-.5v76zm-16.6 17.8l.4-.4 16.3-16.3.4-.4c.1-.1.2-.3.1-.5l-17.5 17.7c0 .1.2 0 .3-.1z"/><path class="st2" d="M107.5 17.5h.5v1h-.5zM31 112h1v.5h-1zm-2.5-.5c-1.4 0-2.5-1.1-2.5-2.5V11c0-1.4 1.1-2.5 2.5-2.5h76c1.4 0 2.5 1.1 2.5 2.5v6.5h.5V11c0-1.7-1.3-3-3-3h-76c-1.7 0-3 1.3-3 3v98c0 1.7 1.3 3 3 3H31v-.5h-2.5zm9.8 0H32v.5h6.6c-.1-.2-.2-.4-.3-.5zm27.7.5h24v-.5H66.4c-.1.1-.3.3-.4.5zm41-93.5h.5v76h-.5z"/><path class="st2" d="M31 111.5h1v.5h-1zm76-94h.5v1h-.5zm-46.9 98.8c.2-.1.5-.1.7.2l.2.4c1.9-1.2 3.5-2.7 4.7-4.4h-1.3c-1.1 1.5-2.6 2.8-4.3 3.8zm0 0c-3.6 2.1-7.8 2.6-11.8 1.5-3.2-.9-6.1-2.7-8.1-5.3h-1.3c3.2 4.4 8.2 6.9 13.4 6.9 2.6 0 5.3-.6 7.8-2l-.2-.4c-.2-.3-.1-.6.2-.7zm-21.2-5.7c-4.3-7.4-1.7-16.9 5.7-21.2 2.4-1.4 5-2.1 7.7-2.1 1.3 0 2.7.2 4 .5 4 1.1 7.3 3.6 9.4 7.2 3.1 5.3 2.6 11.6-.6 16.4h1.2c3.1-5 3.4-11.5.2-16.9-2.2-3.8-5.8-6.5-10-7.7-4.3-1.1-8.7-.6-12.5 1.6-7.9 4.5-10.6 14.7-6 22.5.1.1.2.3.2.4h1.2c-.1-.1-.3-.4-.5-.7zM44.3 89zm-4.5 23h-1.2c.1.2.2.3.4.5h1.3l-.5-.5zm25 0c-.1.2-.3.3-.4.5h1.3c.1-.2.2-.3.3-.5h-1.2zm-25.3-.5h-1.2c.1.2.2.3.3.5h1.2c-.1-.2-.2-.4-.3-.5zm25.7 0c-.1.2-.2.3-.3.5H66c.1-.2.2-.3.3-.5h-1.1z"/><path class="st2" d="M63.4 121.1l-2.5-4.3c-.1.1-.3.2-.4.3-.1.1-.3.2-.4.2l2.4 4.1h.3l.6-.3zm-.9.4l.1.1.2-.1z"/><path class="st2" d="M60.1 116.3c-.2.1-.3.4-.2.7l.2.4c.1-.1.3-.2.4-.2.1-.1.3-.2.4-.3l-.2-.4c-.1-.3-.4-.4-.6-.2zm3.3 4.8l.2.4h2.8c-.3-.3-.7-.5-1.1-.6-.6-.2-1.3-.1-1.9.2zm2.6 1.4l4 6.9c.2.3.3.7.1 1.1-.1.4-.4.7-.7.9l-.9.5c-.3.2-.7.3-1.1.1-.4-.1-.7-.4-.9-.7l-4-6.9c-.4-.7-.2-1.6.5-2h-1.4c-.5.8-.5 1.7 0 2.6l4 6.9c.3.6.9 1 1.5 1.2.2.1.4.1.7.1.4 0 .9-.1 1.2-.3l.9-.5c.6-.3 1-.9 1.2-1.5.2-.6.1-1.3-.2-1.9l-3.7-6.5H66z"/><path class="st2" d="M66.4 121.5h-2.8l.1.2c.1.1.1.3 0 .4l.2-.1c.2-.1.5-.2.7-.2.1 0 .3 0 .4.1.4.1.7.3.9.6h1.2l-.3-.4c-.1-.3-.2-.5-.4-.6zm-3.1.9c-.2 0-.3-.1-.4-.2l-.3-.5c-.4.2-.7.5-.9.9h1.4l.2-.2zm-.5-.9h.9l-.3-.4z"/><path class="st2" d="M62.6 121.6l.3.5c.1.1.2.2.4.2l.5-.3c.1-.1.1-.3 0-.4l-.1-.2h-.8l-.3.2z"/><path class="st3" d="M93.5 95.5c-1.4 0-2.5 1.1-2.5 2.5v12.8l15.3-15.3H93.5z"/><path class="st2" d="M91.7 111.5L107 96.2v-.7l-16 16zM93.5 95H107v-.5H93.5C91.6 94.5 90 96 90 98v13.5h.5V98c0-1.7 1.3-3 3-3zm14 .7l.4-.4c.1-.1.2-.4.1-.5s-.3-.3-.5-.3v1.2zM91.2 112H90c0 .2.1.4.3.5h.2c.1 0 .3-.1.4-.1l.3-.4zM107 95.5v.7l.5-.5V95zm-16 16l-.5.5h.7l.5-.5zm16-17h.5v.5h-.5zm-16.5 17H90v.5h.5z"/><path class="st2" d="M107 95.5V95H93.5c-1.7 0-3 1.3-3 3v13.5h.5l16-16zM91 98c0-1.4 1.1-2.5 2.5-2.5h12.8L91 110.8V98zm16.5-3h-.5v.5zm-17 16.5v.5l.5-.5z"/><path class="st0" d="M80.5 24.3h-28c-.5 0-1-.4-1-1s.5-1 1-1h28c.6 0 1 .4 1 1s-.4 1-1 1zm18 9.2h-64c-.5 0-1-.5-1-1 0-.6.5-1 1-1h64c.6 0 1 .4 1 1s-.4 1-1 1zm0 12.5h-64c-.5 0-1-.4-1-1 0-.5.5-1 1-1h64c.6 0 1 .5 1 1 0 .6-.4 1-1 1zm0 6.2h-64c-.5 0-1-.5-1-1s.5-1 1-1h64c.6 0 1 .5 1 1 0 .6-.4 1-1 1zm0-12.4h-64c-.5 0-1-.5-1-1s.5-1 1-1h64c.6 0 1 .4 1 1 0 .5-.4 1-1 1zm0 18.7h-64c-.5 0-1-.5-1-1s.5-1 1-1h64c.6 0 1 .4 1 1 0 .5-.4 1-1 1zm0 6.2h-64c-.5 0-1-.5-1-1s.5-1 1-1h64c.6 0 1 .5 1 1 0 .6-.4 1-1 1zM52.3 89.5c7.5 0 13.5 6 13.5 13.5s-6 13.5-13.5 13.5-13.5-6-13.5-13.5 6.1-13.5 13.5-13.5m0-2c-8.5 0-15.5 7-15.5 15.5s7 15.5 15.5 15.5 15.5-7 15.5-15.5-6.9-15.5-15.5-15.5z"/><path class="st4" d="M48.2 94.8l-4.4 4.7m4.4-1.7l-4.4 4.6"/></svg>