<?xml version="1.0" encoding="utf-8"?>
<!-- Generator: Adobe Illustrator 16.0.0, SVG Export Plug-In . SVG Version: 6.00 Build 0)  -->
<!DOCTYPE svg PUBLIC "-//W3C//DTD SVG 1.1//EN" "http://www.w3.org/Graphics/SVG/1.1/DTD/svg11.dtd">
<svg version="1.1" id="Layer_1" xmlns="http://www.w3.org/2000/svg" xmlns:xlink="http://www.w3.org/1999/xlink" x="0px" y="0px"
	 width="198.43px" height="198.43px" viewBox="0 0 198.43 198.43" enable-background="new 0 0 198.43 198.43" xml:space="preserve">
<path fill="#FFFFFF" stroke="#000000" stroke-miterlimit="10" d="M173.201,160.87H25.796c-2.268,0-4.252-1.843-4.252-4.252V34.867
	c0-2.268,1.984-4.252,4.252-4.252h147.405c2.409,0,4.252,1.984,4.252,4.252v121.751C177.453,158.886,175.61,160.87,173.201,160.87z"
	/>
<path fill="none" stroke="#000000" stroke-miterlimit="10" d="M173.201,169.516H25.796c-2.268,0-4.252-1.843-4.252-4.252V43.513
	c0-2.268,1.984-4.252,4.252-4.252h147.405c2.409,0,4.252,1.984,4.252,4.252v121.751C177.453,167.531,175.61,169.516,173.201,169.516
	z"/>
<path fill="#FFD274" d="M176.886,68.033H22.394v-32.6c0-2.268,1.984-4.252,4.252-4.252h145.987c2.409,0,4.252,1.984,4.252,4.252
	V68.033z"/>
<path fill="none" stroke="#000000" stroke-miterlimit="10" d="M139.326,57.545c-4.395,0-7.938-3.544-7.938-7.938
	s3.543-7.938,7.938-7.938c4.394,0,7.938,3.544,7.938,7.938S143.72,57.545,139.326,57.545z M59.387,57.545
	c-4.394,0-7.937-3.544-7.937-7.938s3.543-7.938,7.937-7.938c4.394,0,7.937,3.544,7.937,7.938S63.781,57.545,59.387,57.545z"/>
<g>
	<g>
		<path d="M96.271,133.4h-0.595V91.822l-6.966,3.84l-0.216-0.48l7.182-3.96h0.595V133.4z"/>
	</g>
	<g>
		<path d="M74.355,97.031c0,4.045-2.482,6.035-5.134,6.035c-2.821,0-5.015-2.228-5.015-5.813c0-3.756,2.278-6.034,5.15-6.034
			C72.247,91.218,74.355,93.479,74.355,97.031z M65.058,97.235c0,2.583,1.495,5.15,4.215,5.15c2.719,0,4.232-2.464,4.232-5.303
			c0-2.431-1.325-5.185-4.198-5.185C66.4,91.898,65.058,94.55,65.058,97.235z"/>
		<path d="M78.13,92.102h-3.739v-0.68h8.295v0.68h-3.739v10.777H78.13V92.102z"/>
	</g>
	<g>
		<path d="M114.621,122.002v10.777h0.918l-0.084,3.349h-0.664l-0.084-2.669h-7.547l-0.086,2.669h-0.662l-0.086-3.349h0.799
			c0.408-0.766,0.867-1.598,1.156-2.516c0.441-1.428,0.596-3.128,0.596-5.439v-2.822H114.621z M109.641,125.233
			c0,2.158-0.17,3.841-0.629,5.234c-0.271,0.867-0.68,1.684-1.037,2.313h5.832v-10.098h-4.166V125.233z"/>
		<path d="M118.447,122.002v5.049h6.322v-5.049h0.816v11.457h-0.816v-5.729h-6.322v5.729h-0.816v-11.457H118.447z"/>
		<path d="M127.27,133.459c0.154-0.271,0.289-0.561,0.408-0.884c0.51-1.326,0.816-3.06,1.803-4.063
			c0.271-0.272,0.629-0.493,0.984-0.578v-0.034c-1.529-0.238-2.617-1.359-2.617-2.838c0-0.97,0.357-1.752,0.969-2.262
			c0.613-0.527,1.564-0.884,2.992-0.884c0.781,0,1.699,0.085,2.414,0.238v11.304h-0.816v-5.252h-1.395
			c-0.832,0-1.428,0.152-1.887,0.646c-0.832,0.866-1.189,2.669-1.631,3.841c-0.119,0.272-0.205,0.511-0.34,0.766H127.27z
			 M133.406,122.75c-0.289-0.085-0.867-0.17-1.631-0.17c-1.65,0-3.111,0.611-3.111,2.431c0,1.581,1.377,2.516,3.281,2.532
			c0.594,0,1.139,0,1.461-0.017V122.75z"/>
	</g>
</g>
</svg>
