<svg id="Layer_1" xmlns="http://www.w3.org/2000/svg" viewBox="0 0 560 120"><style>.st0{fill:#303030}.st1{fill:#006cad}</style><path class="st0" d="M74.5 51.1c0 1.9-.4 3.4-1.3 4.6-.9 1.2-2.1 2.1-3.6 2.8-1.5.7-3.2 1.2-5 1.5-1.9.3-3.7.5-5.6.5H25.7c-4.3 0-7.6-.9-10-2.6-2.3-1.7-3.5-3.6-3.5-5.6v-1.4H59v-8.6H32.2c-2.9 0-5.2-.3-6.8-1-1.6-.7-2.8-1.5-3.7-2.4-.7-.9-1.3-1.9-1.4-2.8-.2-1-.3-1.7-.3-2.3v-1.4h39.1v-8.6H23.5c-4.1 0-7-.8-8.6-2.4-1.6-1.6-2.5-3.5-2.6-5.8v-1.5h62.2v8.6c0 .8-.2 1.7-.5 2.8-.3 1.1-.9 2.1-1.7 3.2-.8 1.1-2 1.9-3.5 2.7-1.5.7-3.4 1.1-5.7 1.1v.5c1.4.2 2.6.4 3.8.6 1.2.2 2.3.6 3.2 1.2 1.2.8 2.3 1.7 3.1 2.8.8 1.1 1.2 2.8 1.2 5.2v8.3zm52.3 9.4V42.2H95.5v7.2c0 2.3-.3 4-1 5.3-.7 1.2-1.7 2.3-3.1 3.1-1.3.8-2.9 1.4-4.7 1.9-1.8.5-3.7.7-5.7.7h-.9V24.3c0-1.8.4-3.3 1.1-4.6.7-1.3 1.8-2.3 3.1-3.1 1.3-.8 2.8-1.4 4.5-1.9 1.7-.4 3.5-.6 5.3-.6h48.4v46.4h-15.7zm0-36.7H95.5v8.6h31.3v-8.6zm68 36.7V23.6h-31.3v36.9H148V14.1h62.2v46.4h-15.4zm67.8-36.7h-31.3v36.7h-15.5V24.3c0-1.8.4-3.3 1.1-4.6.7-1.3 1.8-2.3 3.1-3.1 1.3-.8 2.8-1.4 4.5-1.9 1.7-.4 3.5-.6 5.3-.6h48.4v46.4h-15.7V23.8zm68 36.7V42.2h-31.3v7.2c0 2.3-.3 4-1 5.3-.7 1.2-1.7 2.3-3.1 3.1-1.3.8-2.9 1.4-4.7 1.9-1.8.5-3.7.7-5.7.7h-.9V24.3c0-1.8.4-3.3 1.1-4.6.7-1.3 1.8-2.3 3.1-3.1 1.3-.8 2.8-1.4 4.5-1.9 1.7-.4 3.5-.6 5.3-.6h48.4v46.4h-15.7zm0-36.7h-31.3v8.6h31.3v-8.6zm84.1-7.7c0 2-.5 3.5-1.4 4.5-.9 1.1-2.1 1.8-3.4 2.2-1.3.4-2.7.7-4.1.8-1.4.1-2.7.1-3.7.1h-10.8v27c0 3.5-.8 5.9-2.4 7.4-1.6 1.5-4.5 2.2-8.8 2.2h-4.5V23.8h-23.8v-1.3c0-3.3.9-5.5 2.8-6.7 1.9-1.2 4.6-1.8 8-1.8h52v2.1zm53.5 44.4c-1.9 0-3.5-.2-4.8-.5-1.3-.3-2.4-.7-3.3-1.1-1-.4-1.8-.9-2.5-1.5s-1.5-1.1-2.2-1.6L435.8 39v12.5c0 1.7-.4 3.1-1.2 4.2-.8 1.1-1.8 2.1-3.1 2.7-1.3.7-2.8 1.2-4.5 1.5-1.7.3-3.5.5-5.3.5h-1.4V14.1h15.5v20.5L456 14.1h17l-21.1 21.8L480 60.5h-11.8zm64.1 0V42.2H501v7.2c0 2.3-.3 4-1 5.3-.7 1.2-1.7 2.3-3.1 3.1-1.3.8-2.9 1.4-4.7 1.9-1.8.5-3.7.7-5.7.7h-.9V24.3c0-1.8.4-3.3 1.1-4.6.7-1.3 1.8-2.3 3.1-3.1 1.3-.8 2.8-1.4 4.5-1.9 1.7-.4 3.5-.6 5.3-.6H548v46.4h-15.7zm0-36.7H501v8.6h31.3v-8.6z"/><path class="st1" d="M12.3 81h4.3v5.1c0 1.7.1 2.8.2 3.3s.5 1 1.1 1.4c.6.4 1.5.6 2.7.6.9 0 1.7-.1 2.5-.3.7-.2 1.3-.5 1.9-.9V81h4.3v21.4H25v-8.6c-.9.4-1.7.7-2.6.9-.8.2-1.7.3-2.5.3-2.1 0-3.9-.5-5.3-1.5s-2.2-2.8-2.2-5.2V81zm40.6 21.4h-4.7l-1.9-4.9h-8.5l-1.8 4.9h-4.6L39.8 81h4.6l8.5 21.4zM45 93.9L42 86l-2.9 7.9H45zm23.1.6l4.2 1.3c-.6 2.3-1.7 4.1-3.2 5.2-1.5 1.1-3.4 1.7-5.7 1.7-2.8 0-5.2-1-7-2.9-1.8-1.9-2.7-4.6-2.7-8 0-3.6.9-6.3 2.8-8.3 1.8-2 4.3-3 7.2-3 2.6 0 4.7.8 6.4 2.3 1 .9 1.7 2.2 2.2 3.9l-4.3 1c-.3-1.1-.8-2-1.6-2.6-.8-.6-1.8-1-2.9-1-1.6 0-2.9.6-3.9 1.7s-1.5 3-1.5 5.5c0 2.7.5 4.6 1.5 5.8 1 1.1 2.2 1.7 3.8 1.7 1.1 0 2.1-.4 3-1.1.8-.5 1.4-1.6 1.7-3.2zM84.4 81h4.3v17.8h6.2V81h4.3v17.8h6.4V81h4.3v21.4H84.4V81zm30 0h8.5c1.7 0 3 .1 3.8.2.8.1 1.6.4 2.2.9.7.4 1.2 1 1.6 1.8.4.7.7 1.6.7 2.5 0 1-.3 1.9-.8 2.8-.5.8-1.3 1.5-2.2 1.9 1.3.4 2.3 1 3 1.9.7.9 1.1 2 1.1 3.2 0 1-.2 1.9-.7 2.8-.5.9-1.1 1.7-1.9 2.2-.8.5-1.7.9-2.9 1-.7.1-2.5.1-5.2.1h-7.3V81zm4.3 3.6v4.9h2.8c1.7 0 2.7 0 3.1-.1.7-.1 1.3-.3 1.7-.8.4-.4.6-1 .6-1.7s-.2-1.2-.5-1.6c-.4-.4-.9-.7-1.6-.8-.4 0-1.7-.1-3.7-.1h-2.4zm0 8.5v5.7h4c1.6 0 2.5 0 3-.1.6-.1 1.2-.4 1.6-.9.4-.5.6-1.1.6-1.8 0-.6-.2-1.2-.5-1.6-.3-.4-.8-.8-1.3-1-.6-.2-1.9-.3-3.8-.3h-3.6zM136 81h4v14.2l8.7-14.2h4.3v21.4h-4v-14l-8.6 14H136V81zm23.1 0h14.8v17.8h1.9v8.3h-3.6v-4.7h-13.5v4.7h-3.6v-8.3h1.8c.9-1.8 1.5-3.9 1.8-6.4.3-2.4.4-5.5.4-9.2V81zm4.1 3.6c0 6.5-.6 11.2-1.8 14.2h8.1V84.6h-6.3zm15.6-3.6h4.3v9.1c1-.1 1.6-.3 2-.7.3-.4.9-1.5 1.6-3.3.9-2.3 1.8-3.8 2.7-4.3.9-.6 2.3-.8 4.3-.8h.6v3.2h-.6c-.9 0-1.5.1-1.9.3-.4.2-.7.6-1 1-.3.4-.6 1.4-1.1 2.8-.3.7-.5 1.4-.9 1.9-.3.5-.8 1-1.6 1.4 1 .3 1.8.8 2.4 1.7.6.8 1.3 2 2.1 3.5l2.9 5.9h-5.1l-2.6-5.5c0-.1-.1-.2-.2-.5-.1-.1-.2-.4-.5-1-.6-1.1-1-1.7-1.4-2-.4-.3-.9-.4-1.6-.4v9.4h-4.3V81zm18.2 0h4v14.2l8.7-14.2h4.3v21.4h-4v-14l-8.6 14H197V81zm19.2 21.4l7.3-11.2-6.6-10.2h5l4.3 6.9 4.2-6.9h5l-6.6 10.4 7.3 11h-5.2l-4.7-7.4-4.8 7.4h-5.2zM246.7 81h17v21.4h-4.3V84.6H251v17.8h-4.3V81zm20.5 10.8c0-2.2.3-4 1-5.5.5-1.1 1.1-2.1 2-2.9.8-.9 1.8-1.5 2.8-1.9 1.3-.6 2.9-.8 4.6-.8 3.1 0 5.7 1 7.6 2.9 1.9 2 2.8 4.7 2.8 8.2 0 3.5-.9 6.2-2.8 8.1-1.9 2-4.4 2.9-7.5 2.9-3.2 0-5.7-1-7.6-2.9-2-2-2.9-4.7-2.9-8.1zm4.5-.1c0 2.4.6 4.3 1.7 5.5 1.1 1.2 2.5 1.9 4.3 1.9 1.7 0 3.1-.6 4.2-1.9 1.1-1.2 1.7-3.1 1.7-5.6 0-2.5-.5-4.3-1.6-5.5-1.1-1.2-2.5-1.8-4.3-1.8-1.8 0-3.2.6-4.3 1.8-1.2 1.3-1.7 3.1-1.7 5.6zm22.7-4.9l-4.2-1c.9-3.5 3.5-5.2 7.7-5.2 2.5 0 4.4.6 5.7 1.7 1.3 1.1 1.9 2.4 1.9 3.9 0 1-.3 1.9-.9 2.8-.6.8-1.5 1.5-2.6 2.2 1.4.5 2.5 1.2 3.2 2.1.7.9 1.1 2 1.1 3.3 0 1.9-.7 3.4-2.1 4.6-1.4 1.2-3.4 1.7-6.2 1.7-2.2 0-4-.4-5.3-1.1-1.3-.7-2.3-2.1-2.9-4.2l4-1.3c.4 1.3 1 2.1 1.6 2.5.7.4 1.5.6 2.5.6 1.4 0 2.4-.3 3-.9.6-.6.9-1.3.9-2 0-.9-.4-1.6-1.1-2.1-.7-.5-1.8-.8-3.2-.8h-1v-3.2h.5c1.3 0 2.3-.3 3-.9.7-.6 1-1.4 1-2.4 0-.8-.3-1.4-.9-2-.6-.5-1.4-.8-2.4-.8-1.7-.1-2.8.8-3.3 2.5zm15.7-5.8h4v14.2l8.7-14.2h4.3v21.4h-4v-14l-8.6 14h-4.3V81zm21.5 0h4.3v9.1c1-.1 1.6-.3 2-.7.3-.4.9-1.5 1.6-3.3.9-2.3 1.8-3.8 2.7-4.3.9-.6 2.3-.8 4.3-.8h.6v3.2h-.6c-.9 0-1.5.1-1.9.3-.4.2-.7.6-1 1-.3.4-.6 1.4-1.1 2.8-.3.7-.5 1.4-.9 1.9-.3.5-.9 1-1.6 1.4 1 .3 1.8.8 2.4 1.7.6.8 1.3 2 2.1 3.5l2.9 5.9h-5.1l-2.6-5.5c0-.1-.1-.2-.2-.5-.1-.1-.2-.4-.5-1-.6-1.1-1-1.7-1.4-2-.4-.3-.9-.4-1.6-.4v9.4h-4.3V81z"/></svg>