<svg id="Layer_1" xmlns="http://www.w3.org/2000/svg" viewBox="0 0 140 140"><style>.st0{fill:none;stroke:#777;stroke-linecap:round;stroke-linejoin:round;stroke-miterlimit:10}.st1{fill:#ffd274}.st2{fill:none;stroke:#777;stroke-miterlimit:10}</style><path class="st0" d="M121.4 113.1h-104c-1.6 0-3-1.3-3-3V24.2c0-1.6 1.4-3 3-3h104c1.6 0 3 1.4 3 3v85.9c0 1.6-1.4 3-3 3z"/><path class="st0" d="M121.4 119.2h-104c-1.6 0-3-1.3-3-3V30.3c0-1.6 1.4-3 3-3h104c1.6 0 3 1.4 3 3v85.9c0 1.6-1.4 3-3 3z"/><path class="st1" d="M123.9 47.6h-109v-23c0-1.6 1.4-3 3-3h103c1.6 0 3 1.4 3 3v23z"/><path class="st2" d="M97.4 40.2c-3.1 0-5.6-2.5-5.6-5.6 0-3.1 2.5-5.6 5.6-5.6 3.1 0 5.6 2.5 5.6 5.6.1 3.1-2.5 5.6-5.6 5.6zm-56.4 0c-3.1 0-5.6-2.5-5.6-5.6 0-3.1 2.5-5.6 5.6-5.6 3.1 0 5.6 2.5 5.6 5.6 0 3.1-2.5 5.6-5.6 5.6z"/><path class="st0" d="M34 74.8s-.3-7.5 7.1-7.6c7.4-.1 6.4 7.9 6.4 7.9s0 1.8-3 4.9C41.5 83 33 91.6 33 91.6h15.6m17-.3l-.2-24.2-12.2 17.5H70m17.3-20.8L74.2 95.1m16.4-28h14.6L94.8 91.5"/></svg>