<svg id="Layer_1" xmlns="http://www.w3.org/2000/svg" viewBox="0 0 24 24"><style>.st0{fill:#4ab1da}</style><path class="st0" d="M18.9 17.4c-.5-2.6-2.6-4.5-5.1-4.5h-2.6c-2.6 0-4.7 1.9-5.2 4.5-.2 1.4.8 2.6 2.1 2.6h8.8c1.3 0 2.3-1.3 2-2.6zm-1.4.9c-.1.1-.3.3-.6.3H8.1c-.3 0-.5-.2-.6-.3-.1-.1-.2-.3-.2-.6.3-2 1.9-3.4 3.8-3.4h2.6c1.9 0 3.5 1.4 3.8 3.3v.1c.2.3.1.5 0 .6zm-7.7-7c.8.8 1.8 1.2 2.7 1.2 1 0 1.9-.4 2.7-1.1 1.3-1.3 1.4-3.4.3-4.8-.8-1-1.9-1.4-3-1.4s-2.3.5-3 1.5c-1.1 1.3-1 3.3.3 4.6zm.7-3.9c.5-.6 1.2-1 2-1s1.5.4 2 1c.7.9.6 2.2-.2 2.9-.5.5-1.1.7-1.8.7s-1.3-.3-1.8-.8c-.8-.7-.9-1.9-.2-2.8z"/></svg>