<svg id="Layer_1" xmlns="http://www.w3.org/2000/svg" viewBox="0 0 56 32"><style>.st0{fill:#fff}</style><path class="st0" d="M23.2 7.9l-3.4 16.3h4.1l3.4-16.3h-4.1zm-6 0L12.9 19l-1.7-9.4c-.2-1-1-1.7-1.9-1.7H2.4l-.1.5c1.4.3 3 .8 4 1.4.6.3.8.6 1 1.4l3.2 13h4.3l6.6-16.3h-4.2zm32.2 0h-3.5c-.8 0-1.4.5-1.7 1.2l-6.1 15.1h4.3l.9-2.4h5.2l.5 2.4h3.8L49.4 7.9zm-5 10.5l2.1-6.1 1.2 6.1h-3.3zm-11.8-6c0-.6.6-1.2 1.7-1.4.6-.1 2.2-.1 4 .7l.7-3.4c-1-.4-2.2-.7-3.8-.7-4 0-6.9 2.2-6.9 5.4 0 2.3 2 3.6 3.6 4.4 1.6.8 2.1 1.3 2.1 2 0 1.1-1.3 1.6-2.4 1.6-2 0-3.2-.6-4.2-1l-.7 3.6c1 .5 2.7.8 4.5.9 4.3 0 7.1-2.2 7.1-5.6 0-4.4-5.7-4.6-5.7-6.5z"/></svg>