<?xml version="1.0" encoding="utf-8"?>
<!-- Generator: Adobe Illustrator 13.0.0, SVG Export Plug-In . SVG Version: 6.00 Build 14948)  -->
<svg version="1.2" baseProfile="tiny" id="Layer_1" xmlns="http://www.w3.org/2000/svg" xmlns:xlink="http://www.w3.org/1999/xlink"
	 x="0px" y="0px" width="189.992px" height="18.061px" viewBox="0 0 189.992 18.061" xml:space="preserve">
<g>
	<g>
		<path fill="#7DB62E" d="M0.063,0.009C0.138-0.06,36.591,0.3,36.591,0.288c-0.162,1.224-3.286,14.442-5.535,16.252
			c-2.081,1.64-6.113,1.187-9.964,1.187c-1.659,0-6.547,0.174-6.585-0.235c-0.037-0.424,0.516-0.367,0.777-0.416
			c1.771-0.35,8.74-1.474,9.368-1.777c0.273-0.137,0.46-0.521,0.714-0.832c1.137-1.404,2.646-2.317,4.982-2.491
			c0.708-1.82,1.249-3.814,1.839-5.753c-1.174-0.944-2.436-1.802-2.671-3.678C29.229,2.512,0.287,0.4,0.163,0.35
			C0.057,0.307-0.036,0.195,0.014,0.077C0.026,0.046,0.044,0.027,0.063,0.009z"/>
		<path fill="#7DB62E" d="M12.133,11.321c0.292-0.087,0.193-0.56,0.417-0.708c0.335-0.057,0.845,0.198,1.13,0.235
			c0.081,0.604-0.41,0.547-0.36,1.007c0.075,0.609,1.006,0.584,1.603,0.826c0.143,0.286-0.367,0.373-0.298,0.776
			c0.876,0.429,1.441-0.453,1.845-0.896c0.074-0.056,0.366-0.019,0.466-0.023c1.267-0.112,2.739-0.728,3.51-1.766
			c0.174-0.235,0.298-0.521,0.292-0.819c-0.025-1.28-1.981-1.149-2.137-2.131c-0.161-1.051,1.404-1.597,2.193-1.131
			c0.149,0.684-0.33,0.733-0.41,1.188c1.05,0.429,2.677-0.255,2.547-1.188C22.856,6.158,22.08,5.946,21.39,6.04
			c-0.143-0.354,0.304-0.59,0.354-0.95c-0.758-0.41-1.33,0.304-1.659,0.714c-2.889-0.229-5.864-0.479-8.84-0.59
			c-0.963-0.037-1.901-0.188-3.081-0.242C5.977,4.879,0.865,4.556,0.809,4.083c0.602-0.335,12.61-0.242,16.251-0.416
			c1.205-0.057,4.094-0.181,5.398-0.057c0.677,0.063,1.379,0.386,1.789,0.944c0.485,0.652,0.503,1.572,0.397,2.348
			c-0.056,0.417-0.136,0.883-0.292,1.274c-1.013,2.609-4.318,5.585-7.293,6.287c-1.168,0.272-2.379,0.311-3.323,0.056
			C13.189,14.378,7.4,12.29,7.45,11.8c0.068-0.628,1.472-0.423,2.193-0.423C10.63,11.377,11.432,11.427,12.133,11.321z"/>
		<path fill="#7DB62E" d="M16.762,6.929c-0.429,0.833-1.249,1.02-1.125,2.02c0.137,1.105,2.006,1.067,2.075,1.958
			c0.062,0.775-1.422,1.496-2.255,0.895c-0.137-0.621,0.565-0.9,0.714-1.429c-0.466-0.33-10.25-2.001-12.045-2.79
			c0-0.546,0.627-0.404,0.951-0.41c1.279-0.031,8.001,0.161,9.374,0c0.311-0.038,0.441-0.36,0.708-0.535
			C15.718,6.711,16.171,6.885,16.762,6.929z"/>
	</g>
	<g>
		<path fill="#474747" d="M45.053,0.807h5.379c2.423,0,4.095,0.485,5.331,1.721c0.873,0.872,1.309,2.012,1.309,3.489
			c0,4.216-3.61,6.616-8.239,6.616H45.61l-1.381,5.137h-3.731L45.053,0.807z M49.027,9.361c2.471,0,4.143-1.114,4.143-3.028
			c0-0.558-0.194-1.042-0.557-1.405c-0.509-0.509-1.211-0.751-2.326-0.751h-2.423l-1.381,5.186L49.027,9.361L49.027,9.361z"/>
		<path fill="#474747" d="M56.709,12.051c0-3.877,3.344-7.512,7.512-7.512c3.853,0,6.251,2.544,6.251,6.01
			c0,3.877-3.344,7.512-7.512,7.512C59.108,18.061,56.709,15.516,56.709,12.051z M66.862,10.646c0-1.89-1.139-2.957-2.811-2.957
			c-2.254,0-3.732,2.423-3.732,4.266c0,1.89,1.139,2.956,2.811,2.956C65.384,14.91,66.862,12.487,66.862,10.646z"/>
		<path fill="#474747" d="M70.571,15.177l8.505-7.415h-6.3l0.8-2.979h11.001l-0.703,2.593l-8.529,7.415h6.615l-0.8,2.979H69.869
			L70.571,15.177z"/>
		<path fill="#474747" d="M86.614,4.781h3.683L86.808,17.77h-3.683L86.614,4.781z M87.801,0.081h3.877l-0.896,3.271h-3.877
			L87.801,0.081z"/>
		<path fill="#474747" d="M94.077,0.081h3.683l-2.472,9.16l5.259-4.459h4.799l-6.277,5.063l2.836,7.924h-4.119l-1.842-5.5
			l-1.866,1.502l-1.066,3.998h-3.683L94.077,0.081z"/>
		<path fill="#474747" d="M102.923,14.522c0-3.005,2.447-4.677,5.597-4.677c1.406,0,2.568,0.242,3.66,0.582l0.049-0.17
			c0.071-0.291,0.146-0.582,0.146-0.97c0-0.896-0.631-1.526-2.447-1.526c-1.261,0-2.521,0.315-3.466,0.703l-0.581-2.908
			c1.332-0.557,2.979-0.921,4.822-0.921c3.487,0,5.258,1.454,5.258,3.998c0,0.679-0.121,1.309-0.291,1.963l-1.914,7.173h-3.563
			l0.389-1.502c-1.042,1.114-2.35,1.744-3.877,1.744C104.45,18.012,102.923,16.558,102.923,14.522z M111.549,12.875l0.098-0.34
			c-0.631-0.242-1.526-0.46-2.424-0.46c-1.525,0-2.642,0.774-2.642,2.034c0,0.801,0.653,1.383,1.696,1.383
			C109.805,15.492,111.137,14.28,111.549,12.875z"/>
		<path fill="#474747" d="M117.657,10.549c0-5.065,4.12-10.032,10.2-10.032c4.678,0,7.754,3.247,7.754,7.512
			c0,5.064-4.118,10.032-10.2,10.032C120.734,18.061,117.657,14.813,117.657,10.549z M131.734,8.271c0-2.52-1.525-4.313-4.313-4.313
			c-3.563,0-5.889,3.417-5.889,6.349c0,2.521,1.527,4.313,4.313,4.313C129.409,14.619,131.734,11.203,131.734,8.271z"/>
		<path fill="#474747" d="M138.619,4.781h3.683l-0.362,1.356c0.92-0.824,2.084-1.599,3.537-1.599c2.326,0,3.828,1.43,3.828,3.779
			c0,0.728-0.218,1.648-0.437,2.473l-1.865,6.979h-3.685l1.916-7.124c0.097-0.362,0.168-0.849,0.168-1.163
			c0-1.042-0.653-1.6-1.793-1.6c-1.453,0-2.397,1.042-2.811,2.593l-1.963,7.294h-3.684L138.619,4.781z"/>
		<path fill="#474747" d="M154.08,0.081h3.684l-4.75,17.688h-3.684L154.08,0.081z"/>
		<path fill="#474747" d="M159.167,4.781h3.685l-3.49,12.987h-3.684L159.167,4.781z M160.355,0.081h3.877l-0.896,3.271h-3.877
			L160.355,0.081z"/>
		<path fill="#474747" d="M165.348,4.781h3.682l-0.362,1.356c0.921-0.824,2.084-1.599,3.538-1.599c2.326,0,3.828,1.43,3.828,3.779
			c0,0.728-0.219,1.648-0.438,2.473l-1.865,6.979h-3.684l1.915-7.124c0.097-0.362,0.169-0.849,0.169-1.163
			c0-1.042-0.654-1.6-1.793-1.6c-1.454,0-2.398,1.042-2.811,2.593l-1.963,7.294h-3.684L165.348,4.781z"/>
		<path fill="#474747" d="M183.4,15.104c0.97,0,1.817-0.291,2.884-1.042l1.696,2.277c-1.164,0.97-2.787,1.721-4.992,1.721
			c-3.73,0-6.01-2.181-6.01-5.768c0-3.756,3.055-7.754,7.707-7.754c3.367,0,5.307,2.181,5.307,5.063
			c0,0.921-0.243,1.963-0.654,2.956h-8.895C180.566,14.086,181.462,15.104,183.4,15.104z M186.404,10.258
			c0.074-0.242,0.121-0.533,0.121-0.849c0-1.066-0.629-1.914-2.131-1.914c-1.672,0-3.029,1.114-3.636,2.763H186.404z"/>
	</g>
</g>
</svg>
