<?xml version="1.0" encoding="utf-8"?>
<!-- Generator: Adobe Illustrator 19.0.0, SVG Export Plug-In . SVG Version: 6.00 Build 0)  -->
<svg version="1.1" id="Layer_1" xmlns="http://www.w3.org/2000/svg" xmlns:xlink="http://www.w3.org/1999/xlink" x="0px" y="0px"
	 viewBox="0 0 841.9 595.3" style="enable-background:new 0 0 841.9 595.3;" xml:space="preserve">
<style type="text/css">
	.st0{fill:url(#SVGID_1_);}
	.st1{fill:url(#SVGID_2_);}
	.st2{fill:url(#SVGID_3_);}
	.st3{fill:url(#SVGID_4_);}
	.st4{fill:url(#SVGID_5_);}
	.st5{fill:url(#SVGID_6_);}
	.st6{fill:url(#SVGID_7_);}
	.st7{fill:url(#SVGID_8_);}
	.st8{fill:url(#SVGID_9_);}
	.st9{fill:url(#SVGID_10_);}
	.st10{fill:url(#SVGID_11_);}
	.st11{fill:#FFFFFF;}
</style>
<g>
	<linearGradient id="SVGID_1_" gradientUnits="userSpaceOnUse" x1="122.6589" y1="209.9138" x2="122.6589" y2="336.4997">
		<stop  offset="0" style="stop-color:#243F90"/>
		<stop  offset="1" style="stop-color:#662D91"/>
	</linearGradient>
	<path class="st0" d="M142.6,342.4h-39.8c-25.3,0-45.7-20.5-45.7-45.7v-39.8c0-25.3,20.5-45.7,45.7-45.7h39.8
		c25.3,0,45.7,20.5,45.7,45.7v39.8C188.3,321.9,167.8,342.4,142.6,342.4z"/>
	<g>
		<linearGradient id="SVGID_2_" gradientUnits="userSpaceOnUse" x1="272.419" y1="211.596" x2="272.419" y2="332.7936">
			<stop  offset="0" style="stop-color:#243F90"/>
			<stop  offset="1" style="stop-color:#662D91"/>
		</linearGradient>
		<path class="st1" d="M246.1,283.3c0-4.8,0.8-9.2,2.3-13.4c1.5-4.2,3.8-7.9,6.7-11c2.9-3.1,6.5-5.6,10.6-7.4
			c4.2-1.8,8.9-2.8,14.3-2.8c3.5,0,6.7,0.3,9.6,0.9c1.5,0.3,3.1,0.7,4.6,1.2c2.2,0.7,3.5,3.1,2.9,5.4l-1.7,6.4
			c-0.6,2.4-3.1,3.8-5.5,3.2c-0.5-0.1-1-0.3-1.5-0.4c-2.1-0.5-4.4-0.8-7-0.8c-5.5,0-9.6,1.7-12.3,5.1c-2.7,3.4-4.1,7.9-4.1,13.5
			c0,5.9,1.3,10.5,3.8,13.8c2.5,3.3,7,4.9,13.3,4.9c2.3,0,4.7-0.2,7.3-0.6c0.9-0.1,1.8-0.3,2.6-0.5c2.5-0.6,5,1.1,5.4,3.6l1.1,6.5
			c0.4,2.2-1,4.4-3.2,5c-1.3,0.4-2.8,0.7-4.3,1c-3.3,0.7-6.8,1-10.8,1c-6,0-11.2-0.9-15.5-2.7c-4.3-1.8-7.9-4.2-10.7-7.3
			c-2.8-3.1-4.8-6.7-6.1-10.9C246.8,292.8,246.1,288.2,246.1,283.3z"/>
		<linearGradient id="SVGID_3_" gradientUnits="userSpaceOnUse" x1="331.8015" y1="211.596" x2="331.8015" y2="332.7936">
			<stop  offset="0" style="stop-color:#243F90"/>
			<stop  offset="1" style="stop-color:#662D91"/>
		</linearGradient>
		<path class="st2" d="M305.5,283.3c0-4.8,0.8-9.2,2.3-13.4c1.5-4.2,3.8-7.9,6.7-11c2.9-3.1,6.5-5.6,10.6-7.4
			c4.2-1.8,8.9-2.8,14.3-2.8c3.5,0,6.7,0.3,9.6,0.9c1.5,0.3,3.1,0.7,4.6,1.2c2.2,0.7,3.5,3.1,2.9,5.4l-1.7,6.4
			c-0.6,2.4-3.1,3.8-5.5,3.2c-0.5-0.1-1-0.3-1.5-0.4c-2.1-0.5-4.4-0.8-7-0.8c-5.5,0-9.6,1.7-12.3,5.1c-2.7,3.4-4.1,7.9-4.1,13.5
			c0,5.9,1.3,10.5,3.8,13.8c2.5,3.3,7,4.9,13.3,4.9c2.3,0,4.7-0.2,7.3-0.6c0.9-0.1,1.8-0.3,2.6-0.5c2.5-0.6,5,1.1,5.4,3.6l1.1,6.5
			c0.4,2.2-1,4.4-3.2,5c-1.3,0.4-2.8,0.7-4.3,1c-3.3,0.7-6.8,1-10.8,1c-6,0-11.2-0.9-15.5-2.7c-4.3-1.8-7.9-4.2-10.7-7.3
			c-2.8-3.1-4.8-6.7-6.1-10.9C306.2,292.8,305.5,288.2,305.5,283.3z"/>
		<linearGradient id="SVGID_4_" gradientUnits="userSpaceOnUse" x1="385.2498" y1="211.596" x2="385.2498" y2="332.7936">
			<stop  offset="0" style="stop-color:#243F90"/>
			<stop  offset="1" style="stop-color:#662D91"/>
		</linearGradient>
		<path class="st3" d="M398.1,313.5c-0.4,2.3-2.4,3.9-4.7,3.7c-3.6-0.3-6.6-0.8-9.1-1.6c-3.4-1.1-6-2.6-8-4.6c-2-2-3.3-4.3-4-7.1
			c-0.7-2.8-1.1-5.9-1.1-9.4v-68.6c0-2.2,1.6-4.1,3.7-4.4l9.7-1.6c2.7-0.4,5.2,1.7,5.2,4.4v66.4c0,1.7,0.1,3.2,0.4,4.5
			c0.3,1.3,0.7,2.5,1.4,3.4c0.7,0.9,1.7,1.7,3.1,2.3c0.4,0.2,0.9,0.3,1.4,0.5c2.2,0.6,3.6,2.8,3.3,5.1L398.1,313.5z"/>
		<linearGradient id="SVGID_5_" gradientUnits="userSpaceOnUse" x1="439.8505" y1="211.596" x2="439.8505" y2="332.7936">
			<stop  offset="0" style="stop-color:#243F90"/>
			<stop  offset="1" style="stop-color:#662D91"/>
		</linearGradient>
		<path class="st4" d="M472.2,283.1c0,5.2-0.8,9.9-2.3,14.2c-1.5,4.3-3.7,8-6.5,11c-2.8,3-6.2,5.4-10.2,7.1c-4,1.7-8.4,2.5-13.3,2.5
			c-4.8,0-9.2-0.8-13.2-2.5c-4-1.7-7.4-4-10.2-7.1c-2.8-3-5-6.7-6.6-11c-1.6-4.3-2.4-9-2.4-14.2c0-5.2,0.8-9.9,2.4-14.1
			c1.6-4.3,3.9-7.9,6.8-10.9c2.9-3,6.3-5.3,10.3-7c4-1.7,8.3-2.5,12.9-2.5c4.8,0,9.1,0.8,13.1,2.5c4,1.7,7.4,4,10.2,7
			c2.8,3,5,6.6,6.6,10.9C471.4,273.3,472.2,278,472.2,283.1z M453.2,283.1c0-5.8-1.1-10.3-3.4-13.6c-2.3-3.3-5.6-4.9-9.8-4.9
			c-4.3,0-7.5,1.6-9.9,4.9c-2.3,3.3-3.5,7.8-3.5,13.6c0,5.8,1.2,10.3,3.5,13.7c2.3,3.4,5.6,5.1,9.9,5.1c4.3,0,7.5-1.7,9.8-5.1
			C452,293.5,453.2,288.9,453.2,283.1z"/>
		<linearGradient id="SVGID_6_" gradientUnits="userSpaceOnUse" x1="510.4828" y1="211.596" x2="510.4828" y2="332.7936">
			<stop  offset="0" style="stop-color:#243F90"/>
			<stop  offset="1" style="stop-color:#662D91"/>
		</linearGradient>
		<path class="st5" d="M510.2,248.6c5.5,0,10.1,0.6,13.8,1.9c3.7,1.3,6.6,3,8.8,5.4c2.2,2.3,3.8,5.2,4.7,8.5c0.9,3.3,1.4,7,1.4,11.1
			v38.8c-2.7,0.6-6.4,1.3-11.1,2.1s-10.5,1.2-17.3,1.2c-4.3,0-8.1-0.4-11.6-1.1c-3.5-0.8-6.4-2-8.9-3.7c-2.5-1.7-4.4-3.9-5.8-6.7
			c-1.3-2.8-2-6.1-2-10.1c0-3.8,0.8-7.1,2.3-9.8c1.5-2.7,3.6-4.8,6.2-6.4c2.6-1.6,5.5-2.7,8.9-3.4c3.3-0.7,6.8-1.1,10.4-1.1
			c2.4,0,4.6,0.1,6.4,0.3c1.9,0.2,3.4,0.5,4.6,0.8v-1.8c0-3.2-1-5.7-2.9-7.6c-1.9-1.9-5.3-2.9-10-2.9c-3.2,0-6.3,0.2-9.4,0.7
			c-1.2,0.2-2.4,0.4-3.5,0.6c-2.5,0.5-4.9-1.1-5.3-3.7l-1-6.1c-0.4-2.3,1.1-4.5,3.4-5c0,0,0,0,0,0c1.6-0.4,3.4-0.7,5.3-1
			c1.9-0.3,3.9-0.5,6.1-0.8C505.9,248.7,508,248.6,510.2,248.6z M511.7,303.1c1.8,0,3.6,0,5.3-0.1c1.7-0.1,3-0.2,4-0.4v-14.1
			c-0.8-0.2-1.9-0.3-3.4-0.5c-1.5-0.2-2.9-0.3-4.1-0.3c-1.8,0-3.4,0.1-4.9,0.3c-1.5,0.2-2.9,0.6-4.1,1.2c-1.2,0.6-2.1,1.4-2.8,2.4
			c-0.7,1-1,2.3-1,3.8c0,2.9,1,4.9,2.9,6.1C505.6,302.6,508.3,303.1,511.7,303.1z"/>
		<linearGradient id="SVGID_7_" gradientUnits="userSpaceOnUse" x1="755.1768" y1="211.596" x2="755.1768" y2="332.7936">
			<stop  offset="0" style="stop-color:#243F90"/>
			<stop  offset="1" style="stop-color:#662D91"/>
		</linearGradient>
		<path class="st6" d="M754.9,248.6c5.5,0,10.1,0.6,13.8,1.9c3.7,1.3,6.6,3,8.8,5.4c2.2,2.3,3.8,5.2,4.7,8.5c0.9,3.3,1.4,7,1.4,11.1
			v38.8c-2.7,0.6-6.4,1.3-11.1,2.1s-10.5,1.2-17.3,1.2c-4.3,0-8.1-0.4-11.6-1.1c-3.5-0.8-6.4-2-8.9-3.7c-2.5-1.7-4.4-3.9-5.8-6.7
			c-1.3-2.8-2-6.1-2-10.1c0-3.8,0.8-7.1,2.3-9.8c1.5-2.7,3.6-4.8,6.2-6.4c2.6-1.6,5.5-2.7,8.9-3.4c3.3-0.7,6.8-1.1,10.4-1.1
			c2.4,0,4.6,0.1,6.4,0.3c1.9,0.2,3.4,0.5,4.6,0.8v-1.8c0-3.2-1-5.7-2.9-7.6c-1.9-1.9-5.3-2.9-10-2.9c-3.2,0-6.3,0.2-9.4,0.7
			c-1.2,0.2-2.4,0.4-3.5,0.6c-2.5,0.5-4.9-1.1-5.3-3.7l-1-6.1c-0.4-2.3,1.1-4.5,3.4-5c0,0,0,0,0,0c1.6-0.4,3.4-0.7,5.3-1
			c1.9-0.3,3.9-0.5,6.1-0.8C750.6,248.7,752.7,248.6,754.9,248.6z M756.4,303.1c1.8,0,3.6,0,5.3-0.1c1.7-0.1,3-0.2,4-0.4v-14.1
			c-0.8-0.2-1.9-0.3-3.4-0.5c-1.5-0.2-2.9-0.3-4.1-0.3c-1.8,0-3.4,0.1-4.9,0.3c-1.5,0.2-2.9,0.6-4.1,1.2c-1.2,0.6-2.1,1.4-2.8,2.4
			c-0.7,1-1,2.3-1,3.8c0,2.9,1,4.9,2.9,6.1C750.3,302.6,752.9,303.1,756.4,303.1z"/>
		<linearGradient id="SVGID_8_" gradientUnits="userSpaceOnUse" x1="584.0529" y1="211.596" x2="584.0529" y2="332.7936">
			<stop  offset="0" style="stop-color:#243F90"/>
			<stop  offset="1" style="stop-color:#662D91"/>
		</linearGradient>
		<path class="st7" d="M555.7,256.1c0-2.1,1.4-3.9,3.4-4.3c2.5-0.6,5.5-1.1,8.8-1.7c5-0.8,10.3-1.2,15.8-1.2
			c5.6,0,10.2,0.7,13.9,2.2c3.7,1.5,6.6,3.5,8.8,6.2c2.2,2.7,3.7,5.8,4.6,9.5c0.9,3.7,1.4,7.8,1.4,12.3v32.7c0,2.5-2,4.5-4.5,4.5
			h-9.7c-2.5,0-4.5-2-4.5-4.5v-30.4c0-6-0.8-10.3-2.4-12.8c-1.6-2.5-4.5-3.8-8.9-3.8c-1.3,0-2.8,0.1-4.3,0.2c-1.5,0.1-2.8,0.3-4,0.4
			v46.3c0,2.5-2,4.5-4.5,4.5h-9.7c-2.5,0-4.5-2-4.5-4.5V256.1z"/>
		
			<linearGradient id="SVGID_9_" gradientUnits="userSpaceOnUse" x1="-11739.3076" y1="-12744.6416" x2="-11739.3076" y2="-12623.4443" gradientTransform="matrix(-1 0 0 -1 -11054.6221 -12389.8223)">
			<stop  offset="0" style="stop-color:#662D91"/>
			<stop  offset="1" style="stop-color:#243F90"/>
		</linearGradient>
		<path class="st8" d="M713.1,310.3c0,2.1-1.4,3.9-3.4,4.3c-2.5,0.6-5.5,1.1-8.8,1.7c-5,0.8-10.3,1.2-15.8,1.2
			c-5.6,0-10.2-0.7-13.9-2.2c-3.7-1.5-6.6-3.5-8.8-6.2c-2.2-2.7-3.7-5.8-4.6-9.5c-0.9-3.7-1.4-7.8-1.4-12.3v-32.7
			c0-2.5,2-4.5,4.5-4.5h9.7c2.5,0,4.5,2,4.5,4.5v30.4c0,6,0.8,10.3,2.4,12.8c1.6,2.5,4.5,3.8,8.9,3.8c1.3,0,2.8-0.1,4.3-0.2
			c1.5-0.1,2.8-0.3,4-0.4v-46.3c0-2.5,2-4.5,4.5-4.5h9.7c2.5,0,4.5,2,4.5,4.5V310.3z"/>
		<linearGradient id="SVGID_10_" gradientUnits="userSpaceOnUse" x1="635.9324" y1="211.596" x2="635.9324" y2="332.7936">
			<stop  offset="0" style="stop-color:#243F90"/>
			<stop  offset="1" style="stop-color:#662D91"/>
		</linearGradient>
		<path class="st9" d="M647.6,306.3c0,3.8-1.2,6.6-3.6,8.6c-2.4,2-5.1,2.9-8.1,2.9c-3,0-5.7-1-8.1-2.9c-2.4-2-3.6-4.8-3.6-8.6
			c0-3.8,1.2-6.6,3.6-8.6c2.4-2,5.1-2.9,8.1-2.9c3,0,5.7,1,8.1,2.9C646.4,299.7,647.6,302.5,647.6,306.3z"/>
	</g>
	<g>
		<linearGradient id="SVGID_11_" gradientUnits="userSpaceOnUse" x1="94.5526" y1="293.7713" x2="146.5982" y2="293.7713">
			<stop  offset="0" style="stop-color:#939598"/>
			<stop  offset="0.1271" style="stop-color:#A8AAAC"/>
			<stop  offset="0.3858" style="stop-color:#CECFD0"/>
			<stop  offset="0.6259" style="stop-color:#E9E9EA"/>
			<stop  offset="0.8381" style="stop-color:#F9F9F9"/>
			<stop  offset="1" style="stop-color:#FFFFFF"/>
		</linearGradient>
		<path class="st10" d="M146.6,315.5l-38.8-12.9c-7.9-2.6-13.3-10.1-13.3-18.4v-12l52,17.3V315.5z"/>
		<path class="st11" d="M146.6,263.4l-52,17.3v-12c0-8.4,5.4-15.8,13.3-18.4l38.8-12.9V263.4z"/>
	</g>
</g>
<g>
</g>
<g>
</g>
<g>
</g>
<g>
</g>
<g>
</g>
<g>
</g>
</svg>
