<svg viewBox="0 0 214.4 65.2" xmlns="http://www.w3.org/2000/svg" width="800" height="243"><path d="m119.4 5.2h10.6l1-5h-15.7l-3.1 17.2h5.1l.9-5.4h10.3l1-4.9h-10.4zm18.5-5h-5.1l-3 17.2h15.2l.9-4.9h-10.2zm20.9 0-12 17.2h5.9l2.3-3.4h7.3l1.1 3.4h5.4l-5.8-17.2zm1.9 9.2h-2.7l2-3zm48.5-9.3-1.1 6h-8.4l1.1-6h-5l-3.1 17.3h5l1.1-6.3h8.4l-1.1 6.3h5.1l3.1-17.3zm-29.7 4.9h12.3l1.1-4.8h-13.2c-1.9 0-3.4.4-4.6 1.3s-2 2.3-2.3 4.1c-.1.5-.1 1-.1 1.4 0 1.4.6 2.6 1.7 3.3.9.6 2.2.9 4 .9h6.8c.6 0 .7.3.8.3.1.3 0 .7-.1.8-.2.1-.4.2-1.1.2h-12.4l-.1.6c-.2 1.2-.5 2.5-.8 3.5l-.2.9h13c2 0 3.5-.4 4.6-1.2s1.9-2.2 2.3-4.1l.1-.6v-.9c0-1.6-.7-2.8-2-3.6-.9-.5-1.9-.5-3.3-.5h-7c-.9 0-1.3-.3-1.3-.4-.1-.7.1-.8.2-.9.3-.3.4-.3 1.6-.3z" fill="#f38843"/><path d="m74.2 21.7-30.2 43.5h14.1l6.1-9h20.4l3 9h12.4l-14.7-43.5zm6.6 23.7h-10.5l7.1-10.8zm118.1-23.7-2.8 15.5h-24l2.8-15.5h-11.4l-7.8 43.5h11.4l3-16.7h24l-3 16.7h11.4l7.8-43.5zm-48.9 18.3c-2.5-1.5-5.9-2.3-10.6-2.3h-17.1c-.9 0-1.6-.3-2-1s-.4-1.7 0-2.5c.3-.6.9-1 1.6-1h.1c.3-.1.6-.1 2.9-.1h31.9l2.4-11.5h-33.7c-4.7 0-8.5 1.1-11.2 3.1-2.7 2.1-4.7 5.9-5.5 10.7-.2 1.3-.4 2.4-.4 3.5 0 3.4 1.5 6.2 4.1 8 2.2 1.5 5.5 2.2 9.9 2.2h17.4c2.1 0 2.8.9 3 1.4.3.9 0 1.8-.5 2.3-.7.7-2.1.8-4.5.8h-31.3l-3.7 11.5h34.6c4.9 0 8.6-1 11.3-3 2.7-2.1 4.6-5.5 5.6-10.2l.1-.4c.2-.8.4-1.8.3-2.9-.1-3.7-1.8-6.7-4.7-8.6zm-130.8 13.2c-2.2 0 .1-5.3.5-7.4l-5.3-6.5c.7-3.7 1.7-4.6 1.9-4.8.3-.2 1.4-.9 4.8-.9h26.6l2.2-11.9h-28.3c-5.6 0-10 1.3-13.1 3.9-3 2.6-5 6.6-6.1 12.2l-1.8 10c-.2 1-.3 1.8-.4 2.3-.1.6-.1 1.4-.1 2.5 0 5.4 2.3 8.3 4.2 9.8 2.5 1.9 6.1 2.8 11 2.8h26.3l2.2-11.9h-24z" fill="#3f505a"/><path d="m24.4 23.4-20.2 22.1h13.3l-3.4 17.8 19.7-20.7h-14.1z" fill="#f38843"/></svg>