<?xml version="1.0" encoding="utf-8"?>
<!-- Generator: Adobe Illustrator 16.0.0, SVG Export Plug-In . SVG Version: 6.00 Build 0)  -->
<svg version="1.2" baseProfile="tiny" id="Слой_1"
	 xmlns="http://www.w3.org/2000/svg" xmlns:xlink="http://www.w3.org/1999/xlink" x="0px" y="0px" width="193px" height="34px"
	 viewBox="0 0 193 34" xml:space="preserve">
<path fill-rule="evenodd" fill="#FFFFFF" d="M18.266,20.373c0-0.838-0.009-1.675,0.005-2.512c0.004-0.28-0.107-0.402-0.363-0.514
	c-0.738-0.324-1.511-0.613-2.171-1.061c-1.333-0.903-1.731-2.266-1.584-3.811c0.162-1.7,1.047-2.922,2.558-3.68
	c0.38-0.191,0.812-0.29,1.23-0.387c0.242-0.056,0.326-0.156,0.323-0.395c-0.029-2.418-0.048-4.837-0.08-7.255
	c-0.006-0.51,0.1-0.625,0.603-0.611c1.469,0.041,2.921,0.212,4.341,0.591c1.534,0.409,2.981,1.042,4.337,1.867
	c2.308,1.406,4.144,3.294,5.573,5.58c0.94,1.505,1.613,3.126,2.038,4.854c0.447,1.819,0.639,3.658,0.439,5.522
	c-0.49,4.572-2.467,8.386-5.973,11.36c-2.103,1.785-4.521,2.979-7.24,3.548c-2.822,0.592-5.61,0.512-8.369-0.327
	c-3.704-1.126-6.66-3.291-8.911-6.436c-1.043-1.456-1.814-3.046-2.346-4.749c-0.51-1.632-0.734-3.313-0.746-5.022
	c-0.002-0.333,0.124-0.514,0.488-0.501c0.444,0.016,0.89,0.012,1.334,0.002c0.333-0.008,0.45,0.143,0.475,0.47
	c0.072,0.963,0.118,1.933,0.279,2.882c0.316,1.86,1.041,3.568,2.07,5.154c0.979,1.509,2.19,2.79,3.642,3.845
	c1.66,1.205,3.489,2.022,5.5,2.459c1.712,0.372,3.433,0.395,5.149,0.171c1.533-0.2,2.991-0.688,4.383-1.387
	c2.109-1.058,3.844-2.539,5.236-4.432c0.721-0.98,1.295-2.04,1.751-3.173c0.803-1.999,1.153-4.067,1.034-6.211
	c-0.08-1.415-0.329-2.811-0.828-4.138c-0.651-1.733-1.563-3.32-2.806-4.714c-1.277-1.433-2.769-2.577-4.482-3.428
	c-1.365-0.677-2.813-1.11-4.32-1.339c-0.301-0.045-0.467,0.045-0.465,0.394c0.01,1.688-0.003,3.375,0.018,5.062
	c0.002,0.142,0.17,0.34,0.312,0.412c0.38,0.193,0.804,0.302,1.183,0.497c1.333,0.686,2.086,1.81,2.386,3.258
	c0.045,0.218,0.079,0.438,0.108,0.658c0.05,0.38-0.054,0.5-0.445,0.507c-0.313,0.006-0.627-0.008-0.941,0.002
	c-0.315,0.01-0.486-0.117-0.529-0.44c-0.094-0.691-0.34-1.322-0.868-1.797c-0.239-0.215-0.521-0.396-0.81-0.539
	c-0.275-0.136-0.417-0.015-0.416,0.294c0.001,1.503,0.012,3.007,0.001,4.51c-0.003,0.455,0.332,0.52,0.637,0.612
	c0.794,0.242,1.542,0.576,2.189,1.103c1.297,1.057,1.696,2.469,1.521,4.067c-0.15,1.37-0.752,2.522-1.883,3.347
	c-0.593,0.433-1.244,0.777-1.985,0.884c-0.361,0.052-0.485,0.243-0.479,0.585c0.013,0.72,0.011,1.438,0.015,2.158
	c0.002,0.476-0.091,0.57-0.574,0.572c-0.353,0.002-0.708-0.021-1.059,0.006c-0.369,0.027-0.499-0.142-0.497-0.479
	c0.007-0.759-0.005-1.518,0.018-2.275c0.011-0.378-0.103-0.543-0.504-0.624c-1.776-0.361-3.303-1.634-3.785-3.504
	c-0.126-0.49-0.229-0.988-0.301-1.489c-0.061-0.42,0.067-0.537,0.497-0.548c0.262-0.007,0.523-0.009,0.785-0.008
	c0.48,0.002,0.565,0.104,0.641,0.589c0.209,1.34,0.906,2.313,2.189,2.823c0.388,0.154,0.478,0.078,0.477-0.35
	c-0.003-0.838-0.001-1.674-0.001-2.511C18.268,20.373,18.267,20.373,18.266,20.373z M20.37,20.758c0.002,0,0.004,0,0.006,0
	c0,0.757-0.005,1.515,0.002,2.271c0.003,0.375,0.163,0.479,0.494,0.32c0.327-0.157,0.666-0.303,0.96-0.51
	c1.242-0.876,1.444-3.131,0.076-4.067c-0.319-0.219-0.688-0.367-1.042-0.53c-0.384-0.178-0.487-0.113-0.494,0.322
	C20.362,19.295,20.37,20.026,20.37,20.758z M18.276,12.832c-0.001,0-0.002,0-0.003,0c0-0.652,0.004-1.304-0.003-1.956
	c-0.002-0.2,0.034-0.451-0.314-0.395c-0.818,0.131-1.612,0.872-1.813,1.697c-0.274,1.129-0.042,1.898,0.783,2.479
	c0.263,0.185,0.563,0.322,0.86,0.451c0.363,0.157,0.494,0.048,0.492-0.36C18.274,14.109,18.276,13.471,18.276,12.832z"/>
<path fill-rule="evenodd" d="M67.858,25.43c0.968-5.6,1.932-11.18,2.899-16.78c1.014,0,1.994-0.012,2.973,0.017
	c0.107,0.003,0.256,0.219,0.305,0.364c1.009,3.02,2.007,6.043,3.008,9.065c0.233,0.704,0.471,1.406,0.742,2.215
	c1.325-3.944,2.617-7.792,3.912-11.647c1.038,0,2.068,0,3.133,0c0.938,5.581,1.875,11.154,2.823,16.783
	c-0.729,0-1.429,0.002-2.129-0.001c-0.313-0.001-0.717,0.103-0.914-0.053c-0.187-0.146-0.168-0.567-0.22-0.87
	c-0.386-2.247-0.767-4.495-1.15-6.742c-0.155-0.91-0.315-1.82-0.539-2.742c-1.166,3.46-2.332,6.92-3.502,10.391
	c-0.953,0-1.892,0-2.863,0c-1.152-3.461-2.307-6.928-3.462-10.395c-0.022,0.003-0.045,0.007-0.068,0.01
	c-0.601,3.46-1.201,6.92-1.803,10.385C69.94,25.43,68.91,25.43,67.858,25.43z"/>
<path fill-rule="evenodd" d="M99.074,14.655c0,3.583,0,7.167,0,10.771c-1.093,0-2.133,0-3.208,0c0-5.574,0-11.149,0-16.776
	c0.701,0,1.407,0.056,2.1-0.015c0.73-0.075,1.13,0.206,1.518,0.816c2.102,3.301,4.252,6.57,6.387,9.851
	c0.046,0.07,0.104,0.135,0.213,0.275c0-3.687,0-7.285,0-10.905c1.091,0,2.142,0,3.211,0c0,5.587,0,11.153,0,16.775
	c-0.585,0-1.168,0.003-1.751-0.001c-0.443-0.003-0.958,0.121-1.31-0.063c-0.335-0.174-0.502-0.673-0.737-1.032
	c-2.047-3.135-4.093-6.27-6.138-9.405c-0.068-0.104-0.141-0.205-0.211-0.307C99.124,14.644,99.1,14.649,99.074,14.655z"/>
<path fill-rule="evenodd" fill="#FFFFFF" d="M161.365,25.389c0-5.563,0-11.118,0-16.721c0.145-0.006,0.282-0.018,0.419-0.018
	c1.53-0.001,3.062-0.041,4.59,0.01c1.55,0.052,3.103,0.206,4.484,1.002c1.89,1.089,2.992,2.789,3.526,4.856
	c0.625,2.42,0.524,4.809-0.636,7.066c-1.093,2.126-2.772,3.547-5.229,3.693c-2.356,0.141-4.724,0.108-7.086,0.15
	C161.424,25.431,161.414,25.418,161.365,25.389z M164.577,22.304c1.018,0,1.983,0.047,2.944-0.01
	c1.768-0.104,2.964-1.025,3.553-2.695c0.523-1.482,0.533-2.986,0.086-4.489c-0.478-1.609-1.498-2.666-3.146-3.099
	c-0.983-0.258-1.98-0.275-2.984-0.291c-0.359-0.006-0.462,0.092-0.46,0.456c0.015,3.268,0.008,6.536,0.008,9.804
	C164.577,22.096,164.577,22.211,164.577,22.304z"/>
<path fill-rule="evenodd" fill="#FFFFFF" d="M136.794,25.418c0-5.597,0-11.164,0-16.769c0.12,0,0.221-0.001,0.322,0
	c1.737,0.026,3.478,0.012,5.212,0.087c2.687,0.117,4.198,1.831,4.428,4.172c0.121,1.232-0.056,2.39-0.791,3.416
	c-0.574,0.8-1.383,1.286-2.342,1.649c1.315,2.481,2.621,4.945,3.961,7.473c-0.746,0-1.431,0.003-2.117-0.001
	c-0.469-0.002-1.031,0.144-1.383-0.063c-0.347-0.204-0.487-0.767-0.705-1.179c-0.974-1.837-1.941-3.679-2.918-5.515
	c-0.083-0.155-0.225-0.278-0.339-0.417c-0.04,0.024-0.079,0.048-0.118,0.072c0,2.349,0,4.697,0,7.074
	C138.922,25.418,137.871,25.418,136.794,25.418z M140.014,15.303c0.847-0.077,1.658-0.101,2.45-0.236
	c0.808-0.138,1.209-0.733,1.199-1.584c-0.01-0.808-0.473-1.484-1.222-1.603c-0.789-0.125-1.598-0.14-2.428-0.206
	C140.014,12.912,140.014,14.055,140.014,15.303z"/>
<path fill-rule="evenodd" d="M49.172,17.172c0.039-1.75,0.124-3.496,0.714-5.167c0.676-1.917,1.929-3.291,3.979-3.643
	c3.095-0.532,5.593,0.725,6.602,4.076c0.574,1.908,0.656,3.883,0.498,5.856c-0.091,1.138-0.237,2.286-0.514,3.391
	c-0.314,1.254-0.954,2.367-2.01,3.185c-0.723,0.56-1.556,0.849-2.451,0.935c-1.632,0.156-3.191-0.041-4.486-1.169
	c-1.041-0.907-1.667-2.089-1.916-3.422c-0.248-1.328-0.351-2.683-0.518-4.026C49.104,17.182,49.138,17.177,49.172,17.172z
	 M52.385,17.426c0.045,0.585,0.078,1.435,0.182,2.275c0.107,0.858,0.338,1.684,0.923,2.369c0.897,1.054,2.405,1.035,3.251-0.06
	c0.588-0.761,0.785-1.667,0.909-2.589c0.218-1.627,0.206-3.258-0.002-4.885c-0.098-0.764-0.255-1.519-0.694-2.179
	c-0.595-0.895-1.349-1.239-2.289-1.049c-0.993,0.201-1.486,0.905-1.784,1.788C52.436,14.416,52.449,15.793,52.385,17.426z"/>
<path fill-rule="evenodd" fill="#FFFFFF" d="M134.226,11.614c-0.774,0.731-1.513,1.43-2.173,2.053
	c-0.844-0.58-1.605-1.229-2.472-1.674c-2.104-1.08-4.803-0.887-6.626,0.811c-1.106,1.03-1.725,2.291-1.805,3.813
	c-0.076,1.439,0.207,2.779,1.09,3.941c0.965,1.27,2.271,1.942,3.846,2.146c2.213,0.287,4.001-0.543,5.543-2.049
	c0.104-0.101,0.188-0.219,0.301-0.354c0.757,0.791,1.477,1.543,2.224,2.323c-1.379,1.347-2.845,2.495-4.738,2.928
	c-2.293,0.523-4.571,0.479-6.716-0.564c-2.713-1.32-4.292-3.516-4.69-6.52c-0.241-1.813-0.109-3.59,0.696-5.267
	c1.203-2.507,3.238-4.05,5.883-4.677c3.535-0.837,6.643,0.111,9.252,2.648C133.969,11.299,134.079,11.446,134.226,11.614z"/>
<path fill-rule="evenodd" fill="#FFFFFF" d="M149.69,8.669c3.074,0,6.118,0,9.183,0c0,1.008,0,1.997,0,3.035
	c-0.148,0.008-0.299,0.023-0.448,0.023c-1.688,0.001-3.375,0.017-5.062-0.01c-0.418-0.007-0.502,0.126-0.49,0.509
	c0.027,0.859,0.01,1.72,0.01,2.612c2.01,0,3.98,0,5.98,0c0,1.03,0,2.028,0,3.07c-0.148,0.007-0.299,0.021-0.451,0.021
	c-1.713,0.001-3.426,0.008-5.14-0.006c-0.312-0.003-0.4,0.089-0.397,0.398c0.016,1.332,0.008,2.665,0.008,4.045c2,0,3.979,0,5.984,0
	c0,1.045,0,2.043,0,3.061c-3.059,0-6.103,0-9.177,0C149.69,19.851,149.69,14.275,149.69,8.669z"/>
<path fill-rule="evenodd" fill="#FFFFFF" d="M184.748,11.73c-1.025,0-1.988,0-2.975,0c0-1.035,0-2.035,0-3.057
	c3.096,0,6.187,0,9.297,0c0,1.012,0,2.011,0,3.047c-1.007,0-1.994,0-3.02,0c0,4.579,0,9.122,0,13.696c-1.113,0-2.189,0-3.303,0
	C184.748,20.879,184.748,16.335,184.748,11.73z"/>
<path fill-rule="evenodd" d="M43.249,11.654c-1.167,0-2.274,0-3.443,0c0.065-0.137,0.098-0.227,0.148-0.307
	c0.507-0.821,1.012-1.644,1.531-2.458c0.066-0.104,0.206-0.228,0.313-0.229c1.528-0.015,3.057-0.01,4.609-0.01
	c0,5.604,0,11.18,0,16.776c-1.04,0-2.068,0-3.157,0C43.249,20.846,43.249,16.266,43.249,11.654z"/>
<path fill-rule="evenodd" d="M89.586,8.667c1.055,0,2.082,0,3.133,0c0,5.592,0,11.167,0,16.76c-1.045,0-2.072,0-3.133,0
	C89.586,19.852,89.586,14.277,89.586,8.667z"/>
<path fill-rule="evenodd" fill="#FFFFFF" d="M177.083,8.661c1.06,0,2.091,0,3.147,0c0,5.585,0,11.161,0,16.761
	c-1.039,0-2.078,0-3.147,0C177.083,19.85,177.083,14.275,177.083,8.661z"/>
<path fill-rule="evenodd" d="M12.46,2.078c0.002-0.77,0.59-1.353,1.369-1.359c0.734-0.006,1.368,0.646,1.352,1.393
	c-0.014,0.657-0.712,1.351-1.348,1.339C13.074,3.437,12.458,2.82,12.46,2.078z"/>
<path fill-rule="evenodd" d="M6.282,5.863c-0.027-0.82,0.665-1.335,1.325-1.362c0.722-0.029,1.42,0.711,1.395,1.414
	c-0.025,0.726-0.687,1.33-1.438,1.313C6.875,7.211,6.274,6.573,6.282,5.863z"/>
<path fill-rule="evenodd" d="M5.169,12.06c0.013,0.674-0.59,1.283-1.292,1.302c-0.724,0.02-1.386-0.584-1.387-1.298
	c0-0.915,0.566-1.384,1.346-1.417C4.454,10.622,5.204,11.078,5.169,12.06z"/>
</svg>
