<svg id="Layer_1" xmlns="http://www.w3.org/2000/svg" viewBox="0 0 140 140"><style>.st0{fill:none;stroke:#777;stroke-miterlimit:10}.st1{fill:#ffd274}.st2,.st3,.st4,.st5{fill:none;stroke:#ffd274;stroke-linecap:round;stroke-linejoin:round}.st3{stroke-dasharray:5.2068,4.1655}.st4{stroke-dasharray:5.1935,4.1548}.st5{stroke-dasharray:5.0794,4.0636}</style><path class="st0" d="M119.3 122.5H13.4c-1.6 0-3-1.4-3-3V33.7c0-1.6 1.4-3 3-3h105.9c1.7 0 3 1.4 3 3v85.8c0 1.6-1.3 3-3 3z"/><path class="st1" d="M127.4 91.6H78.9c-1.7 0-3-1.4-3-3V67.4c0-1.7 1.3-3 3-3h48.5c1.7 0 3 1.3 3 3v21.3c0 1.6-1.3 2.9-3 2.9z"/><path class="st0" d="M88.9 83.7c-3.2 0-5.7-2.6-5.7-5.7 0-3.2 2.6-5.7 5.7-5.7 3.2 0 5.7 2.6 5.7 5.7.1 3.2-2.5 5.7-5.7 5.7zM10.4 36.4V31c0-2.2 1.7-4.1 3.9-4.3L110 17c2.5-.3 4.7 1.7 4.7 4.3v9.3"/><path class="st2" d="M11.4 40h2.5"/><path class="st3" d="M18.1 40h91.7"/><path class="st2" d="M111.8 40h2.5v2.5"/><path class="st4" d="M114.3 46.6V110"/><path class="st2" d="M114.3 112.1v2.5h-2.5"/><path class="st5" d="M107.8 114.6H18.4"/><path class="st2" d="M16.3 114.6h-2.5"/></svg>