<svg id="Layer_1" xmlns="http://www.w3.org/2000/svg" viewBox="0 0 150 150"><style>.st0{fill:url(#SVGID_1_)}.st1{fill:#006cad}.st2{fill:url(#SVGID_2_)}.st3{fill:#666}.st4{fill:#00cff7}.st5{fill:url(#SVGID_3_)}.st6{fill:#00ace4}.st7{fill:#303030}</style><linearGradient id="SVGID_1_" gradientUnits="userSpaceOnUse" x1="-8.72" y1="212.099" x2="104.206" y2="212.099" gradientTransform="rotate(-28.713 -202.388 91.31)"><stop offset="0" stop-color="#ffc900"/><stop offset=".197" stop-color="#ffc600"/><stop offset="1" stop-color="#ffc400"/></linearGradient><path class="st0" d="M98.7 18.9L20.1 62c-.3.1-.7.3-1.2.6l-2.2 1.2c-3.1 1.4-5.7 1.5-5.7 1.5-3.3.2-6-1.1 2.1-8.8L9.5 59c-3.7 2-5.1 6.7-3.1 10.5l3.7 6.8.2.4 34.4 62.9c2 3.7 6.7 5.1 10.5 3.1l85.5-46.9c3.7-2 5.1-6.7 3.1-10.5l-34.6-63.2c-2.1-3.9-6.7-5.3-10.5-3.2z"/><path class="st1" d="M13.1 56.4c-8.1 7.7-5.4 9-2.1 8.8 0 0 2.6-.1 5.7-1.5l2.2-1.2c.5-.3.9-.5 1.2-.6l75.2-41.2-5.5-10.2c-2-3.7-6.7-5.1-10.5-3.1L13 56.5l.1-.1z"/><linearGradient id="SVGID_2_" gradientUnits="userSpaceOnUse" x1="-6.72" y1="214.236" x2="102.206" y2="214.236" gradientTransform="rotate(-28.713 -202.388 91.31)"><stop offset="0" stop-color="#ffc709"/><stop offset=".859" stop-color="#ffc709"/><stop offset="1" stop-color="#ffc709"/></linearGradient><path class="st2" d="M54.3 140.7c-2.8 1.5-6.2.5-7.7-2.3l-38.3-70c-.3-.6-.5-1.2-.6-1.8.9.5 2.1.7 3.6.6.4 0 3.2-.2 6.4-1.6 0 0 .1 0 .1-.1l2.2-1.2.1-.1c.2-.1.3-.2.5-.3.1-.1.2-.1.3-.1.1 0 .2-.1.2-.1l78.6-43.1c2.8-1.5 6.2-.5 7.7 2.3L142 86.1c1.5 2.8.5 6.2-2.3 7.7l-85.4 46.9z"/><path class="st3" d="M123.9 78.4c1.1 2 .4 4.5-1.6 5.6l-63.5 35.7c-2 1.1-4.5.4-5.6-1.6L33.1 82.5c-1.1-2-.4-4.5 1.6-5.6l63.5-35.7c2-1.1 4.5-.4 5.6 1.6l20.1 35.6z"/><path class="st4" d="M124.1 77.6c1.1 2 .4 4.5-1.6 5.6L59 119c-2 1.1-4.5.4-5.6-1.6L33.3 81.8c-1.1-2-.4-4.5 1.6-5.6l63.5-35.7c2-1.1 4.5-.4 5.6 1.6l20.1 35.5z"/><linearGradient id="SVGID_3_" gradientUnits="userSpaceOnUse" x1="46.262" y1="168.375" x2="119.972" y2="168.375" gradientTransform="rotate(-14.784 -264.87 111.53) scale(.9999)"><stop offset="0" stop-color="#005573"/><stop offset="1" stop-color="#00ace4"/></linearGradient><path class="st5" d="M124.1 77.6c1.1 2 .4 4.5-1.6 5.6L59 119c-2 1.1 39.4-78.6 39.4-78.6 2-1.1 4.5-.4 5.6 1.6l20.1 35.6z"/><path class="st6" d="M124.1 77.6L104 42c-1.1-2-3.7-2.7-5.6-1.6L69.1 56.8c.1.3.2.6.2.8 4.7 17.9-5.3 36.7-23.2 47l7.2 12.8c1.1 2 3.7 2.7 5.6 1.6l63.5-35.7c2.1-1.1 2.8-3.7 1.7-5.7z"/><path class="st7" d="M122 74l-4.2-7.5c-.1.1-.2.2-.4.3L47 106.4l4.2 7.4L122 74z"/></svg>