<?xml version="1.0" encoding="utf-8"?>
<!-- Generator: Adobe Illustrator 16.0.0, SVG Export Plug-In . SVG Version: 6.00 Build 0)  -->
<!DOCTYPE svg PUBLIC "-//W3C//DTD SVG 1.1//EN" "http://www.w3.org/Graphics/SVG/1.1/DTD/svg11.dtd">
<svg version="1.1" id="Layer_1" xmlns="http://www.w3.org/2000/svg" xmlns:xlink="http://www.w3.org/1999/xlink" x="0px" y="0px"
	 width="198.43px" height="198.43px" viewBox="0 0 198.43 198.43" enable-background="new 0 0 198.43 198.43" xml:space="preserve">
<path fill="#FFFFFF" stroke="#000000" stroke-miterlimit="10" d="M173.201,160.87H25.796c-2.268,0-4.252-1.843-4.252-4.252V34.867
	c0-2.268,1.984-4.252,4.252-4.252h147.405c2.409,0,4.252,1.984,4.252,4.252v121.751C177.453,158.886,175.61,160.87,173.201,160.87z"
	/>
<path fill="none" stroke="#000000" stroke-miterlimit="10" d="M173.201,169.516H25.796c-2.268,0-4.252-1.843-4.252-4.252V43.513
	c0-2.268,1.984-4.252,4.252-4.252h147.405c2.409,0,4.252,1.984,4.252,4.252v121.751C177.453,167.531,175.61,169.516,173.201,169.516
	z"/>
<path fill="#FFD274" d="M176.886,68.033H22.394v-32.6c0-2.268,1.984-4.252,4.252-4.252h145.987c2.409,0,4.252,1.984,4.252,4.252
	V68.033z"/>
<path fill="none" stroke="#000000" stroke-miterlimit="10" d="M139.326,57.545c-4.395,0-7.938-3.544-7.938-7.938
	s3.543-7.938,7.938-7.938c4.394,0,7.938,3.544,7.938,7.938S143.72,57.545,139.326,57.545z M59.387,57.545
	c-4.394,0-7.937-3.544-7.937-7.938s3.543-7.938,7.937-7.938c4.394,0,7.937,3.544,7.937,7.938S63.781,57.545,59.387,57.545z"/>
<g>
	<path d="M61.114,113.296c0-12.606,4.608-22.59,15.092-22.59c10.483,0,15.091,9.984,15.091,22.59
		c0,12.863-4.723,22.847-15.091,22.847C65.837,136.143,61.114,126.159,61.114,113.296z M90.664,113.296
		c0-12.159-4.551-21.95-14.458-21.95c-9.908,0-14.458,9.791-14.458,21.95c0,12.287,4.493,22.206,14.458,22.206
		C86.17,135.502,90.664,125.583,90.664,113.296z"/>
	<path d="M115.719,101.393c0,6.016-3.283,10.688-8.582,10.688c-5.186,0-8.699-4.672-8.699-10.688c0-6.144,3.457-10.879,8.64-10.879
		C112.378,90.514,115.719,95.249,115.719,101.393z M99.014,101.393c0,5.568,3.398,10.047,8.123,10.047
		c4.838,0,7.948-4.479,7.948-10.047c0-5.695-3.168-10.239-8.007-10.239C102.355,91.154,99.014,95.698,99.014,101.393z
		 M106.445,135.823h-0.807l23.328-44.989h0.807L106.445,135.823z M137.377,125.455c0,6.016-3.341,10.688-8.582,10.688
		c-5.185,0-8.756-4.672-8.756-10.688c0-6.144,3.514-10.879,8.697-10.879C133.979,114.576,137.377,119.312,137.377,125.455z
		 M120.672,125.455c0,5.567,3.398,10.047,8.123,10.047c4.78,0,7.949-4.479,7.949-10.047c0-5.695-3.227-10.303-8.008-10.303
		C124.014,115.153,120.672,119.76,120.672,125.455z"/>
</g>
</svg>
