<svg id="Layer_1" xmlns="http://www.w3.org/2000/svg" viewBox="0 0 140 140"><style>.st0{fill:#777}.st1{fill:none;stroke:#777;stroke-miterlimit:10}.st2{fill:#ffd274}</style><path class="st0" d="M124 109H26c-2 0-3-2-3-3V44c0-2 1-4 3-4h98c2 0 4 2 4 4v62c0 1-2 3-4 3zM26 41c-1 0-2 1-2 3v62l2 2h98l3-2V44c0-2-2-3-3-3H26z"/><path class="st1" d="M49 100H35l-2-2V86l2-2h14l2 2v12l-2 2z"/><path class="st2" d="M24 54h102v16H24zm34 31h58v1H58zm0 13h58v2H58zm0-7h41v2H58z"/><path class="st0" d="M114 101H16c-2 0-3-2-3-3V36c0-2 1-4 3-4h98c2 0 4 2 4 4v62c0 1-2 3-4 3z"/><path d="M16 33c-1 0-2 1-2 3v62l2 2h98c2 0 3-1 3-2V36c0-2-1-3-3-3H16z" fill="#fff"/><path class="st1" d="M39 92H25l-2-2V78l2-2h14l2 2v12l-2 2z"/><path class="st2" d="M14 46h102v16H14zm34 31h59v1H48zm0 13h59v2H48zm0-7h41v2H48z"/></svg>