<svg id="Layer_1" xmlns="http://www.w3.org/2000/svg" viewBox="0 0 180 140"><style>.st0{fill:#777}.st1{fill:none;stroke:#777;stroke-miterlimit:10}</style><path class="st0" d="M138 106H40c-2 0-3-2-3-4V40c0-2 1-3 3-3h98c2 0 4 1 4 3v62c0 2-2 4-4 4zM40 38l-2 2v62l2 3h98c2 0 3-2 3-3V40c0-1-1-2-3-2H40z"/><path class="st1" d="M63 96H49c-1 0-2 0-2-2V82l2-2h14l2 2v12c0 2 0 2-2 2z"/><path d="M38 51h102v16H38zm34 30h59v1H72zm0 14h59v1H72zm0-7h41v1H72z" fill="#ffd274"/><path class="st1" d="M160 71l2 13 12-6M19 74l-2-13-12 6"/><path class="st0" d="M122 125v-1h-1l1 1zm40-41h1v-1h-1v1z"/><path class="st0" d="M164 27C147-3 100-9 59 15h-1l1 1C76 6 94 1 111 1c22 0 42 9 52 27 10 16 9 36-1 55h1c10-19 11-39 1-56zM61 138c-20-2-35-12-43-26-9-15-9-32-1-51h-1c-8 18-8 37 1 51 8 15 24 24 44 27h10c17 0 34-5 51-14l-1-1a99 99 0 0 1-60 14z"/><path class="st0" d="M58 16h1l-1-1-1 1h1zM17 61v-1l-1 1h1z"/></svg>