<svg id="Layer_1" xmlns="http://www.w3.org/2000/svg" viewBox="0 0 140 140"><style>.st0{fill:#ffd274}.st1{fill:#777}</style><path id="XMLID_850_" class="st0" d="M51 96L41 86l2-5c4 5 9 8 14 10l-6 5z"/><path id="XMLID_849_" class="st0" d="M81 82l2 4-10 10-6-5c5-2 10-5 14-9z"/><path id="XMLID_846_" class="st0" d="M36 30l6-9 8-5a52 52 0 0 1 25-4c-1 3-2 6-1 7v5h5l4 1c3 1 5 3 6 5l2 7-2-3-2-3-3 1s-11 3-22 3-21-3-21-3l-4-1-2 4-1 2 2-7z"/><path class="st1" d="M62 88l-8-3-9-8c-7-8-11-17-11-25l1-7v-1l4-7h1l22 2 23-2 3 5 2 10c0 8-4 17-11 25l-9 8-8 3zM36 45l-1 7c0 8 4 17 10 24l10 8c2 2 5 2 7 2l7-2 10-8c6-7 10-16 10-24l-2-10-3-4-22 2-22-2-4 7zm19 78H10l-1-1v-11c0-5 2-8 6-10h2l5-2 3-1 2-1 2-1 5-2 5-3h1l10 10h2l2-2h2v23l-1 1zM39 92l-4 3-5 2-3 1-2 1-3 1-5 2h-1c-4 1-6 5-6 8v12h45V99l-3 2h-3l-10-9z"/><circle class="st0" cx="62" cy="105" r="3"/><circle class="st0" cx="62" cy="117" r="3"/><path class="st1" d="M5 127v-16c0-6 4-11 9-13h1l8-3 3-1 10-5v-1-2l3-7v-2-1c-4-4-8-12-9-21 0-1-3-16 1-27C39 10 61 8 71 8l13 1c-6 4-6 10-6 10h1c1 0 11 1 14 9 4 10 1 24 1 24 0 8-3 17-9 24v3l3 7v3l10 5 3 1 3 1h1l-4-2-3-1-9-5v-2l-3-8v-1c6-8 9-17 9-25 0-1 3-15-1-24-3-8-13-9-15-9 0-2 1-6 6-9V9L71 7C61 7 38 9 31 28c-5 11-2 26-2 27 1 9 6 17 9 22v1l-3 8v2l-9 5-3 1-9 3c-6 2-10 7-10 14v16l1 1h95l-1-1H5z"/><path class="st1" d="M70 122V99l2 2h3l10-9 5 3 5 2 2 1 2 1h1l1-1h-2l-2-1-2-1-5-2-4-3h-2l-9 10h-2l-3-2-1-1v24l1 1h27l-1-1H70zm45-29c-4 0-7 1-10 3h1l9-2a19 19 0 1 1-13 34h-2c4 4 9 6 15 6a21 21 0 0 0 0-41z"/><path class="st1" d="M96 122h2c-2-3-2-5-2-8 0-6 2-11 5-14l-1-1c-3 4-5 9-5 14l1 9zm1 1l2 4h2l-3-4h-1zm5-24l3-2-1-1-3 3h1zm-1 28h-2l1 1h2l-1-1z"/><path class="st1" d="M105 97l1-1h-1-1l1 1zm-5 2l1 1 1-1h-1-1zm-4 23l1 1h1v-1h-2z"/><circle class="st0" cx="115" cy="114" r="21"/><path class="st1" d="M123 103s-5 1-5 11h1l1 2-2 1-1-1-2-5v-11h-1v11l-2 5v1l-2-1 1-2c1-10-4-11-4-11h-1v18l1 1h4c0 3 3 5 4 5l4-5h4v-19zm-4 10c0-6 2-8 3-9v11h-1l-2-2zm-1 8h-3l1-2h1l1 2zm-5-4l2-4 1 4 1 1h-1l-1 1-1-1h-1v-1zm-1 2h1l1 2h-2v-2zm-2-6l-1 2h-2v-11c1 1 3 3 3 9zm-3 3h2c0 2 1 2 3 2l-1 3h-4v-5zm5 6h2v4l-2-4zm3 4v-4h3l-3 4zm4-5l-1-3c1 0 3 0 3-2h1v5h-3z"/></svg>