<svg id="Layer_1" xmlns="http://www.w3.org/2000/svg" viewBox="0 0 140 140"><style>.st0{fill:none;stroke:#777;stroke-linecap:round;stroke-linejoin:round;stroke-miterlimit:10}</style><path class="st0" d="M121 113H17c-1 0-3-1-3-3V24l3-3h104c2 0 3 2 3 3v86c0 2-1 3-3 3z"/><path class="st0" d="M121 119H17c-1 0-3-1-3-3V30l3-3h104c2 0 3 2 3 3v86c0 2-1 3-3 3z"/><path d="M124 48H15V25c0-2 1-3 3-3h103c2 0 3 1 3 3v23z" fill="#ffd274"/><path d="M97 40a6 6 0 1 1 6-5c0 3-2 5-6 5zm-56 0a6 6 0 1 1 0-11 6 6 0 0 1 0 11z" fill="none" stroke="#777" stroke-miterlimit="10"/><path class="st0" d="M34 75s0-8 7-8c8 0 7 8 7 8l-3 5-12 12h16m17-1l-1-24-12 18h17m17-21L74 95m17-28h14L95 92"/></svg>