<svg xmlns="http://www.w3.org/2000/svg" viewBox="0 0 560 120"><path d="M75 51l-2 5-3 3-5 1-6 1H26c-5 0-8-1-10-3-3-2-4-4-4-6v-1h47v-9H32l-7-1-3-2-2-3v-4h39v-8H24c-5 0-7-1-9-3-2-1-3-3-3-5v-2h63v9l-1 3-2 3-3 2-6 2a158 158 0 0 1 7 2l3 3 1 5v8zm52 10V42H96v7l-1 6-4 3-4 2h-7V24l1-4 3-3a18 18 0 0 1 10-3h48v46h-15zm0-37H96v8h31v-8zm68 37V24h-31v37h-16V14h62v47h-15zm68-37h-32v37h-15V24l1-4 3-3a18 18 0 0 1 10-3h48v46h-16V24zm68 37V42h-32v7l-1 6-3 3-5 2h-6V24l1-4 3-3a18 18 0 0 1 10-3h48v46h-15zm0-37h-32v8h32v-8zm84-8l-2 5-3 2-4 1h-15v27c0 3 0 6-2 7-2 2-5 2-9 2h-4V24h-24v-1c0-4 1-6 3-7l8-2h52v2zm53 45a21 21 0 0 1-8-2l-2-2-3-1-19-17v13l-1 4-3 2-5 2h-7V14h16v21l20-21h17l-21 22 28 25h-12zm64 0V42h-31v7l-1 6-3 3-5 2h-6V24l1-4c0-2 2-3 3-3a18 18 0 0 1 10-3h48v46h-16zm0-37h-31v8h31v-8zM12 81h5v8l1 2h5l2-1v-9h4v21h-4v-8a13 13 0 0 1-5 1l-5-1c-1-1-3-3-3-6v-7zm41 21h-5l-2-4h-8l-2 4h-5l9-21h4l9 21zm-8-8l-3-8-3 8h6zm23 1l4 1c0 2-1 4-3 5l-6 2c-2 0-5-1-7-3l-2-8 2-9 8-2c2 0 4 0 6 2l2 4-4 1-2-3-2-1-4 2-2 5 2 6a5 5 0 0 0 6 1l2-3zm16-14h5v18h6V81h4v18h7V81h4v21H84V81zm30 0h13l2 1 2 2v2l-1 3-2 2 3 2 1 3v3l-2 2-3 1h-13V81zm5 4v4h7l1-2-1-2h-1l-4-1h-2zm0 8v6h7l1-1 1-2-1-2-1-1h-7zm17-12h4v14l9-14h4v21h-4V88l-9 14h-4V81zm23 0h15v18h2v8h-4v-5h-13v5h-4v-8h2l2-7V81zm4 4c0 6 0 11-2 14h8V85h-6zm16-4h4v9l2-1 2-3 2-4 5-1v3l-2 1-1 1-1 2-1 2-2 2 3 1 2 4 3 6h-6l-2-6-1-1-1-2-2-1v10h-4V81zm18 0h4v14l9-14h4v21h-4V88l-9 14h-4V81zm19 21l7-11-6-10h5l4 7 4-7h5l-6 10 7 11h-5l-5-7-5 7h-5zm31-21h17v21h-5V85h-8v17h-4V81zm20 11l1-6 2-3 3-2h5c3 0 5 1 7 3s3 4 3 8c0 3-1 6-3 8s-4 3-7 3-6-1-8-3-3-5-3-8zm5 0l1 5 5 2c1 0 3 0 4-2l2-5-2-6-4-2-5 2-1 6zm22-5l-4-1c1-4 4-5 8-5l6 1a5 5 0 0 1 1 7l-3 2 3 2 1 4c0 1 0 3-2 4l-6 2-5-1c-2-1-3-2-3-4l4-2 1 3h3l3-1 1-2-1-2h-5v-4h1l3-1 1-2-1-2-2-1c-2 0-3 1-4 3zm16-6h4v14l9-14h4v21h-4V88l-9 14h-4V81zm22 0h4v9l2-1 1-3 3-4 4-1h1v3l-2 1-1 1-1 2-1 2-2 2 2 1 2 4 3 6h-5l-2-6h-1v-1l-1-2-2-1v10h-4V81z" fill="#fff"/></svg>