<svg xmlns="http://www.w3.org/2000/svg" viewBox="0 0 150 150"><linearGradient id="a" gradientUnits="userSpaceOnUse" x1="-9" y1="212" x2="104" y2="212" gradientTransform="rotate(-29 -202 91)"><stop offset="0" stop-color="#ffc900"/><stop offset="0" stop-color="#ffc600"/><stop offset="1" stop-color="#ffc400"/></linearGradient><path d="M99 19L20 62l-1 1-2 1-6 1c-3 1-6-1 2-8l-3 2c-4 2-6 7-4 11l4 6v1l35 63c2 3 6 5 10 3l86-47c3-2 5-7 3-11l-35-63c-2-4-7-5-10-3z" fill="url(#a)"/><path d="M13 56c-8 8-5 9-2 9l6-1 2-1 1-1 75-41-5-11c-2-3-7-5-11-3L13 57v-1z" fill="#006cad"/><linearGradient id="b" gradientUnits="userSpaceOnUse" x1="-7" y1="214" x2="102" y2="214" gradientTransform="rotate(-29 -202 91)"><stop offset="0" stop-color="#ffc709"/><stop offset="1" stop-color="#ffc709"/><stop offset="1" stop-color="#ffc709"/></linearGradient><path d="M54 141c-3 1-6 0-7-3L8 68v-1h3l7-1v-1l2-1h1l79-43c2-2 6-1 7 2l35 63c2 3 1 6-2 8l-86 47z" fill="url(#b)"/><path d="M124 78c1 2 0 5-2 6l-63 36c-2 1-5 0-6-2L33 83c-1-2 0-5 2-6l63-36c2-1 5 0 6 2l20 35z" fill="#666"/><path d="M124 78c1 2 0 4-2 5l-63 36c-2 1-4 0-6-2L33 82c-1-2 0-5 2-6l63-35c2-2 5-1 6 1l20 36z" fill="#00cff7"/><linearGradient id="c" gradientUnits="userSpaceOnUse" x1="46" y1="168" x2="120" y2="168" gradientTransform="rotate(-15 -265 112) scale(.9999)"><stop offset="0" stop-color="#005573"/><stop offset="1" stop-color="#00ace4"/></linearGradient><path d="M124 78c1 2 0 4-2 5l-63 36c-2 1 39-79 39-79 2-1 5 0 6 2l20 36z" fill="url(#c)"/><path d="M124 78l-20-36c-1-2-4-3-6-2L69 57v1c5 17-5 36-23 47l7 12c1 2 4 3 6 2l63-36c3-1 3-3 2-5z" fill="#00ace4"/><path d="M122 74l-4-7h-1l-70 39 4 8 71-40z" fill="#303030"/></svg>