<svg xmlns="http://www.w3.org/2000/svg" viewBox="0 0 100 20"><path d="M57 6l-1 1c0-1 0-2 2-2h2l1-2-1-1h-1l-1 1c-3 0-4 2-4 5v3c0 2 1 4 4 4s4-2 4-5-2-4-5-4zm2 6l-1 1c-2 0-2-1-2-2 0-2 0-3 2-3s2 1 2 3l-1 1zm14-5l-1-1h-1v12h2v-4c2 2 5 1 5-2V9c0-3-3-4-5-2zm3 5l-2 1-1-1V9l1-1 2 1v3zm8-4l-1 4-1-1-1-4V6h-3l1 1a351 351 0 0 1 1 9v2c2 0 3 0 3-2l3-7 1-3h-1c-1 0-2 0-2 2zM11 3H4v2h3v10h2V5h3l-1-2zm37 8h2l2-1V9h-3l-1 2zm46-5l-1 1-1 4-1-4-1-1h-3v9h2V9l2 3 1 1 1-1 1-3h1v6h2V6h-3zM67 8l-1 4v-1l-2-4V6h-2v1a351 351 0 0 1 2 9h-1v2c2 0 3 0 4-2l2-7 1-3h-1l-2 2zM22 7V6h-2v12h2v-4c2 2 5 1 6-2V9c0-3-4-4-6-2zm4 5l-2 1-1-1-1-3 2-1 2 1v3zm8-5l-2 5v-1l-1-4-1-1h-2v1a351 351 0 0 1 2 9h-1v2c3 0 3 0 4-2l2-7 1-3h-1l-1 1zm9 0l-1 4-2-4V6h-3v9h2V9l1 3 2 1 1-1 1-3v6h2V6h-2l-1 1zM17 7l-1 5-1-1-1-4-1-1h-2l1 1a351 351 0 0 1 1 9v2c2 0 3 0 3-2l3-7 1-3h-1l-2 1z" fill-rule="evenodd" clip-rule="evenodd" fill="#fff"/></svg>