<svg xmlns="http://www.w3.org/2000/svg" viewBox="0 0 56 32"><path d="M14 18l1 1 1-2h-1l-1 1zm23 0l1 1 1-2-2 1zm-11-3l-1 1h2l-1-1zm20 0l-1 2 1 1 1-2-1-1zM37 2c-4 0-7 1-9 3-3-2-6-3-10-3C11 2 5 8 5 16s6 14 13 14c4 0 7-1 9-3 3 2 6 3 10 3 7 0 13-6 13-14S44 2 37 2zM11 20v-6l-1 6H9l-1-6v6H6l1-7h2v4l2-4h2l-1 7h-1zm5 0v-1l-2 1-1-2 2-2h1l-1-1h-2v-1h2l2 1v5h-2zm4-4l1 2-2 2h-2v-2l1 1 1-1v-1l-1-1c0-1 0-2 2-2h1v1h-1l-1 1h1zm3 2h1l-1 2h-1l-1-1v-2l1-4h1v1h1v1h-1v3zm4 1l1-1v2h-2c-1 0-2-1-2-3s1-3 2-3c2 0 2 1 2 2v1h-3l2 2zm3 1h-2v-1l1-5h2v1l1-1-1 2c-1-1-1 0-1 4zm6 0h-2c-1 0-2-1-2-3 0-3 1-5 3-5l1 1v1h-1c-1 0-2 1-2 3l2 1h1l-1 2zm4 0h-1v-1l-2 1-1-2 2-2h1l-1-1h-1v-1h2l2 1-1 2v3zm2 0h-1v-1l1-5h1v1l1-1v2c-1-1-1 0-2 4zm5 0v-1l-2 1c-1 0-2-1-2-3s2-3 3-3l1 1 1-2h1l-1 7h-2z" fill="#fff"/></svg>