<svg id="Layer_1" xmlns="http://www.w3.org/2000/svg" viewBox="0 0 140 140"><style>.st0{fill:none;stroke:#777;stroke-miterlimit:10}.st2{fill:#777}</style><path class="st0" d="M107 128H31l-3-3V29c0-2 2-3 3-3h76c2 0 3 1 3 3v96c0 1-1 3-3 3z"/><path class="st0" d="M28 31v-5c0-2 2-4 4-4l66-10c3 0 5 2 5 4v10"/><circle cx="71" cy="63" r="21" fill="#ffd274"/><path class="st2" d="M79 53s-5 0-5 10l1 1 1 1-2 2h-1v-1l-2-5V50h-1v11l-2 5v1c-2 0-2-1-2-2l1-1v-1c0-10-4-10-4-10h-1v18h5c0 3 3 5 4 5 1 1 3-2 4-5h4V53zm-4 10c0-7 2-9 3-9v11h-1c0-2-1-2-2-2zm-1 7h-3l1-2h1l1 2zm-5-4l2-3 1 3 1 1-1 1h-1-1l-1-1v-1zm-1 2h1l1 2h-2v-2zm-2-5l-1 2h-2V54c1 0 3 2 3 9zm-3 3h2l2 2v2h-4v-4zm5 5h2v4l-2-4zm3 4v-4h2l-2 4zm4-5l-1-2 3-2h1v4h-3z"/><path class="st0" d="M34 26v102"/><path class="st2" d="M43 109v-7-1h3l2 1 1 1-1 2-2 1h-2v3h-1zm3-4l2-1-1-2h-3v3h2zm3 4l3-7v-1h1l1 1 2 7h-1l-1-2h-3l-1 2h-1zm2-3h3l-1-4-2 4zm8 3l-1-1-1-1h2v1h3v-1-1h-1l-1-1h-1l-1-1v-1-1l1-1h3l1 1v1h-1l-1-1h-2v2l2 1h1l1 1v1l-1 1-2 1h-1zm7 0l-1-1v-1h1v1h3l1-1-1-1c-1 0 0 0 0 0l-2-1h-1l-1-1v-1-1l1-1h3l1 1v1h-1v-1h-1-2v2h1l1 1h2v1l1 1-1 1-2 1h-2zm7 0v-7-1h3l2 1v3l-2 1h-2v3h-1zm3-4l1-1v-2h-3v3h2zm5 3l-1-2v-2l1-2 2-1 2 1 1 2v2l-1 2-2 1-2-1zm3 0l1-2v-2l-1-1-1-1-1 1-1 1v2l1 2h2zm4 1v-8h3l2 1 1 1v2l-2 1 2 2v1h-1l-2-3h-2v3h-1zm3-4l2-2-2-1h-2v3h2zm7 4v-7h-3v-1h6v1h-2v7h-1z"/></svg>