<svg id="Layer_1" xmlns="http://www.w3.org/2000/svg" viewBox="0 0 140 140"><style>.st0{fill:none;stroke:#777;stroke-miterlimit:10}.st2{fill:none;stroke:#ffd274;stroke-linecap:round;stroke-linejoin:round}</style><path class="st0" d="M119 123H13l-3-3V34c0-2 2-3 3-3h106c2 0 3 1 3 3v86c0 1-1 3-3 3z"/><path d="M127 92H79c-2 0-3-2-3-3V67c0-1 1-3 3-3h48c2 0 3 2 3 3v22c0 1-1 3-3 3z" fill="#ffd274"/><path class="st0" d="M89 84a6 6 0 1 1 6-6c0 3-3 6-6 6zM10 36v-5c0-2 2-4 4-4l96-10c3 0 5 2 5 4v10"/><path class="st2" d="M11 40h3"/><path d="M18 40h92" stroke-dasharray="5.2068,4.1655" fill="none" stroke="#ffd274" stroke-linecap="round" stroke-linejoin="round"/><path class="st2" d="M112 40h2v3"/><path d="M114 47v63" stroke-dasharray="5.1935,4.1548" fill="none" stroke="#ffd274" stroke-linecap="round" stroke-linejoin="round"/><path class="st2" d="M114 112v3h-2"/><path d="M108 115H18" stroke-dasharray="5.0794,4.0636" fill="none" stroke="#ffd274" stroke-linecap="round" stroke-linejoin="round"/><path class="st2" d="M16 115h-2"/></svg>