<svg id="Layer_1" xmlns="http://www.w3.org/2000/svg" viewBox="0 0 140 140"><style>.st1{fill:none;stroke:#777;stroke-linecap:round;stroke-linejoin:round}</style><path d="M96 127H44c-4 0-6-3-6-6v-15h64v15c0 3-3 6-6 6zm0-114H44c-4 0-6 2-6 6v10h64V19c0-3-3-6-6-6z" fill="#ffd274"/><circle class="st1" cx="70" cy="117" r="6"/><circle class="st1" cx="70" cy="60" r="16"/><path class="st1" d="M96 127H44c-4 0-6-3-6-6V19c0-3 2-6 6-6h52c3 0 6 3 6 6v102c0 3-3 6-6 6zM64 21h13m-17 0h1"/><path d="M77 53l-9 13-5-5" stroke-miterlimit="10" fill="none" stroke="#777" stroke-linecap="round" stroke-linejoin="round"/><path d="M46 93l-1-1v-1h1l1 1h3v-1-1l-2-1h-1v-1h2l1-1-1-1h-2l-1 1h-1l1-2h4l1 1v2l-1 1 1 1v2l-1 1h-4zm7 0h-1l3-8h2l3 8h-1l-1-1h-4l-1 1zm2-3h3l-2-4-1 4zm13-5v8h-1v-3h-2l-2 3h-1l2-3-2-1v-1-2l1-1h5zm-1 1h-3l-1 2 2 1h2v-3zm4 7h-1v-8h4l2 1 1 1-1 1v2l1 1-1 1v1h-5zm3-5h1v-1-1h-3v2h2zm0 4h1l1-1-1-1-1-1h-2v3h2zm11 1h-1l-2-4h-2v4h-1v-8h1v4h2l2-4h1l-2 4 2 4zm2 0l3-8h1l3 8h-1l-1-1h-4v1h-1zm2-3h3l-2-4-1 4z" fill="#777"/></svg>