<svg id="Layer_1" xmlns="http://www.w3.org/2000/svg" viewBox="0 0 140 140"><style>.st0{fill:#ffd274}.st1{fill:none}.st2{fill:#777}</style><path class="st0" d="M69 132h-1c-1 1-2 0-2-1l-4-6v-2l2-1h2l4 7c1 1 0 2-1 3z"/><path class="st1" d="M94 95c-2 0-4 1-4 3v15l18-18v-1H94zm-42 24c-5 0-10-2-13-7h-7v7c0 1 1 2 3 2h28l-3-4c-2 2-5 2-8 2z"/><path class="st1" d="M108 95v1l-17 16-1 1H66l-5 4 3 4h1l2 1h44l2-3V21l-2-2h-3v76z"/><path class="st2" d="M63 122v-1H35c-2 1-3-1-3-2v-6h-1v6c0 2 2 4 4 4h27l1-1zm48-104h-3v1h3l2 2v98l-2 3H66h45c1 1 3-1 3-3V21c0-2-2-3-3-3zm-72 94h-7v1h7v-1z"/><path class="st2" d="M90 112H66v1h25-1v-1zm-61 0c-2 0-3-1-3-3V11c0-2 1-3 3-3h76c1 0 3 1 3 3v7-7c0-2-2-3-3-3H29c-2 0-4 1-4 3v98c0 2 2 4 4 4h2v-1h-2zm79-17V19v76zm-17 17l17-16v-1l-17 17z"/><path class="st2" d="M108 18v1zm-77 94h1v1h-1zm-2 0c-2 0-3-2-3-3V11c0-1 1-2 3-2h76l2 2v7h1v-7c0-2-2-3-3-3H29c-2 0-3 1-3 3v98c0 2 1 3 3 3h2-2zm9 0h-6 6zm28 0h24-24zm41-93h1v76h-1z"/><path class="st2" d="M31 112h1-1zm76-94h1v1h-1zm-47 98h1v1l5-4h-2l-4 3zm0 0c-3 2-8 3-12 2-3-1-6-3-8-6h-1a17 17 0 0 0 21 5v-1zm-21-5a16 16 0 0 1 27-16c3 5 2 12-1 16h1c3-5 4-11 1-16-3-4-6-7-10-8-5-1-9-1-13 1a16 16 0 0 0-6 23h1zm5-22zm-4 23h-1v1h1v-1zm25 0l-1 1h2v-1h-1zm-26 0h-1 1zm26 0h1-1zM63 121l-2-4h-1l3 4zm-1 0l1 1v-1z"/><path class="st2" d="M60 116v1h1l-1-1zm3 5h0zm3 1l4 7v2h-1l-1 1h-1l-1-1-4-7 1-2h-1v3l4 7 1 1h2l1-1 1-1v-2l-4-7h-1z"/><path class="st2" d="M66 122h-2 1l1 1h1v-1l-1-1zm-3 0l-1 1h1v-1zm0 0h1l-1-1z"/><path class="st2" d="M63 122h1v-1h-1v1z"/><path d="M94 96c-2 0-3 1-3 2v13l15-16H94z" fill="#fff"/><path class="st2" d="M92 112l15-16-16 16zm2-17h13-13c-2 0-4 1-4 3v14h1V98c0-2 1-3 3-3zm14 1v-1-1 2zm-17 16h-1v1l1-1zm16-16h1v-1zm-16 16h1zm16-17h1-1zm-16 17h-1 1z"/><path class="st2" d="M107 96v-1H94c-2 0-3 1-3 3v14l16-16zm-16 2c0-1 1-2 3-2h12l-15 15V98zm17-3h-1v1zm-17 17z"/><path class="st0" d="M81 24H53l-1-1 1-1h28l1 1-1 1zm18 10H35l-1-1 1-1h64l1 1-1 1zm0 12H35l-1-1 1-1h64l1 1-1 1zm0 6H35l-1-1 1-1h64l1 1-1 1zm0-12H35l-1-1 1-1h64l1 1-1 1zm0 19H35l-1-1 1-1h64l1 1-1 1zm0 6H35l-1-1 1-1h64l1 1-1 1zM52 90c8 0 14 6 14 13s-6 14-14 14-13-6-13-14 6-13 13-13m0-2c-8 0-15 7-15 15s7 16 15 16 16-7 16-16-7-15-16-15z"/><path d="M48 95l-4 4m4-1l-4 4" fill="none" stroke="#777" stroke-linecap="round" stroke-linejoin="round"/></svg>