<svg id="Layer_1" xmlns="http://www.w3.org/2000/svg" viewBox="0 0 140 140"><style>.st1{fill:#fff}.st2{fill:#777}</style><path d="M111 127H35c-2 0-3-1-3-3V26c0-2 1-3 3-3h76c1 0 3 1 3 3v98c0 2-2 3-3 3z" fill="none" stroke="#777" stroke-miterlimit="10"/><path class="st1" d="M94 100h13V16l-2-2H29c-2 0-3 1-3 2v98c0 1 1 3 3 3h61v-14c0-2 2-3 4-3z"/><path class="st2" d="M105 13H29c-2 0-4 1-4 3v98c0 2 2 4 4 4h62-1v-1H29c-2 0-3-1-3-3V16c0-2 1-3 3-3h76c1 0 3 1 3 3v85l-17 16-1 1 18-18V16c0-2-2-3-3-3z"/><path class="st2" d="M90 117H29c-2 0-3-2-3-3V16c0-1 1-2 3-2h76l2 2v84h1V16c0-2-2-3-3-3H29c-2 0-3 1-3 3v98c0 2 1 3 3 3h61z"/><path class="st1" d="M94 101c-2 0-3 1-3 2v13l15-16H94z"/><path class="st2" d="M92 117l15-16-16 16zm2-17h13-13c-2 0-4 1-4 3v14h1v-14c0-2 1-3 3-3zm14 1v-1-1 2zm-17 16h-1v1l1-1zm16-16h1v-1zm-16 16h1zm16-17h1-1zm-16 17h-1 1z"/><path class="st2" d="M107 101v-1H94c-2 0-3 1-3 3v14l16-16zm-16 2c0-1 1-2 3-2h12l-15 15v-13zm17-3h-1v1zm-17 17z"/><path d="M98 62H36c-2 0-2-1-2-2V26c0-1 0-2 2-2h62l2 2v34l-2 2z" fill="#ffd274"/></svg>