<svg version="1" xmlns="http://www.w3.org/2000/svg" width="198" height="198"><path fill="#FFF" stroke="#000" stroke-miterlimit="10" d="M173 161H26c-2 0-4-2-4-4V35c0-2 2-4 4-4h147c3 0 4 2 4 4v122c0 2-1 4-4 4z"/><path fill="none" stroke="#000" stroke-miterlimit="10" d="M173 170H26c-2 0-4-2-4-5V44c0-3 2-5 4-5h147c3 0 4 2 4 5v121c0 3-1 5-4 5z"/><path fill="#FFD274" d="M177 68H22V35c0-2 2-4 5-4h146c2 0 4 2 4 4v33z"/><path fill="none" stroke="#000" stroke-miterlimit="10" d="M139 58a8 8 0 1 1 0-16 8 8 0 0 1 0 16zm-80 0a8 8 0 1 1 0-16 8 8 0 0 1 0 16z"/><path d="M61 113c0-12 5-22 15-22 11 0 15 10 15 22 0 13-4 23-15 23-10 0-15-10-15-23zm30 0c0-12-5-22-15-22s-14 10-14 22c0 13 4 23 14 23s15-10 15-23zM116 101c0 6-4 11-9 11s-9-5-9-11 4-10 9-10 9 4 9 10zm-17 0c0 6 3 10 8 10s8-4 8-10c0-5-3-10-8-10s-8 5-8 10zm7 35l23-45h1l-24 45zm31-11c0 6-3 11-8 11s-9-5-9-11 4-10 9-10 8 4 8 10zm-16 0c0 6 3 11 8 11s8-5 8-11c0-5-3-10-8-10s-8 5-8 10z"/></svg>