<svg version="1" xmlns="http://www.w3.org/2000/svg" width="198" height="198"><path fill="#FFF" stroke="#000" stroke-miterlimit="10" d="M173 161H26c-2 0-4-2-4-4V35c0-2 2-4 4-4h147c3 0 4 2 4 4v122c0 2-1 4-4 4z"/><path fill="none" stroke="#000" stroke-miterlimit="10" d="M173 170H26c-2 0-4-2-4-5V44c0-3 2-5 4-5h147c3 0 4 2 4 5v121c0 3-1 5-4 5z"/><path fill="#FFD274" d="M177 68H22V35c0-2 2-4 5-4h146c2 0 4 2 4 4v33z"/><path fill="none" stroke="#000" stroke-miterlimit="10" d="M139 58a8 8 0 1 1 0-16 8 8 0 0 1 0 16zm-80 0a8 8 0 1 1 0-16 8 8 0 0 1 0 16z"/><path d="M96 133V92l-7 4-1-1 8-4v42zM74 97c0 4-2 6-5 6s-5-2-5-6 2-6 5-6 5 2 5 6zm-9 0c0 3 2 5 4 5 3 0 5-2 5-5 0-2-2-5-5-5s-4 3-4 5zM78 92h-4v-1h9v1h-4v11h-1V92z"/><g><path d="M115 122v11h1l-1 3v-3h-8v3h-1v-3h1l1-3 1-5v-3h6zm-5 3l-1 5-1 3h6v-10h-4v2zM118 122v5h7v-5h1v11h-1v-5h-7v5-11zM127 133h1l1-4 1-1c-1 0-2-1-2-3l1-2 3-1h2v11h-1v-5h-1l-2 1-2 4h-1zm6-10h-1c-2 0-3 0-3 2s1 3 3 3h1v-5z"/></g></svg>