<?xml version="1.0" encoding="utf-8"?>
<!-- Generator: Adobe Illustrator 16.0.0, SVG Export Plug-In . SVG Version: 6.00 Build 0)  -->
<svg version="1.2" baseProfile="tiny" id="Слой_1"
	 xmlns="http://www.w3.org/2000/svg" xmlns:xlink="http://www.w3.org/1999/xlink" x="0px" y="0px" width="256px" height="128px"
	 viewBox="0 0 256 128" xml:space="preserve">
<g>
	<path fill-rule="evenodd" fill="#EC4949" d="M55.567,24.934c1.551,0.821,1.634,2.727,1.781,4.264
		c0.012,0.12,0.147,0.937-0.019,1.007c-1.479,0.62-0.908,1.94-0.983,3.002c-0.471,6.638-0.861,13.282-1.359,19.918
		c-0.784,10.465-1.632,20.925-2.453,31.387c-15.41-0.813-28.383-7.147-39.684-17.378c-1.385-1.254-0.588-1.819,0.256-2.659
		c2.666-2.647,5.331-5.296,7.996-7.945c2.654-2.637,5.307-5.275,7.959-7.913c2.659-2.645,5.317-5.289,7.977-7.933
		c2.654-2.638,14.832-14.805,15.294-15.256c0.604-0.59,1.184-0.783,2.023-0.783C54.822,24.646,55.224,24.751,55.567,24.934z
		 M29.907,62.873c-0.435-1.041,0.526-2.803-0.696-3.342c-1.258-0.556-1.924,1.209-2.812,1.98c-0.776,0.675-1.422,1.515-2.049,2.341
		c-0.762,1.003-0.874,2.126-0.18,3.207c0.661,1.027,1.637,1.647,2.893,1.463c1.371-0.201,2.267-1.085,2.548-2.42
		C29.822,65.095,29.809,64.04,29.907,62.873z M46.706,46.282c-1.989,1.485-3.584,3.08-4.928,4.923
		c-0.824,1.131-0.852,2.344,0.005,3.488c0.673,0.901,1.625,1.392,2.729,1.175c1.321-0.26,2.188-1.032,2.458-2.489
		C47.397,51.079,47.184,48.835,46.706,46.282z M50.686,67.219c-2.043,2.012-3.704,3.501-5.18,5.153
		c-0.914,1.024-0.813,2.319-0.02,3.452c0.735,1.05,1.828,1.354,3.026,1.068c1.365-0.326,2.131-1.27,2.162-2.675
		C50.72,72.089,50.686,69.958,50.686,67.219z"/>
	<path fill-rule="evenodd" fill="#34A562" d="M0.934,77.543c0.426-0.993,1.18-1.894,1.854-2.698
		c1.762-2.103,3.902-3.844,5.763-5.852c1.455-1.569,1.981,0.313,2.583,0.865c9.375,8.597,20.266,14.215,32.699,16.831
		c2.242,0.471,4.531,0.72,6.798,1.071c1.177,0.625,1.261,1.66,1.313,2.875c0.18,4.267-1.102,8.446-0.667,12.717
		c-1.469,0-5.16-0.566-5.663-0.642c-9.199-1.396-17.977-4.177-26.289-8.365c-3.277-1.652-6.484-3.479-9.495-5.58
		c-1.475-1.029-2.904-2.124-4.245-3.322C3.517,83.593-0.489,80.861,0.934,77.543z"/>
	<path fill-rule="evenodd" fill="#63BE8A" d="M51.277,103.353c-0.435-4.271,0.847-8.45,0.667-12.717
		c-0.052-1.215-0.136-2.25-1.313-2.875c0.398,0.211,5.264,0.172,5.828,0.639c1.703,1.41,1.624,3.721,1.518,5.706
		c-0.163,3.032-0.481,6.728-3.235,8.604C53.707,103.415,52.473,103.353,51.277,103.353z"/>
	<path fill-rule="evenodd" fill="#F58384" d="M52.535,84.512c0.82-10.462,1.668-20.922,2.453-31.387
		c0.498-6.636,0.888-13.28,1.359-19.918c0.076-1.062-0.495-2.382,0.983-3.002c0.079,5.131,0.213,10.262,0.227,15.394
		c0.032,11.853,0.018,23.706-0.005,35.559C57.542,85.504,57.024,85.826,52.535,84.512z"/>
	<path fill-rule="evenodd" fill="#353535" d="M29.907,62.873c-0.098,1.167-0.085,2.222-0.296,3.229
		c-0.281,1.335-1.177,2.219-2.548,2.42c-1.256,0.185-2.232-0.436-2.893-1.463c-0.694-1.08-0.582-2.204,0.18-3.207
		c0.627-0.826,1.273-1.666,2.049-2.341c0.888-0.771,1.554-2.537,2.812-1.98C30.433,60.07,29.472,61.832,29.907,62.873z"/>
	<path fill-rule="evenodd" fill="#353535" d="M46.706,46.282c0.478,2.554,0.691,4.797,0.264,7.098
		c-0.27,1.457-1.137,2.229-2.458,2.489c-1.104,0.216-2.056-0.274-2.729-1.175c-0.857-1.145-0.829-2.357-0.005-3.488
		C43.122,49.362,44.717,47.767,46.706,46.282z"/>
	<path fill-rule="evenodd" fill="#343333" d="M50.686,67.219c0,2.739,0.034,4.87-0.012,6.999c-0.031,1.405-0.796,2.349-2.162,2.675
		c-1.198,0.286-2.291-0.019-3.026-1.068c-0.793-1.133-0.894-2.428,0.02-3.452C46.982,70.72,48.643,69.23,50.686,67.219z"/>
	<path fill="none" d="M201.956,70.79c-0.477,1.335-0.166,1.88,1.347,1.846c3.329-0.077,6.661-0.023,10.37-0.023
		c-2.03-5.784-3.955-11.267-6.152-17.53C205.479,60.853,203.732,65.825,201.956,70.79z"/>
	<path fill="#1C1C1C" d="M254.829,50.713c-0.076-0.046-0.161-0.088-0.261-0.125c-0.604-0.229-1.285-0.273-1.923-0.19
		c-0.325,0.043-1.589,0.268-1.612,0.74c-0.447,9-0.223,18.005-0.108,27.009c-0.165,0.065-0.326,0.154-0.497,0.185
		c-0.061,0.01-0.174-0.106-0.217-0.188c-3.233-6.088-12.194-23.096-13.631-25.396c-1.43-2.292-3.814-2.576-6.187-2.099
		c-2.442,0.492-1.567,2.638-1.578,4.154c-0.062,9.425,0.039,18.85-0.08,28.274c-0.029,2.37,0.916,2.906,2.99,2.663
		c1.965-0.23,1.517-1.662,1.519-2.842c0.019-8.608,0.011-17.218,0.011-25.826c0.936,0.692,1.374,1.479,1.799,2.272
		c4.192,7.831,8.34,15.688,12.593,23.485c0.651,1.194,1.574,2.36,2.913,2.794c1.163,0.377,2.674,0.188,3.666-0.555
		c1.014-0.76,1.163-1.979,1.137-3.159c-0.015-0.638-0.074-3.383-0.072-4.117c0.005-2.246,0.027-22.471,0.013-23.595
		C255.295,53.644,255.458,51.104,254.829,50.713z"/>
	<path fill="#1C1C1C" d="M222.428,83.308c-3.691-10.214-7.441-20.406-11.146-30.615c-0.627-1.727-1.757-2.311-3.568-2.287
		c-1.788,0.022-2.863,0.467-3.518,2.32c-3.583,10.143-7.295,20.239-10.951,30.356c-0.306,0.844-0.993,2.055,0.145,2.443
		c1.073,0.366,2.544,0.998,3.541-0.701c0.47-0.8,0.9-1.571,1.219-2.443c0.746-2.048,1.572-4.065,2.367-6.097
		c4.609-0.014,9.219-0.027,13.828-0.041c1.27,0.701,1.246,2.122,1.729,3.234c0.705,1.624,1.152,3.358,1.819,5.003
		c0.838,2.064,2.665,1.364,4.086,1.116C223.462,85.341,222.708,84.082,222.428,83.308z M201.956,70.79
		c1.776-4.965,3.523-9.938,5.564-15.708c2.197,6.264,4.122,11.746,6.152,17.53c-3.709,0-7.041-0.054-10.37,0.023
		C201.79,72.67,201.479,72.125,201.956,70.79z"/>
	<g>
		<path fill="#292929" d="M112.063,50.481c-3.245-0.283-5.271,0.796-6.517,4.003c-3.131,8.06-6.538,16.012-10.063,24.562
			c-1.829-4.569-3.42-8.524-4.995-12.486c-1.775-4.466-3.517-8.947-5.309-13.407c-1.305-3.248-4.171-2.664-6.732-2.55
			c-1.517,0.068-2.01,1.193-2.006,2.663c0.028,10.171,0.037,20.342-0.009,30.513c-0.007,1.58,0.766,2.017,2.119,1.996
			c1.345-0.019,2.503-0.14,2.485-1.991c-0.092-9.222-0.128-18.443-0.184-27.665c0.095-0.201,0.105-0.406,0.029-0.615
			c1.447,0.342,1.362,1.747,1.745,2.72c3.28,8.347,6.486,16.725,9.686,25.103c0.508,1.329,1.021,2.408,2.754,2.495
			c1.709,0.086,2.374-0.778,2.926-2.17c1.954-4.926,3.98-9.822,5.984-14.728c1.816-4.446,3.639-8.892,5.458-13.338
			c0.617,8.22,0.581,16.257,0.646,24.293c0.014,1.728-0.479,3.523,0.395,5.195l0.006,0.01c1.723,0.795,3.914,1.895,3.969-1.255
			c0.182-10.272,0.059-20.551,0.069-30.828C114.52,51.321,113.777,50.63,112.063,50.481z"/>
		<path fill="#292929" d="M127.45,50.581c-1.045-0.022-2.194-0.632-3.029,0.536c-0.04,0.202-0.08,0.403-0.12,0.604
			c0.002,10.914,0.004,21.828,0.006,32.742c-0.017,0.071-0.061,0.15-0.044,0.214c0.034,0.134,0.1,0.258,0.153,0.387
			c0.839,1.154,1.972,0.642,3.033,0.531c1.601-0.216,1.196-1.474,1.198-2.435c0.021-10.054,0.021-20.107,0.002-30.161
			C128.646,52.038,129.069,50.779,127.45,50.581z"/>
		<path fill="#292929" d="M153.502,81.576c-3.643-0.038-7.301,0.37-10.928-0.249c0.009-9.305,0.026-18.607,0.021-27.912
			c-0.002-3.244-0.79-3.654-4.251-2.292c-0.043,0.195-0.084,0.39-0.126,0.585c-0.142,10.911-0.316,21.822,0.089,32.731
			c0.583,1.375,1.827,1.17,2.936,1.177c4.076,0.025,8.151-0.024,12.226,0.028c1.5,0.019,2.812-0.097,2.781-2.013
			C156.223,81.834,155.071,81.591,153.502,81.576z"/>
	</g>
	<path fill="#292929" d="M189.228,63.034c-0.066-0.419-0.143-0.835-0.228-1.25c-0.616-2.979-1.833-6.031-4.071-8.167
		c-0.682-0.649-1.464-1.212-2.298-1.65c-1.113-0.584-2.389-1.075-3.614-1.359c-6.594-1.526-12.873-0.781-17.361,4.987
		c-4.019,5.165-3.902,11.383-3.236,17.437c0.906,8.228,5.843,12.543,14.219,13.079c7.989,0.512,13.924-3.654,15.979-11.243
		C189.655,71.034,189.854,66.96,189.228,63.034z M184.973,69.287c-0.096,2.213-0.457,4.455-1.311,6.485
		c-1.948,4.634-5.486,6.674-11.076,6.281c-4.56-0.319-7.504-2.897-8.615-7.699c-0.957-4.124-1.018-8.288,0.026-12.403
		c1.372-5.419,5.045-8.016,10.845-7.823c2.277,0.076,4.87,0.874,6.516,2.492c2.885,2.836,3.62,7.3,3.642,11.174
		C185.003,68.289,184.995,68.787,184.973,69.287z"/>
</g>
</svg>
