<?xml version="1.0" encoding="utf-8"?>
<!-- Generator: Adobe Illustrator 21.1.0, SVG Export Plug-In . SVG Version: 6.00 Build 0)  -->
<svg version="1.1" id="Layer_1" xmlns="http://www.w3.org/2000/svg" xmlns:xlink="http://www.w3.org/1999/xlink" x="0px" y="0px"
	 viewBox="0 0 24 24" style="enable-background:new 0 0 24 24;" xml:space="preserve">
<style type="text/css">
	.st0{fill:#ffffff;}
</style>
<g>
	<g>
		<path class="st0" d="M8.5,11c0,0.8,0,1.6,0,2.4c1.3,0,2.7,0,4,0c-0.6,3-4.6,3.9-6.7,2c-2.2-1.7-2.1-5.4,0.2-7
			c1.6-1.3,3.8-1,5.4,0.1C12,8,12.6,7.4,13.1,6.7C11.8,5.7,10.2,4.9,8.5,5c-3.6-0.1-6.9,3-7,6.6c-0.2,2.9,1.7,5.8,4.4,6.9
			c2.7,1.1,6.2,0.3,8-2.1c1.1-1.5,1.4-3.5,1.3-5.4C12.9,11,10.7,11,8.5,11z M21.5,11c0-0.7,0-1.3,0-2h-2c0,0.7,0,1.3,0,2
			c-0.7,0-1.3,0-2,0v2c0.7,0,1.3,0,2,0c0,0.7,0,1.3,0,2h2c0-0.7,0-1.3,0-2c0.7,0,1.3,0,2,0v-2C22.8,11,22.2,11,21.5,11z"/>
	</g>
</g>
</svg>
