<svg id="Layer_1" xmlns="http://www.w3.org/2000/svg" viewBox="0 0 140 140"><style>.st0{fill:#777}.st1{fill:none;stroke:#777;stroke-miterlimit:10}.st2{fill:#ffd274}.st3{fill:#fff}</style><path class="st0" d="M124 109H26c-1.9 0-3.5-1.6-3.5-3.5v-62c0-1.9 1.6-3.5 3.5-3.5h98c1.9 0 3.5 1.6 3.5 3.5v62c0 1.9-1.6 3.5-3.5 3.5zM26 41c-1.4 0-2.5 1.1-2.5 2.5v62c0 1.4 1.1 2.5 2.5 2.5h98c1.4 0 2.5-1.1 2.5-2.5v-62c0-1.4-1.1-2.5-2.5-2.5H26z"/><path class="st1" d="M49.1 99.8h-14c-1.1 0-2-.9-2-2v-12c0-1.1.9-2 2-2h14c1.1 0 2 .9 2 2v12c0 1.1-.9 2-2 2z"/><path class="st2" d="M24 53.9h102v16H24zm33.9 30.6h58.5v1.3H57.9zm0 13.9h58.5v1.3H57.9zm0-7h41.2v1.3H57.9z"/><path class="st0" d="M114.3 101h-98c-1.9 0-3.5-1.6-3.5-3.5v-62c0-1.9 1.6-3.5 3.5-3.5h98c1.9 0 3.5 1.6 3.5 3.5v62c0 1.9-1.6 3.5-3.5 3.5z"/><path class="st3" d="M16.3 33c-1.4 0-2.5 1.1-2.5 2.5v62c0 1.4 1.1 2.5 2.5 2.5h98c1.4 0 2.5-1.1 2.5-2.5v-62c0-1.4-1.1-2.5-2.5-2.5h-98z"/><path class="st1" d="M39.3 91.8h-14c-1.1 0-2-.9-2-2v-12c0-1.1.9-2 2-2h14c1.1 0 2 .9 2 2v12c0 1.1-.9 2-2 2z"/><path class="st2" d="M14.3 45.9h102v16h-102zm33.8 30.6h58.5v1.3H48.1zm0 13.9h58.5v1.3H48.1zm0-7h41.2v1.3H48.1z"/></svg>