<?xml version="1.0" encoding="utf-8"?>
<!-- Generator: Adobe Illustrator 16.0.0, SVG Export Plug-In . SVG Version: 6.00 Build 0)  -->
<svg version="1.2" baseProfile="tiny" id="Слой_1"
	 xmlns="http://www.w3.org/2000/svg" xmlns:xlink="http://www.w3.org/1999/xlink" x="0px" y="0px" width="193px" height="34px"
	 viewBox="0 0 193 34" xml:space="preserve">
<g>
	<path fill-rule="evenodd" fill="#F7B216" d="M18.231,20.354c0-0.816-0.012-1.632,0.005-2.448c0.006-0.319-0.087-0.491-0.404-0.622
		c-0.691-0.282-1.4-0.56-2.026-0.959c-1.309-0.835-1.777-2.127-1.689-3.626c0.128-2.205,1.502-3.796,3.661-4.247
		c0.384-0.08,0.459-0.255,0.456-0.597c-0.028-2.349-0.042-4.699-0.064-7.048c-0.005-0.546,0.066-0.63,0.609-0.613
		c6.074,0.193,10.831,2.793,14.082,7.929c2.496,3.942,3.22,8.25,2.104,12.817c-1.104,4.521-3.668,8.018-7.626,10.413
		c-4.162,2.521-8.655,3.097-13.33,1.734c-4.771-1.392-8.223-4.422-10.424-8.85c-1.133-2.279-1.639-4.733-1.655-7.285
		c-0.002-0.339,0.127-0.52,0.491-0.507c0.392,0.013,0.785,0.019,1.175-0.004c0.434-0.026,0.53,0.183,0.576,0.58
		c0.146,1.292,0.228,2.608,0.549,3.861c0.858,3.351,2.795,6.002,5.601,8.001c3.197,2.278,6.792,3.096,10.639,2.489
		c4.205-0.663,7.532-2.834,9.88-6.399c2.184-3.313,2.896-6.971,2.11-10.853c-0.803-3.971-2.948-7.096-6.334-9.341
		c-1.736-1.151-3.649-1.867-5.707-2.19c-0.556-0.088-0.637-0.02-0.637,0.537c0,1.567,0.022,3.134-0.008,4.701
		c-0.009,0.432,0.144,0.632,0.528,0.732c0.856,0.224,1.588,0.656,2.198,1.302c0.811,0.858,1.169,1.902,1.288,3.05
		c0.03,0.294-0.119,0.422-0.396,0.431c-0.081,0.002-0.163-0.004-0.245-0.004c-1.048-0.009-1.046-0.009-1.348-1.008
		c-0.229-0.756-0.694-1.321-1.396-1.686c-0.464-0.241-0.623-0.142-0.622,0.367c0.003,1.387,0.03,2.775-0.01,4.161
		c-0.016,0.524,0.217,0.709,0.649,0.868c0.594,0.217,1.202,0.44,1.738,0.769c1.593,0.977,2.154,2.49,1.964,4.277
		c-0.243,2.286-1.626,3.772-3.874,4.279c-0.362,0.081-0.477,0.28-0.472,0.621c0.012,0.701-0.005,1.403,0.016,2.104
		c0.014,0.42-0.153,0.603-0.573,0.582c-0.326-0.014-0.655-0.026-0.979,0c-0.406,0.033-0.517-0.166-0.512-0.522
		c0.011-0.751-0.001-1.503,0.017-2.254c0.009-0.358-0.134-0.505-0.489-0.586c-1.977-0.458-3.303-1.629-3.828-3.622
		c-0.116-0.44-0.192-0.891-0.262-1.339c-0.053-0.341,0.104-0.531,0.466-0.52c0.065,0.002,0.13,0,0.196,0
		c1-0.008,0.986-0.004,1.261,0.96c0.316,1.107,0.964,1.949,2.051,2.405c0.509,0.215,0.603,0.15,0.602-0.396
		c-0.001-0.815,0-1.631,0-2.447C18.233,20.354,18.232,20.354,18.231,20.354z M20.267,20.764c0.002,0,0.004,0,0.006,0
		c0,0.733,0.004,1.468-0.001,2.202c-0.002,0.326,0.111,0.523,0.468,0.41c1.587-0.514,2.249-1.777,2.031-3.188
		c-0.175-1.124-0.997-1.619-1.938-1.994c-0.453-0.181-0.554-0.123-0.562,0.369C20.257,19.295,20.267,20.03,20.267,20.764z
		 M18.244,12.803c-0.001,0-0.002,0-0.003,0c0-0.65-0.003-1.3,0.001-1.95c0.003-0.355-0.095-0.512-0.497-0.381
		c-1.119,0.366-1.817,1.291-1.804,2.446c0.013,1.106,0.672,1.894,1.838,2.222c0.364,0.103,0.473-0.046,0.468-0.385
		C18.236,14.104,18.244,13.454,18.244,12.803z"/>
	<path fill-rule="evenodd" d="M87.021,25.329c-0.556,0-1.074,0-1.663,0c-0.544-3.972-1.09-7.953-1.655-12.078
		c-0.494,1.002-0.93,1.883-1.362,2.765c-1.477,3.013-2.949,6.027-4.435,9.037c-0.064,0.128-0.271,0.296-0.373,0.274
		c-0.148-0.033-0.309-0.199-0.384-0.348c-1.838-3.688-3.666-7.382-5.496-11.075c-0.085-0.17-0.18-0.335-0.337-0.627
		c-0.554,4.094-1.088,8.054-1.628,12.041c-0.542,0-1.073,0-1.63,0c0.239-1.701,0.474-3.393,0.713-5.084
		c0.475-3.356,0.952-6.711,1.429-10.067c0.059-0.419,0.114-0.84,0.19-1.257c0.026-0.139,0.112-0.267,0.17-0.4
		c0.109,0.099,0.259,0.178,0.321,0.301c0.531,1.047,1.046,2.101,1.566,3.152c1.645,3.33,3.29,6.658,4.936,9.987
		c0.041,0.083,0.095,0.16,0.184,0.304c0.53-1.077,1.031-2.093,1.527-3.11c1.676-3.44,3.348-6.883,5.032-10.32
		c0.065-0.131,0.236-0.211,0.356-0.315c0.068,0.131,0.18,0.258,0.199,0.396c0.604,4.227,1.198,8.455,1.796,12.683
		C86.655,22.826,86.838,24.065,87.021,25.329z"/>
	<path fill-rule="evenodd" fill="#F7B216" d="M161.813,8.491c2.75,0.095,5.482-0.217,8.17,0.394c3.049,0.693,5.33,3.155,5.813,6.267
		c0.307,1.98,0.244,3.929-0.592,5.788c-1.145,2.544-3.105,4.073-5.883,4.282c-2.48,0.187-4.98,0.127-7.508,0.178
		C161.813,19.735,161.813,14.149,161.813,8.491z M163.447,23.651c0.084,0.015,0.146,0.034,0.207,0.032
		c1.793-0.064,3.59-0.046,5.369-0.223c2.064-0.207,3.623-1.284,4.537-3.187c0.66-1.377,0.799-2.835,0.574-4.335
		c-0.355-2.383-1.537-4.149-3.82-5.079c-1.24-0.507-2.561-0.583-3.879-0.625c-0.986-0.031-1.975-0.006-2.988-0.006
		C163.447,14.712,163.447,19.173,163.447,23.651z"/>
	<path fill-rule="evenodd" d="M94.707,25.313c0-5.588,0-11.163,0-16.913c0.261,0.168,0.487,0.252,0.627,0.412
		c1.836,2.099,3.662,4.208,5.488,6.315c1.729,1.996,3.459,3.995,5.188,5.992c0.041,0.047,0.097,0.081,0.217,0.183
		c0-4.295,0-8.52,0-12.771c0.575,0,1.094,0,1.65,0c0,5.591,0,11.192,0,16.94c-0.252-0.164-0.474-0.249-0.611-0.41
		c-3.489-3.989-6.97-7.986-10.453-11.982c-0.093-0.106-0.191-0.208-0.358-0.392c0,4.26,0,8.424,0,12.626
		C95.846,25.313,95.288,25.313,94.707,25.313z"/>
	<path fill-rule="evenodd" fill="#F7B216" d="M146.893,25.351c-0.736,0-1.354,0.026-1.967-0.02
		c-0.162-0.011-0.342-0.213-0.461-0.367c-1.797-2.318-3.602-4.631-5.359-6.977c-0.367-0.491-0.771-0.483-1.303-0.432
		c0,2.594,0,5.166,0,7.766c-0.572,0-1.104,0-1.66,0c0-5.598,0-11.183,0-16.816c1.52,0,3.02-0.022,4.514,0.008
		c0.828,0.017,1.664,0.063,2.48,0.194c2.057,0.33,3.436,2.046,3.496,4.142c0.078,2.549-1.58,4.301-4.15,4.571
		c-0.5,0.053-1.002,0.09-1.594,0.142C142.877,20.141,144.846,22.696,146.893,25.351z M137.826,10.103c0,1.995,0,3.857,0,5.731
		c1.303,0,2.574,0.024,3.842-0.013c0.48-0.014,0.971-0.122,1.43-0.275c1.166-0.389,1.832-1.513,1.748-2.852
		c-0.07-1.088-0.92-2.178-2.045-2.305C141.162,10.204,139.502,10.191,137.826,10.103z"/>
	<path fill-rule="evenodd" fill="#F7B216" d="M133.271,11.643c-0.527,0.404-0.965,0.739-1.287,0.986
		c-0.912-0.694-1.699-1.485-2.645-1.982c-4.093-2.152-9.418-0.12-10.597,4.429c-1.078,4.165,1.576,8.261,5.817,8.886
		c2.764,0.407,5.156-0.351,7.078-2.432c0.055-0.06,0.096-0.132,0.168-0.237c0.48,0.358,0.916,0.686,1.381,1.034
		c-0.91,1.227-2.057,2.111-3.434,2.663c-2.725,1.093-5.507,1.156-8.151-0.111c-3.458-1.655-4.97-4.599-4.874-8.371
		c0.108-4.347,3.248-7.737,7.652-8.31c2.564-0.333,4.971,0.095,7.061,1.703C132.092,10.402,132.641,11.036,133.271,11.643z"/>
	<path fill-rule="evenodd" d="M49.048,16.893c-0.033-1.749,0.034-3.492,0.687-5.146c0.71-1.801,1.902-3.123,3.868-3.529
		c2.211-0.458,4.235,0.457,5.46,2.374c0.783,1.223,1.157,2.579,1.301,4.004c0.223,2.201,0.227,4.397-0.357,6.551
		c-0.388,1.428-1.083,2.693-2.3,3.599c-2.565,1.902-6.058,1.057-7.586-1.812c-0.722-1.357-0.97-2.825-1.066-4.33
		C49.017,18.035,49.048,17.463,49.048,16.893z M50.487,16.899c0.046,0.006,0.092,0.012,0.139,0.019c0,0.424-0.023,0.849,0.003,1.271
		c0.087,1.387,0.224,2.762,0.965,3.992c1.253,2.081,3.689,2.505,5.463,0.939c0.669-0.593,1.038-1.371,1.295-2.205
		c0.606-1.966,0.652-3.975,0.434-5.999c-0.131-1.226-0.431-2.405-1.123-3.45c-1.228-1.856-3.489-2.227-5.173-0.846
		c-0.771,0.633-1.277,1.468-1.464,2.425C50.779,14.317,50.661,15.614,50.487,16.899z"/>
	<path fill-rule="evenodd" fill="#F7B216" d="M151.469,23.68c2.609,0,5.211,0,7.842,0c0,0.56,0,1.075,0,1.631
		c-3.158,0-6.33,0-9.543,0c0-5.567,0-11.153,0-16.772c3.18,0,6.369,0,9.596,0c0,0.52,0,1.048,0,1.63c-2.623,0-5.242,0-7.9,0
		c0,1.773,0,3.492,0,5.276c2.604,0,5.217,0,7.854,0c0,0.58,0,1.096,0,1.667c-2.6,0-5.199,0-7.848,0
		C151.469,19.321,151.469,21.478,151.469,23.68z"/>
	<path fill-rule="evenodd" fill="#F7B216" d="M185.604,10.198c-1.264,0-2.465,0-3.707,0c0-0.564,0-1.093,0-1.658
		c3.041,0,6.096,0,9.174,0c0,0.532,0,1.048,0,1.621c-1.213,0-2.428,0-3.701,0c0,5.084,0,10.113,0,15.167c-0.609,0-1.158,0-1.766,0
		C185.604,20.294,185.604,15.264,185.604,10.198z"/>
	<path fill-rule="evenodd" d="M45.291,25.329c-0.551,0-1.067,0-1.631,0c0-5.038,0-10.056,0-15.127c-0.884,0-1.725,0-2.671,0
		c0.347-0.581,0.636-1.082,0.946-1.57c0.047-0.074,0.191-0.121,0.29-0.123c1.01-0.008,2.02-0.005,3.066-0.005
		C45.291,14.116,45.291,19.702,45.291,25.329z"/>
	<path fill-rule="evenodd" d="M89.662,8.517c0.559,0,1.079,0,1.64,0c0,5.599,0,11.186,0,16.804c-0.537,0-1.068,0-1.64,0
		C89.662,19.739,89.662,14.152,89.662,8.517z"/>
	<path fill-rule="evenodd" fill="#F7B216" d="M178.48,8.526c0.576,0,1.123,0,1.697,0c0,5.606,0,11.19,0,16.801
		c-0.566,0-1.115,0-1.697,0C178.48,19.741,178.48,14.156,178.48,8.526z"/>
	<path fill-rule="evenodd" d="M12.448,2.086c0.001-0.745,0.6-1.333,1.348-1.326c0.702,0.007,1.281,0.624,1.267,1.352
		c-0.012,0.682-0.635,1.298-1.295,1.282C13.046,3.377,12.446,2.783,12.448,2.086z"/>
	<path fill-rule="evenodd" d="M6.286,5.87C6.284,5.146,6.881,4.532,7.575,4.544c0.705,0.012,1.307,0.612,1.323,1.317
		c0.016,0.69-0.596,1.308-1.306,1.315C6.882,7.185,6.288,6.59,6.286,5.87z"/>
	<path fill-rule="evenodd" d="M5.088,11.99c0.019,0.688-0.543,1.287-1.236,1.317c-0.72,0.032-1.329-0.546-1.338-1.268
		c-0.009-0.785,0.533-1.39,1.289-1.363C4.392,10.696,5.11,11.087,5.088,11.99z"/>
</g>
</svg>
