<svg id="Layer_1" xmlns="http://www.w3.org/2000/svg" viewBox="0 0 56 32"><style>.st0{fill:#fff}</style><path class="st0" d="M14 18c0 .4.2.6.5.6.6 0 1-.6 1.1-1.5h-.3c-.9 0-1.3.3-1.3.9zm23.4 0c0 .4.2.6.5.6.6 0 1-.6 1.1-1.5h-.3c-.9 0-1.3.3-1.3.9zm-11.1-2.9c-.5 0-.8.4-.9 1.1H27c0-.2.1-1.1-.7-1.1zm19.8.1c-.7 0-1.2.8-1.2 2 0 .8.3 1.2.8 1.2.7 0 1.2-.8 1.2-2 0-.7-.2-1.2-.8-1.2zM36.6 1.6c-3.5 0-6.7 1.4-9.1 3.7-2.4-2.3-5.6-3.7-9.1-3.7C10.8 1.6 4.7 8 4.7 16s6.1 14.4 13.7 14.4c3.5 0 6.7-1.4 9.1-3.7 2.4 2.3 5.6 3.7 9.1 3.7 7.6 0 13.7-6.4 13.7-14.4S44.2 1.6 36.6 1.6zM10.5 19.8l.9-5.6-1.9 5.6h-1l-.1-5.6-.9 5.6H6l1.2-7.3h2.1l.1 4.5 1.4-4.5h2.3L12 19.8h-1.5zm5 0v-.6c-.4.5-.9.7-1.6.7-.8 0-1.4-.7-1.4-1.6 0-1.4 1-2.3 2.6-2.3h.6c0-.2.1-.3.1-.4 0-.4-.3-.5-1-.5s-1.3.2-1.6.3c0-.1.2-1.3.2-1.3.7-.2 1.2-.3 1.8-.3 1.3 0 2 .6 1.9 1.7 0 .3 0 .7-.1 1.2-.1.9-.4 2.7-.4 3.2-.1-.1-1.1-.1-1.1-.1zm4.3-3.6c.7.4 1 .8 1 1.7 0 1.4-.7 2-2.3 2-.9 0-1.2-.1-1.5-.2 0-.1.2-1.4.2-1.4.5.2.9.2 1.3.2.6 0 .9-.2.9-.5s-.1-.4-.7-.7c-.8-.4-1.1-.9-1.1-1.7 0-1.1.6-2 2.2-2 .3 0 .9.1 1.3.1l-.2 1.4c-.4-.1-.8-.1-1.1-.1-.5 0-.7.2-.7.5 0 .4.1.4.7.7zm3.3 2.2c.2 0 .3 0 .4-.1l-.2 1.3c-.4.1-.7.2-1.1.2-.8 0-1.2-.5-1.2-1.3 0-.3.1-1 .2-1.6.1-.6.6-4.1.6-4.1h1.5l-.2.9h.9l-.2 1.4H23c-.2 1.1-.4 2.5-.4 2.7 0 .5.1.6.5.6zm3.4.1c.5 0 1-.1 1.5-.4l-.2 1.5c-.5.2-1 .2-1.5.2-1.7 0-2.5-.9-2.5-2.6 0-2 1.1-3.5 2.6-3.5 1.2 0 2 .8 2 2.1 0 .4-.1.9-.2 1.5h-2.9c-.2.9.4 1.2 1.2 1.2zm3.3 1.3h-1.5l.1-.4c.3-1.8.6-3.7.8-5.5h1.4c0 .3-.1.6-.1.9.5-.7.8-1.1 1.4-.9-.2.3-.4 1-.6 1.7-.8-.2-.9.6-1.5 4.2zm5.7-.1c-.5.2-.9.2-1.3.2-1.6 0-2.6-1.2-2.6-3.2 0-2.6 1.4-4.4 3.3-4.4.6 0 1.4.3 1.6.4l-.2 1.6c-.5-.3-.9-.4-1.3-.4-1.1 0-1.9 1.1-1.9 2.7 0 1.1.5 1.8 1.4 1.8.4 0 .8-.1 1.3-.4l-.3 1.7zm4.6.1h-1.2v-.6c-.4.5-.9.7-1.6.7-.8 0-1.4-.7-1.4-1.6 0-1.4 1-2.3 2.6-2.3h.6c0-.2.1-.3.1-.4 0-.4-.3-.5-1-.5s-1.3.2-1.6.3c0-.1.2-1.3.2-1.3.7-.2 1.2-.3 1.8-.3 1.3 0 2 .6 1.9 1.7 0 .3 0 .7-.1 1.2 0 .8-.3 2.6-.3 3.1zm2 0h-1.5l.1-.4c.3-1.8.6-3.7.8-5.5h1.4c0 .3-.1.6-.1.9.5-.7.8-1.1 1.4-.9-.2.3-.4 1-.6 1.7-.9-.2-1 .6-1.5 4.2zm4.4 0l.1-.6c-.4.5-.8.7-1.4.7-1.1 0-1.8-1-1.8-2.5 0-2 1.1-3.6 2.4-3.6.6 0 1 .2 1.4.8l.3-2.1H49l-1.1 7.3h-1.4z"/></svg>