<svg id="Layer_1" xmlns="http://www.w3.org/2000/svg" viewBox="0 0 140 140"><style>.st0{fill:#ffd274}.st1,.st2{fill:none;stroke:#777;stroke-linecap:round;stroke-linejoin:round}.st2{stroke-miterlimit:10}.st3{fill:#777}</style><path class="st0" d="M95.6 126.8h-52c-3.3 0-6-2.7-6-6v-14.7h64v14.7c0 3.3-2.7 6-6 6zm0-114h-52c-3.3 0-6 2.7-6 6v10.5h64V18.8c0-3.3-2.7-6-6-6z"/><circle class="st1" cx="69.6" cy="117.1" r="5.7"/><circle class="st1" cx="69.6" cy="59.6" r="16"/><path class="st1" d="M95.6 126.8h-52c-3.3 0-6-2.7-6-6V19.2c0-3.3 2.7-6 6-6h52c3.3 0 6 2.7 6 6v101.6c0 3.3-2.7 6-6 6zM64.4 21.4h12.4m-16.5 0h1"/><path class="st2" d="M76.5 53l-8.4 13-5.4-4.9"/><path class="st3" d="M46.3 93.2c-.5-.2-.8-.4-1-.8-.2-.3-.4-.7-.4-1.1 0-.1 0-.1.1-.2s.1-.1.2-.1h.6c.1 0 .2 0 .2.1.1 0 .1.1.1.2.1.3.3.6.6.8s.8.3 1.3.3c.6 0 1.1-.1 1.5-.4.4-.3.6-.6.6-1.1 0-.5-.2-.8-.5-1.1-.3-.3-.8-.4-1.4-.4h-.9c-.1 0-.1 0-.2-.1s-.1-.1-.1-.2v-.4c0-.1 0-.2.1-.2s.1-.1.2-.1h.8c.5 0 .9-.1 1.2-.3.3-.2.5-.6.5-1s-.2-.7-.5-1-.7-.4-1.2-.4-.9.1-1.3.3c-.3.2-.5.5-.6.9 0 .2-.1.2-.3.2h-.6c-.1 0-.1 0-.2-.1-.1 0-.1-.1-.1-.2.1-.6.4-1.2.9-1.5.5-.4 1.2-.6 2.2-.6.6 0 1.1.1 1.6.3.4.2.8.5 1 .8.2.3.3.7.3 1.1 0 .4-.1.8-.2 1.1-.2.3-.4.6-.7.8.4.2.7.5.9.8.2.4.3.8.3 1.2 0 .5-.1.9-.4 1.3-.3.4-.6.7-1.1.9s-1 .3-1.7.3c-.9.1-1.4.1-1.8-.1zm6.3.1s-.1-.1-.1-.2V93l3-7.8c.1-.2.2-.3.4-.3h.8c.2 0 .3.1.4.3l3 7.8v.1c0 .1 0 .1-.1.2-.1 0-.1.1-.2.1h-.6c-.1 0-.1 0-.2-.1-.1 0-.1-.1-.1-.1l-.7-1.7h-4l-.7 1.7c-.1.1-.2.2-.3.2h-.6c.1-.1.1-.1 0-.1zm2.1-2.9H58l-1.6-4.3-1.7 4.3zm13-5.4c0 .1.1.1.1.2V93c0 .1 0 .1-.1.2 0 .1-.1.1-.2.1h-.6c-.1 0-.1 0-.2-.1s-.1-.1-.1-.2v-2.9H65L63.1 93c-.1.1-.1.2-.2.2-.1.1-.2.1-.3.1h-.5c-.1 0-.1 0-.2-.1s-.1-.1-.1-.2v-.1l1.9-2.9c-.6-.1-1-.4-1.3-.8-.3-.4-.5-1-.5-1.6 0-.5.1-.9.3-1.3.2-.4.5-.7.9-1s.9-.4 1.5-.4h2.7c.3 0 .4.1.4.1zm-1.1.9h-1.8c-.5 0-.9.2-1.2.5-.3.3-.4.7-.4 1.2 0 1 .6 1.6 1.7 1.6h1.8v-3.3zm4 7.4c0-.1-.1-.1-.1-.2v-7.8c0-.1 0-.2.1-.2 0-.1.1-.1.2-.1H74c.8 0 1.5.2 1.9.6.4.4.6.9.6 1.6 0 .4-.1.8-.3 1.1-.2.3-.5.5-.7.7.3.2.6.4.9.8.2.4.3.8.3 1.2 0 .4-.1.9-.3 1.2s-.4.6-.8.8c-.4.2-.9.3-1.4.3h-3.6zm3.2-4.8c.5 0 .9-.1 1.2-.4.3-.2.4-.6.4-1s-.1-.7-.4-.9c-.3-.2-.7-.3-1.2-.3h-2.2v2.6h2.2zm.2 3.9c.5 0 .9-.1 1.2-.4.3-.3.4-.6.4-1.1 0-.4-.1-.8-.4-1.1-.3-.3-.7-.4-1.2-.4h-2.4v3H74zm11.2.6c0 .1 0 .1-.1.2s-.1.1-.2.1h-.6c-.1 0-.2-.1-.3-.2l-2.3-3.6h-1.5V93c0 .1 0 .1-.1.2s-.1.1-.2.1h-.6c-.1 0-.1 0-.2-.1 0-.1-.1-.1-.1-.2v-7.8c0-.1 0-.2.1-.2 0-.1.1-.1.2-.1h.6c.1 0 .2 0 .2.1.1.1.1.1.1.2v3.3h1.4l2.1-3.4c.1-.1.2-.2.4-.2h.6c.1 0 .1 0 .2.1s.1.1.1.2c0 0 0 .1-.1.2L82.6 89l2.5 3.9c.1 0 .1.1.1.1zm1.4.3s-.1-.1-.1-.2V93l3-7.8c.1-.2.2-.3.4-.3h.8c.2 0 .3.1.4.3l3 7.8v.1c0 .1 0 .1-.1.2-.1 0-.1.1-.2.1h-.6c-.1 0-.1 0-.2-.1-.1 0-.1-.1-.1-.1l-.7-1.7h-4l-.7 1.7c-.1.1-.2.2-.3.2h-.6c.1-.1 0-.1 0-.1zm2-2.9h3.3l-1.6-4.3-1.7 4.3z"/></svg>