<?xml version="1.0" encoding="utf-8"?>
<!-- Generator: Adobe Illustrator 23.1.0, SVG Export Plug-In . SVG Version: 6.00 Build 0)  -->
<svg version="1.1" id="Layer_1" xmlns="http://www.w3.org/2000/svg" xmlns:xlink="http://www.w3.org/1999/xlink" x="0px" y="0px"
	 viewBox="0 0 571 120" style="enable-background:new 0 0 571 120;" xml:space="preserve">
<style type="text/css">
	.st0{fill:#59BBF2;}
	.st1{fill:#FDE044;}
</style>
<path class="st0" d="M171.77,97.81c-5.1,1.35-11.77,0.42-15-2.6l-4,22.71h-17.45l12.81-72.5h13.54l0.31,5.73
	c5-6.77,15.1-7.4,20.83-4.69c7.19,3.33,11.77,11.46,11.77,20.83C194.58,80.83,185.73,94.06,171.77,97.81z M158.96,82.81
	c9.27,5.31,17.92-3,17.92-13.54c0-6.15-2.92-9.48-8.65-9.48c-2.03,0.19-3.95,0.99-5.52,2.29L158.96,82.81z"/>
<path class="st0" d="M246.46,41.45h-20l-10,56.77h-18.75l12.81-72.91h57.4l-12.81,72.92h-18.65L246.46,41.45z"/>
<path class="st0" d="M291.15,99.48c-14,0-23.85-8.65-23.85-22.92c0.02-19.06,15.94-32.58,33.65-32.58c14.17,0,24,9.17,24,23.33
	C324.9,86.25,309.17,99.48,291.15,99.48z M293.03,84.17c6.25,0,13.23-4.06,14.27-14c0.83-7.6-3.12-10.62-9.17-10.62
	s-12.29,5.52-13.23,14c-0.83,7.28,3.23,10.61,8.13,10.61V84.17z"/>
<path class="st0" d="M332.72,80.41c2.68,3.21,6.76,4.92,10.93,4.57c8.12-0.31,8.33-7.5,1.35-7.5h-9.27l2.29-12.6h8
	c7.5,0,8.23-6.88,1.35-6.88c-3.54,0-6.77,0.21-10.63,2.92l-5.21-9c6.03-5.77,14.16-8.82,22.5-8.44c7.08,0.31,13.33,4.06,15.21,10.21
	c1.67,5.52-1.15,14.38-7.71,17c7.4,3.65,7.5,12.92,2.29,20c-5,6.87-13.75,9.27-21.56,9.27c-7.08,0-14.48-1.77-19.58-9.38
	L332.72,80.41z"/>
<path class="st0" d="M413.24,66.77l-7.5,10.83l-17.6,20.63h-18.13l9.31-52.82h17l-3.12,17.71l-2.81,12.5l0.31,0.1l6.25-9.58
	l16.77-20.73h19.9l-9.27,52.81h-17l3.49-19.24l2.71-12.08L413.24,66.77z"/>
<path class="st0" d="M484.18,98.23h-19.06l-9.17-19.9l-2.71,2l-3.12,17.9h-17.4l9.27-52.81h17.4l-3.33,19.06
	c1.67-3.75,6.77-8.75,8-10l8.65-9.06h19.69l-0.21,1.25l-22.28,20.51l14.48,29.8L484.18,98.23z"/>
<path class="st0" d="M517.83,98.23L517,92.92c-3.64,4.07-8.81,6.44-14.27,6.56c-11.56,0-16.46-7.5-16.46-15.52
	c0-17.29,21.88-23.75,33.75-18.23l0.31-1.67c1.35-7.4-15.1-6.46-22-2.4l-3.11-11.25c7.92-5.63,15.42-6.88,22.5-6.88
	c12.19,0,22.71,6.15,20,21.77l-5.83,32.92L517.83,98.23z M508.83,85c3.01,0.1,5.97-0.77,8.44-2.5l1-5.73c-2-1-5.31-1.35-7.5-1.35
	c-7.94-0.01-10.03,9.56-1.9,9.56L508.83,85z"/>
<path class="st0" d="M67.58,45.48l-1.34,2.33l-5.83,12H60.1l-1.46-11.83l-6.77-22.67h-20.1l-0.1,0.63l16.65,48.74
	c-2.71,5.73-4.79,8.65-9.58,8.65h-5.83l-2.59,14.9h7.6c12.49,0,18.4-4.69,22.8-11.25l25.8-41.5H67.58z"/>
<path class="st0" d="M144.68,45.48h-19.75l-8.58,9c-1.25,1.25-6.35,6.25-8,10l3.32-19H94.26L85,98.23h17.4l3.13-17.92l2.71-2
	l9.17,19.9h19.06l0.21-1.25l-14.49-29.78l22.29-20.52L144.68,45.48z"/>
<path class="st1" d="M128.32,37.98H75.74c-1.02,0-1.84-0.82-1.84-1.84c0-0.31,0.08-0.62,0.23-0.89l7.19-12.88
	c0.32-0.59,0.94-0.95,1.61-0.95h52.55c1.02,0,1.84,0.82,1.84,1.84c0,0.31-0.08,0.62-0.23,0.89l-7.17,12.9
	C129.6,37.63,128.98,37.98,128.32,37.98z"/>
<path class="st1" d="M138.78,18.37H86.23c-1.02,0-1.84-0.82-1.84-1.84c0-0.31,0.08-0.62,0.23-0.89l7.17-12.9
	c0.32-0.59,0.94-0.95,1.61-0.95h52.55c1.02,0,1.84,0.82,1.84,1.84c0,0.31-0.08,0.62-0.23,0.89l-7.17,12.9
	C140.07,18.01,139.45,18.37,138.78,18.37z"/>
</svg>
