<?xml version="1.0" encoding="utf-8"?>
<!-- Generator: Adobe Illustrator 16.0.0, SVG Export Plug-In . SVG Version: 6.00 Build 0)  -->
<svg version="1.2" baseProfile="tiny" id="Слой_1"
	 xmlns="http://www.w3.org/2000/svg" xmlns:xlink="http://www.w3.org/1999/xlink" x="0px" y="0px" width="256px" height="128px"
	 viewBox="0 0 256 128" xml:space="preserve">
<g>
	<path fill-rule="evenodd" fill="#F59725" d="M213.156,18.705c2.458,0.249,4.909,0.682,7.366,1.236
		c1.935,0.436,2.745,2.214,1.844,3.779c-0.613,1.067-1.618,1.441-3.099,1.06c-4.232-1.088-8.523-1.481-12.882-1.185
		c-8.252,0.562-15.651,3.393-22.147,8.488c-7.258,5.693-12.144,13.037-14.4,21.969c-2.161,8.553-1.625,17.038,1.789,25.214
		c4.634,11.103,12.694,18.753,23.949,22.916c5.229,1.935,10.693,2.631,16.303,2.218c7.431-0.549,14.186-2.911,20.288-7.15
		c6.556-4.557,11.394-10.535,14.391-17.931c4.268-10.527,4.061-21.065-0.327-31.504c-1.641-3.902-3.99-7.395-6.751-10.61
		c-1.146-1.338-1.118-2.91-0.002-3.834c1.18-0.974,2.604-0.773,3.809,0.569c3.997,4.458,6.988,9.544,8.847,15.205
		c3.11,9.475,3.499,20.155,0.125,29.623c-1.818,5.105-4.537,9.972-7.999,14.15c-5.491,6.632-12.302,11.418-20.461,14.156
		c-10.048,3.37-21.829,3.401-31.68-0.709c-2.632-1.098-5.333-2.474-7.688-4.091c-2.948-2.023-5.913-4.426-8.385-7.015
		c-6.565-6.879-10.794-15.703-12.064-25.132c-1.001-7.423-0.104-15.12,2.529-22.123c2.549-6.778,6.473-12.63,11.764-17.493
		c7.112-6.537,16.542-10.875,26.172-11.843C207.31,18.381,210.292,18.415,213.156,18.705z"/>
	<path fill-rule="evenodd" d="M110.976,54.385c0-6.231,0-12.164,0-18.191c2.233,0,4.371,0,6.591,0c0,13.646,0,27.281,0,41.034
		c-2.052,0-4.104,0-6.299,0c0-1.034,0-2.067,0-3.47c-1.611,2.041-3.366,3.276-5.5,3.951c-5.407,1.712-12.108-0.7-14.71-6.19
		c-2.605-5.496-2.529-10.888,0.87-15.984c2.213-3.318,5.462-4.967,9.532-5.132C105.196,50.249,108.327,51.352,110.976,54.385z
		 M103.176,55.797c-1.458,0.158-3.08,0.643-4.463,1.913c-2.855,2.622-3.308,7.572-1.474,11.003c1.875,3.505,5.787,4.8,9.399,3.147
		c3.43-1.568,5.377-6.216,4.186-9.991C109.629,58.08,106.868,55.789,103.176,55.797z"/>
	<path fill-rule="evenodd" d="M31.254,47.96c-1.783-2.023-3.906-3.204-6.504-3.722c-5.494-1.098-11.337,1.494-13.845,6.618
		c-2.603,5.321-2.439,10.672,0.71,15.783c3.919,6.359,13.97,7.477,19.13,1.84c0.605-0.661,1.035-0.773,1.789-0.193
		c1.462,1.128,3.015,2.136,4.627,3.262c-1.563,2.133-3.448,3.572-5.604,4.706c-3.149,1.655-6.514,2.054-10.034,2.073
		c-9.593,0.047-18.054-6.021-19.792-16.431c-0.99-5.931-0.009-11.573,3.677-16.452c2.71-3.587,6.396-5.906,10.812-6.885
		c6.419-1.422,12.587-1.071,18.141,2.938c2.613,1.885,2.612,1.966,0.115,3.929C33.444,46.237,32.413,47.049,31.254,47.96z"/>
	<path fill-rule="evenodd" d="M79.31,69.304c1.486,1.189,2.928,2.345,4.425,3.544c-1.926,2.853-4.631,4.451-7.879,5.089
		c-4.348,0.852-8.526,0.261-12.221-2.282c-3.429-2.361-5.06-5.778-5.253-9.93c-0.152-3.273,0.192-6.411,2.021-9.25
		c2.538-3.937,6.188-5.831,10.81-6.048c3.209-0.15,6.215,0.328,8.854,2.351c2.367,1.814,3.705,4.268,4.326,7.08
		c0.388,1.758,0.371,3.603,0.567,5.405c0.104,0.957-0.274,1.247-1.222,1.241c-5.662-0.038-11.324-0.019-16.985-0.02
		c-0.544,0-1.09,0-1.768,0c0.441,2.739,1.875,4.625,4.252,5.532C73.111,73.492,76.538,72.656,79.31,69.304z M78.254,61.526
		c-0.528-4.917-3.37-6.576-7.699-5.954c-3.021,0.434-5.658,3.46-5.416,5.954C69.481,61.526,73.824,61.526,78.254,61.526z"/>
	<path fill-rule="evenodd" d="M140.952,56.563c-1.34,0-2.484,0.052-3.621-0.032c-0.331-0.024-0.892-0.418-0.905-0.668
		c-0.085-1.517-0.042-3.041-0.042-4.643c1.567,0,2.962,0,4.563,0c0-2.055,0.013-4.033-0.004-6.01
		c-0.015-1.67-0.031-1.67,1.633-1.671c1.608,0,3.216,0,4.916,0c0,2.563,0,5.016,0,7.609c2.232,0,4.378,0,6.679,0
		c0,1.652,0.05,3.172-0.047,4.681c-0.018,0.265-0.646,0.686-1.004,0.7c-1.817,0.072-3.638,0.033-5.587,0.033
		c0,3.891-0.013,7.666,0.011,11.441c0.004,0.752,0.134,1.507,0.245,2.254c0.199,1.355,1.008,2.135,2.367,2.176
		c1.126,0.036,2.255-0.088,3.577-0.15c0,1.591,0,3.291,0,5.091c-2.522,0.781-5.159,0.978-7.824,0.125
		c-2.8-0.896-4.699-3.411-4.755-6.365c-0.082-4.291-0.136-8.583-0.199-12.875C140.947,57.754,140.952,57.248,140.952,56.563z"/>
	<path fill-rule="evenodd" d="M47.662,77.324c-2.29,0-4.403,0-6.578,0c0-8.653,0-17.316,0-26.078c2.079,0,4.133,0,6.281,0
		c0,1.186,0,2.318,0,3.304c1.313-1.096,2.573-2.294,3.98-3.281c1.541-1.08,3.365-0.882,5.268-0.792c0,1.074,0,2.082,0,3.089
		c0,0.971,0,1.942,0,2.985c-1.136,0-2.178-0.068-3.209,0.012c-3.861,0.297-5.703,3.802-5.731,6.575
		c-0.044,4.256-0.011,8.512-0.011,12.769C47.662,76.326,47.662,76.746,47.662,77.324z"/>
	<path fill-rule="evenodd" d="M132.118,77.32c-2.211,0-4.327,0-6.497,0c0-8.656,0-17.284,0-26.015c2.123,0,4.266,0,6.497,0
		C132.118,59.923,132.118,68.575,132.118,77.32z"/>
	<path fill-rule="evenodd" d="M128.918,46.349c-1.986,0.285-4.268-1.837-4.167-3.684c0.151-2.754,1.495-4.242,4.222-4.236
		c2.431,0.006,4.245,1.674,4.255,3.908C133.237,44.599,131.357,46.348,128.918,46.349z"/>
	<path fill-rule="evenodd" fill="#F59725" d="M177.935,56.271c1.383,0,2.644,0,3.993,0c0.058,0.559,0.107,1.05,0.17,1.658
		c0.254-0.122,0.488-0.181,0.65-0.321c2.614-2.255,5.601-2.516,8.578-1.144c3.056,1.408,4.564,4.075,4.726,7.446
		c0.156,3.229-0.776,5.993-3.37,8.119c-2.118,1.736-7.158,2.389-9.771-0.302c-0.108-0.112-0.284-0.156-0.736-0.396
		c0,0.876,0,1.565,0,2.257c0.002,2.254-0.022,4.509,0.02,6.764c0.017,0.856-0.258,1.194-1.155,1.237
		c-3.161,0.148-3.159,0.178-3.161-2.953c-0.004-7.149-0.009-14.298-0.011-21.447C177.867,56.94,177.902,56.69,177.935,56.271z
		 M182.025,65.466c0.02,1.261,0.892,3.01,2.791,4.045c1.558,0.848,3.219,0.687,4.717-0.288c2.258-1.47,2.904-5.576,1.284-7.906
		c-1.281-1.842-3.188-2.55-5.21-1.932C183.523,60.021,182.025,62.186,182.025,65.466z"/>
	<path fill-rule="evenodd" fill="#F59725" d="M220.865,56.319c1.348,0,2.646,0,4.016,0c0.03,0.428,0.075,0.756,0.075,1.085
		c0.008,4.766-0.023,9.532,0.042,14.298c0.017,1.152-0.396,1.518-1.465,1.45c-0.798-0.051-1.602-0.01-2.458-0.01
		c-0.124-0.676-0.227-1.242-0.313-1.722c-1.235,0.676-2.362,1.607-3.646,1.934c-4.238,1.077-7.539-1.616-7.704-6.236
		c-0.116-3.231-0.016-6.468-0.031-9.702c-0.004-0.801,0.163-1.284,1.146-1.191c1.004,0.095,2.022,0.021,3.159,0.021
		c0,3.117-0.011,6.131,0.009,9.143c0.005,0.677,0.07,1.358,0.188,2.024c0.223,1.251,0.78,2.267,2.173,2.499
		c1.646,0.272,3.237-0.333,3.802-1.653c0.438-1.023,0.739-2.172,0.791-3.279c0.117-2.59,0.042-5.188,0.06-7.783
		C220.71,56.91,220.807,56.625,220.865,56.319z"/>
	<path fill-rule="evenodd" fill="#F59725" d="M228.053,70.71c0.898-0.835,1.756-1.634,2.395-2.229c1.466,0.637,2.696,1.279,4,1.689
		c0.587,0.186,1.399,0.071,1.962-0.207c0.53-0.262,1.173-0.901,1.202-1.408c0.033-0.563-0.431-1.458-0.924-1.69
		c-1.247-0.59-2.622-0.916-3.96-1.301c-2.505-0.719-3.735-2.111-3.763-4.326c-0.032-2.54,1.23-4.262,3.666-5.004
		c2.814-0.858,5.536-0.773,8.074,0.868c0.444,0.287,0.805,0.703,1.317,1.16c-0.953,0.849-1.796,1.6-2.646,2.357
		c-0.588-0.407-1.087-0.8-1.629-1.121c-1.21-0.716-2.519-0.876-3.777-0.25c-0.453,0.225-0.94,0.847-0.972,1.317
		c-0.032,0.466,0.371,1.19,0.79,1.412c0.846,0.449,1.839,0.611,2.758,0.934c1.076,0.375,2.22,0.658,3.19,1.225
		c2.849,1.666,3.107,5.663,0.582,7.824C237.274,74.565,230.806,73.994,228.053,70.71z"/>
	<path fill-rule="evenodd" fill="#F59725" d="M233.536,26.407c0.95,0,1.878-0.027,2.805,0.006c1.438,0.052,2.375,1.017,2.404,2.422
		c0.028,1.409-0.89,2.386-2.326,2.483c-0.963,0.064-2.28-0.215-2.793,0.302c-0.511,0.512-0.205,1.829-0.27,2.791
		c-0.09,1.345-1.102,2.369-2.352,2.396c-1.381,0.03-2.444-0.914-2.583-2.298c-0.101-1.001,0.141-2.308-0.402-2.911
		c-0.465-0.516-1.825-0.22-2.789-0.292c-1.314-0.098-2.239-1.1-2.267-2.448c-0.026-1.235,1.001-2.341,2.284-2.448
		c0.963-0.08,2.269,0.2,2.796-0.317c0.525-0.516,0.272-1.827,0.353-2.79c0.121-1.422,1.221-2.382,2.67-2.324
		c1.283,0.052,2.24,1.053,2.287,2.418c0.029,0.85,0.027,1.701,0.045,2.551C233.4,26.031,233.444,26.11,233.536,26.407z"/>
	<path fill-rule="evenodd" fill="#F59725" d="M204.458,46.45c0,3.286-0.001,6.382,0.001,9.477c0.003,5.27-0.017,10.54,0.033,15.81
		c0.01,1.046-0.311,1.405-1.363,1.412c-2.973,0.021-2.975,0.06-2.974-2.943c0-7.353,0-14.705,0.005-22.057
		c0.001-1.672,0.007-1.676,1.706-1.697C202.703,46.442,203.54,46.45,204.458,46.45z"/>
</g>
</svg>
