<svg id="Layer_1" xmlns="http://www.w3.org/2000/svg" viewBox="0 0 140 140"><style>.st0{fill:none;stroke:#777;stroke-miterlimit:10}.st1{fill:#fff}.st2{fill:#777}.st3{fill:#ffd274}</style><path class="st0" d="M110.5 127h-76c-1.7 0-3-1.4-3-3V26c0-1.6 1.3-3 3-3h76c1.7 0 3 1.4 3 3v98c0 1.6-1.3 3-3 3z"/><path class="st1" d="M93.5 99.5H107V16c0-1.4-1.1-2.5-2.5-2.5h-76c-1.4 0-2.5 1.1-2.5 2.5v98c0 1.4 1.1 2.5 2.5 2.5H90V103c0-2 1.6-3.5 3.5-3.5z"/><path class="st2" d="M104.5 12.5h-76C26.6 12.5 25 14 25 16v98c0 1.9 1.6 3.5 3.5 3.5h62-.2c-.2-.1-.3-.3-.3-.5H28.5c-1.7 0-3-1.3-3-3V16c0-1.7 1.3-3 3-3h76c1.7 0 3 1.3 3 3v83.5c.2 0 .4.1.5.3s0 .4-.1.5l-.4.4L91.2 117l-.4.4c-.1.1-.2.1-.4.1L108 99.8V16c0-2-1.6-3.5-3.5-3.5z"/><path class="st2" d="M90 116.5H28.5c-1.4 0-2.5-1.1-2.5-2.5V16c0-1.4 1.1-2.5 2.5-2.5h76c1.4 0 2.5 1.1 2.5 2.5v83.5h.5V16c0-1.7-1.3-3-3-3h-76c-1.7 0-3 1.3-3 3v98c0 1.7 1.3 3 3 3H90v-.5z"/><path class="st1" d="M93.5 100.5c-1.4 0-2.5 1.1-2.5 2.5v12.8l15.3-15.3H93.5z"/><path class="st2" d="M91.7 116.5l15.3-15.3v-.7l-16 16zm1.8-16.5H107v-.5H93.5c-1.9 0-3.5 1.6-3.5 3.5v13.5h.5V103c0-1.7 1.3-3 3-3zm14 .7l.4-.4c.1-.1.2-.4.1-.5s-.3-.3-.5-.3v1.2zM91.2 117H90c0 .2.1.4.3.5h.2c.1 0 .3-.1.4-.1l.3-.4zm15.8-16.5v.7l.5-.5v-.7zm-16 16l-.5.5h.7l.5-.5zm16-17h.5v.5h-.5zm-16.5 17H90v.5h.5z"/><path class="st2" d="M107 100.5v-.5H93.5c-1.7 0-3 1.3-3 3v13.5h.5l16-16zM91 103c0-1.4 1.1-2.5 2.5-2.5h12.8L91 115.8V103zm16.5-3h-.5v.5zm-17 16.5v.5l.5-.5z"/><path class="st3" d="M97.5 61.6h-62c-1.1 0-2-.9-2-2V26c0-1.1.9-2 2-2h62c1.1 0 2 .9 2 2v33.6c0 1.1-.9 2-2 2z"/></svg>