<svg id="Layer_1" xmlns="http://www.w3.org/2000/svg" viewBox="0 0 180 140"><style>.st0{fill:#777}.st1{fill:none;stroke:#777;stroke-miterlimit:10}.st2{fill:#ffd274}</style><path class="st0" d="M138.3 105.6h-98c-1.9 0-3.5-1.6-3.5-3.5v-62c0-1.9 1.6-3.5 3.5-3.5h98c1.9 0 3.5 1.6 3.5 3.5v62c0 2-1.5 3.5-3.5 3.5zm-98-68c-1.4 0-2.5 1.1-2.5 2.5v62c0 1.4 1.1 2.5 2.5 2.5h98c1.4 0 2.5-1.1 2.5-2.5v-62c0-1.4-1.1-2.5-2.5-2.5h-98z"/><path class="st1" d="M63.4 96.4h-14c-1.1 0-2-.9-2-2v-12c0-1.1.9-2 2-2h14c1.1 0 2 .9 2 2v12c0 1.1-.9 2-2 2z"/><path class="st2" d="M38.3 50.5h102v16h-102zm33.9 30.6h58.5v1.3H72.2zm0 14h58.5v1.3H72.2zm0-7h41.2v1.3H72.2z"/><path class="st1" d="M160.3 71.1l1.9 13.1 11.8-6.4M18.5 73.7L17 60.6 5 66.5"/><path class="st0" d="M122.4 124.8c-.1-.3-.3-.6-.4-.9 0 0-.1 0-.1.1-.3.1-.5.3-.8.4.1.3.3.6.4.9.3-.2.6-.4.9-.5zm39.2-41c.3.1.6.3.9.4.2-.3.3-.6.5-.9-.3-.1-.6-.3-.9-.4-.2.3-.4.6-.5.9z"/><path class="st0" d="M164.4 27.2C146.9-3.1 99.5-8.7 58.9 14.8l-.6.3c.2.3.4.5.7.8.1-.1.3-.2.4-.2C76.2 5.9 94.1 1.2 110.6 1.2c22.9 0 42.9 9.1 52.9 26.5 9.4 16.2 8.1 36.4-1.5 55.2.3.1.6.3.9.4 9.7-19.1 11-39.6 1.5-56.1zM61.1 137.8c-19.6-2.3-35-11.5-43.4-25.9-8.3-14.5-8.6-32.4-.7-50.5-.3-.2-.6-.4-.8-.6 0 0 0 .1-.1.1-8 18.4-7.7 36.7.8 51.4 8.5 14.7 24.2 24.1 44.1 26.4 3.2.4 6.4.6 9.7.6 16.8 0 34.5-4.9 50.8-14.1-.1-.3-.3-.6-.4-.9-19.3 11-40.5 15.8-60 13.5z"/><path class="st0" d="M58.1 16.4c.3-.2.6-.4.9-.5-.2-.3-.4-.5-.7-.8-.3.2-.6.3-.9.5.3.3.5.6.7.8zM17 61.3c.1-.3.3-.6.4-.9-.3-.2-.6-.4-.8-.6-.1.3-.3.6-.4.9.2.3.5.5.8.6 0 .1 0 0 0 0z"/></svg>