<svg id="Layer_1" xmlns="http://www.w3.org/2000/svg" viewBox="0 0 140 140"><style>.st0{fill:none;stroke:#777;stroke-miterlimit:10}.st1{fill:#ffd274}.st2{fill:#777}</style><path class="st0" d="M107.3 127.5H31.4c-1.6 0-3-1.4-3-3V28.7c0-1.6 1.4-3 3-3h75.9c1.7 0 3 1.4 3 3v95.8c0 1.6-1.3 3-3 3z"/><path class="st0" d="M28.4 31.4V26c0-2.2 1.7-4.1 3.9-4.3L98 12c2.5-.3 4.7 1.7 4.7 4.3v9.3"/><circle class="st1" cx="70.6" cy="63" r="21"/><path class="st2" d="M78.9 52.6c-.1-.1-.2-.1-.4-.1s-4.5.6-4.4 10.6c0 .3.2.5.5.5.2 0 1.2.2 1.2 1.6 0 1.1-.8 1.4-2.2 1.7h-.1c-.2-.3-.3-.7-.5-1-.8-1.8-1.7-3.6-1.7-5L71.2 50c0-.3-.2-.5-.5-.5s-.5.2-.5.5l-.1 10.9c-.1 1.6-1 3.3-1.8 5-.2.3-.3.7-.5 1h-.1c-1.5-.4-2.2-.6-2.2-1.7 0-1.5 1-1.6 1.2-1.6.3 0 .5-.2.5-.5.1-9.9-4.2-10.5-4.4-10.6-.1 0-.3 0-.4.1-.1.1-.2.2-.2.4v17.8c0 .3.2.5.5.5h4.2c.4 2.9 2.7 5.2 3.8 5.2 1.2 0 3.4-2.6 3.8-5.2h4.2c.3 0 .5-.2.5-.5V53c-.1-.2-.2-.3-.3-.4zm-3.8 10c0-6.4 2-8.3 3-8.9v11h-1.4c-.1-1.3-.9-1.9-1.6-2.1zm-1.6 7.7h-2.4c0-.5.2-1.4.8-1.8.3-.2.6-.3.9-.4.4.8.7 1.6.7 2.2zm-4.3-4c.5-1 1.1-2.2 1.5-3.3.4 1.1.9 2.2 1.4 3.3.1.3.3.6.4.8-.4.1-.7.3-1 .5-.4.2-.6.5-.8.9-.2-.3-.4-.6-.8-.9-.3-.2-.7-.3-1-.5 0-.2.1-.5.3-.8zm-.9 1.8c.3.1.7.2.9.4.6.4.8 1.2.8 1.8h-2.4c.1-.7.4-1.4.7-2.2zm-2.2-5.5c-.7.2-1.4.8-1.6 2h-1.4v-11c1 .7 2.9 2.6 3 9zm-3 3h1.4c.3 1.5 1.7 1.9 2.9 2.2-.4.9-.6 1.7-.6 2.4h-3.6v-4.6zm4.7 5.7h2.3v4c-.8-.7-2-2.2-2.3-4zm3.3 3.9v-4h2.3c-.3 1.9-1.6 3.4-2.3 4zm3.4-4.9c0-.7-.3-1.5-.7-2.4 1.2-.3 2.6-.7 2.9-2.2h1.4v4.6h-3.6z"/><path class="st0" d="M33.5 25.7v101.8"/><path class="st2" d="M43 108.9s-.1-.1-.1-.2v-7.2c0-.1 0-.1.1-.2 0 0 .1-.1.2-.1H46c.8 0 1.5.2 2 .6.5.4.7 1 .7 1.7 0 .8-.2 1.3-.7 1.7-.5.4-1.1.6-2 .6h-2v2.8c0 .1 0 .1-.1.2s-.1.1-.2.1h-.5c-.1.1-.1 0-.2 0zm2.9-3.9c1.1 0 1.7-.5 1.7-1.4 0-.5-.1-.8-.4-1.1-.3-.2-.7-.4-1.2-.4h-2v2.9h1.9zm3.5 3.9s-.1-.1-.1-.2v-.1l2.7-7.1c.1-.2.2-.2.4-.2h.7c.2 0 .3.1.4.2l2.7 7.1v.1c0 .1 0 .1-.1.2s-.1.1-.2.1h-.5c-.1 0-.1 0-.2-.1l-.1-.1-.6-1.6H51l-.6 1.6c-.1.1-.2.2-.3.2h-.5c-.1 0-.1-.1-.2-.1zm1.9-2.6h3l-1.5-3.9-1.5 3.9zm7.5 2.5c-.4-.2-.8-.4-1-.8-.2-.3-.4-.6-.4-1 0-.1 0-.1.1-.2s.1-.1.2-.1h.5c.1 0 .2.1.3.2.1.3.3.6.6.8.3.2.8.3 1.3.3.6 0 1.1-.1 1.4-.3.3-.2.5-.5.5-.9 0-.2-.1-.5-.2-.6s-.4-.3-.7-.4c-.3-.1-.7-.3-1.3-.4-.6-.2-1-.3-1.3-.5s-.6-.4-.8-.7c-.2-.3-.3-.6-.3-1s.1-.8.3-1.1.5-.6.9-.7.9-.3 1.4-.3c.6 0 1.1.1 1.5.3.4.2.7.5.9.8.2.3.3.6.3.9 0 .1 0 .1-.1.2s-.1.1-.2.1h-.5c-.1 0-.1 0-.2-.1-.1 0-.1-.1-.1-.2 0-.3-.2-.6-.5-.8-.3-.2-.7-.3-1.2-.3s-.9.1-1.2.3c-.3.2-.4.5-.4.9 0 .3.1.5.2.6s.3.3.6.4c.3.1.7.3 1.2.4.6.2 1.1.4 1.5.5s.6.4.8.7c.2.3.3.6.3 1 0 .7-.3 1.2-.8 1.6-.5.4-1.2.6-2.1.6-.5.1-1.1 0-1.5-.2zm7.4 0c-.4-.2-.8-.4-1-.8-.2-.3-.4-.6-.4-1 0-.1 0-.1.1-.2s.1-.1.2-.1h.5c.1 0 .2.1.3.2.1.3.3.6.6.8.3.2.8.3 1.3.3.6 0 1.1-.1 1.4-.3.3-.2.5-.5.5-.9 0-.2-.1-.5-.2-.6s-.4-.3-.7-.4c-.3-.1-.7-.3-1.3-.4-.6-.2-1-.3-1.3-.5s-.6-.4-.8-.7c-.2-.3-.3-.6-.3-1s.1-.8.3-1.1.5-.6.9-.7.9-.3 1.4-.3c.6 0 1.1.1 1.5.3.4.2.7.5.9.8.2.3.3.6.3.9 0 .1 0 .1-.1.2s-.1.1-.2.1h-.5c-.1 0-.1 0-.2-.1-.1 0-.1-.1-.1-.2 0-.3-.2-.6-.5-.8-.3-.2-.7-.3-1.2-.3s-.9.1-1.2.3c-.3.2-.4.5-.4.9 0 .3.1.5.2.6s.3.3.6.4c.3.1.7.3 1.2.4.6.2 1.1.4 1.5.5s.6.4.8.7c.2.3.3.6.3 1 0 .7-.3 1.2-.8 1.6-.5.4-1.2.6-2.1.6-.6.1-1.1 0-1.5-.2zm6.5.1s-.1-.1-.1-.2v-7.2c0-.1 0-.1.1-.2 0 0 .1-.1.2-.1h2.8c.8 0 1.5.2 2 .6.5.4.7 1 .7 1.7 0 .8-.2 1.3-.7 1.7-.5.4-1.1.6-2 .6h-2v2.8c0 .1 0 .1-.1.2s-.1.1-.2.1h-.5c-.1.1-.1 0-.2 0zm2.9-3.9c1.1 0 1.7-.5 1.7-1.4 0-.5-.1-.8-.4-1.1-.3-.2-.7-.4-1.2-.4h-1.9v2.9h1.8zm5.2 3.3c-.5-.5-.8-1.3-.8-2.3v-1.8c0-1 .3-1.8.9-2.3.5-.5 1.3-.8 2.2-.8s1.6.3 2.2.8c.5.5.8 1.3.8 2.3v1.8c0 1-.3 1.8-.8 2.3-.5.5-1.3.8-2.2.8s-1.8-.3-2.3-.8zm3.6-.7c.4-.4.5-.9.6-1.6v-1.8c0-.7-.2-1.3-.6-1.6s-.8-.6-1.4-.6-1.1.2-1.4.5c-.4.4-.5.9-.6 1.6v1.8c0 .7.2 1.3.6 1.6.4.4.8.5 1.4.5.6.1 1.1 0 1.4-.4zm3.9 1.3s-.1-.1-.1-.2v-7.2c0-.1 0-.1.1-.2 0 0 .1-.1.2-.1h2.7c.8 0 1.5.2 2 .6s.7 1 .7 1.7c0 .6-.1 1-.4 1.4-.3.4-.7.6-1.2.7l1.7 2.9v.1c0 .1 0 .1-.1.2 0 0-.1.1-.2.1h-.5c-.1 0-.2 0-.3-.1l-.2-.2-1.6-2.8h-2v2.9c0 .1 0 .1-.1.2-.1 0-.1.1-.2.1h-.5c.1 0 0-.1 0-.1zm2.8-4c1.1 0 1.7-.5 1.7-1.4 0-.9-.6-1.4-1.7-1.4h-1.8v2.8h1.8zm6.5 4s-.1-.1-.1-.2v-6.5h-2.1c-.1 0-.1 0-.2-.1s-.1-.1-.1-.2v-.4c0-.1 0-.1.1-.2 0 0 .1-.1.2-.1h5.3c.1 0 .1 0 .2.1 0 0 .1.1.1.2v.4c0 .1 0 .1-.1.2s-.1.1-.2.1h-2.1v6.5c0 .1 0 .1-.1.2-.1 0-.1.1-.2.1h-.5c-.1 0-.1-.1-.2-.1z"/></svg>